<svg version="1.2" xmlns="http://www.w3.org/2000/svg" viewBox="0 0 210 112" width="210" height="112">
	<title>Group 94</title>
	<style>
		.s0 { fill: #f4cd00 } 
		.s1 { fill: #012839 } 
	</style>
	<path fill-rule="evenodd" class="s0" d="m-2.4-1.6l391.3 209 10.5-19.7-391.4-208.9z"/>
	<path class="s1" d="m121 53.4l-1.7-2.6-0.2 0.4 3.1-0.1-0.1-1.5-2.9 0.1 0.1 0.2 1.4-2.5-1.4-0.7-1.3 2.5h0.3l-1.5-2.5-1.4 0.8 1.7 2.6 0.2-0.4h-3.1l0.1 1.6 3-0.1-0.2-0.3-1.4 2.6 1.4 0.7 1.3-2.6-0.3 0.1 1.6 2.5z"/>
	<path class="s1" d="m127.9 60.6q-0.8-0.5-1.4-1.1-0.6-0.7-0.8-1.5-0.3-0.8-0.2-1.6 0.1-0.9 0.5-1.7 0.4-0.9 1.1-1.4 0.7-0.5 1.5-0.8 0.8-0.2 1.7-0.1 0.8 0.1 1.7 0.6 0.9 0.5 1.5 1.2 0.6 0.7 0.8 1.6l-1.4 0.4q-0.1-0.7-0.5-1.2-0.4-0.5-1-0.8-0.6-0.3-1.1-0.4-0.6 0-1.2 0.1-0.5 0.2-1 0.6-0.4 0.3-0.7 0.9-0.3 0.6-0.4 1.2 0 0.5 0.1 1.1 0.2 0.5 0.6 1 0.4 0.4 0.9 0.7 0.6 0.3 1.2 0.4 0.6 0 1.3-0.2l0.4 1.3q-0.8 0.4-1.7 0.3-1-0.1-1.9-0.6zm7.3 3.9q-0.9-0.5-1.4-1.2-0.6-0.6-0.9-1.4-0.3-0.8-0.2-1.7 0.1-0.8 0.5-1.7 0.5-0.8 1.1-1.3 0.7-0.6 1.5-0.8 0.8-0.2 1.7-0.1 0.9 0.1 1.8 0.6 0.8 0.4 1.4 1.1 0.6 0.7 0.8 1.5 0.3 0.8 0.2 1.6 0 0.9-0.5 1.7-0.4 0.8-1.1 1.4-0.7 0.5-1.5 0.7-0.8 0.2-1.7 0.1-0.8-0.1-1.7-0.5zm0.6-1.2q0.6 0.3 1.2 0.3 0.6 0.1 1.1-0.1 0.5-0.1 1-0.5 0.4-0.4 0.7-0.9 0.3-0.6 0.4-1.2 0-0.6-0.1-1.1-0.2-0.5-0.5-1-0.4-0.4-1-0.7-0.5-0.3-1.1-0.4-0.6-0.1-1.1 0.1-0.6 0.2-1 0.5-0.5 0.4-0.8 1-0.3 0.5-0.3 1.1-0.1 0.6 0.1 1.1 0.1 0.6 0.5 1 0.4 0.5 0.9 0.8zm4.9 4l4-7.4 1.1 0.6 0.3 7.1-0.6-0.3 6.1-3.7 1.1 0.6-3.9 7.4-1.3-0.7 2.9-5.3 0.2 0.1-5.1 3.1-0.6-0.4-0.3-5.9 0.3 0.1-2.9 5.4zm10.1 5.4l4-7.4 1.3 0.7-3.9 7.4zm3.4 1.8l3.9-7.4 1.2 0.6 1.6 8.2-0.6-0.3 3-5.7 1.4 0.7-3.9 7.5-1.2-0.7-1.6-8.1 0.6 0.3-3.1 5.7zm12 6.5q-0.9-0.5-1.4-1.1-0.6-0.7-0.9-1.5-0.2-0.8-0.2-1.7 0.1-0.8 0.6-1.6 0.4-0.9 1.1-1.4 0.6-0.5 1.4-0.8 0.9-0.2 1.8-0.1 0.8 0.1 1.7 0.6 0.9 0.5 1.5 1.2 0.6 0.7 0.8 1.6l-1.3 0.4q-0.2-0.7-0.6-1.2-0.4-0.4-1-0.8-0.6-0.3-1.2-0.4-0.6 0-1.1 0.1-0.6 0.2-1 0.6-0.5 0.3-0.8 0.9-0.3 0.6-0.3 1.1-0.1 0.6 0.1 1.2 0.2 0.5 0.5 1 0.4 0.4 1 0.7 0.6 0.3 1.2 0.4 0.6 0.1 1.3 0l0.2 1.4q-0.8 0.2-1.7 0-0.9-0.2-1.7-0.6zm3.4 0.6l-1.2-0.9 1.5-2.7 1.3 0.7zm6.5 4.7q-0.8-0.5-1.5-1.2-0.7-0.7-0.9-1.3l1-0.8q0.3 0.6 0.8 1.2 0.5 0.5 1.2 0.9 0.6 0.3 1 0.4 0.5 0.1 0.8-0.1 0.2-0.1 0.4-0.4 0.2-0.3 0-0.6-0.1-0.4-0.4-0.7-0.3-0.3-0.8-0.7-0.4-0.4-0.8-0.7-0.4-0.4-0.6-0.9-0.3-0.4-0.3-0.9-0.1-0.5 0.2-1.1 0.4-0.6 1-1 0.6-0.3 1.4-0.2 0.8 0 1.8 0.6 0.7 0.3 1.2 0.8 0.6 0.6 0.9 1.1l-1 0.9q-0.3-0.6-0.8-1-0.4-0.4-0.9-0.7-0.6-0.3-1-0.4-0.4 0-0.7 0.1-0.3 0.2-0.5 0.4-0.1 0.4 0 0.7 0.1 0.3 0.4 0.7 0.4 0.3 0.8 0.7 0.4 0.3 0.8 0.7 0.4 0.4 0.7 0.8 0.2 0.5 0.3 1 0 0.5-0.3 1.1-0.3 0.6-0.9 0.9-0.6 0.3-1.4 0.3-0.9-0.1-1.9-0.6zm7.9 4.1q-0.9-0.4-1.5-1.1-0.6-0.7-0.8-1.5-0.3-0.8-0.2-1.6 0-0.9 0.5-1.7 0.4-0.8 1.1-1.4 0.7-0.5 1.5-0.7 0.8-0.2 1.7-0.1 0.9 0.1 1.7 0.5 0.9 0.5 1.4 1.2 0.6 0.6 0.9 1.4 0.3 0.8 0.2 1.7-0.1 0.8-0.5 1.7-0.5 0.8-1.1 1.3-0.7 0.6-1.5 0.8-0.8 0.2-1.7 0.1-0.9-0.1-1.7-0.6zm0.6-1.2q0.5 0.3 1.1 0.4 0.6 0.1 1.1-0.1 0.6-0.2 1-0.5 0.5-0.4 0.8-1 0.3-0.6 0.3-1.1 0.1-0.6-0.1-1.1-0.1-0.6-0.5-1-0.4-0.5-0.9-0.8-0.6-0.3-1.2-0.3-0.5-0.1-1.1 0.1-0.5 0.1-1 0.5-0.4 0.4-0.7 0.9-0.3 0.6-0.4 1.2 0 0.6 0.1 1.1 0.2 0.5 0.6 1 0.3 0.4 0.9 0.7zm8.3 6q-0.9-0.5-1.5-1.1-0.6-0.7-0.8-1.5-0.3-0.8-0.2-1.7 0.1-0.8 0.5-1.6 0.4-0.9 1.1-1.4 0.7-0.5 1.5-0.8 0.8-0.2 1.7-0.1 0.9 0.1 1.7 0.6 0.9 0.4 1.5 1.1 0.5 0.7 0.8 1.5 0.3 0.8 0.2 1.7-0.1 0.8-0.5 1.6-0.5 0.8-1.1 1.4-0.7 0.5-1.5 0.7-0.8 0.3-1.7 0.2-0.9-0.1-1.7-0.6zm0.6-1.2q0.6 0.3 1.1 0.4 0.6 0 1.1-0.1 0.6-0.2 1-0.6 0.5-0.3 0.8-0.9 0.3-0.6 0.3-1.2 0.1-0.5-0.1-1.1-0.1-0.5-0.5-1-0.4-0.4-0.9-0.7-0.6-0.3-1.2-0.4-0.5 0-1.1 0.1-0.5 0.2-1 0.6-0.4 0.3-0.7 0.9-0.3 0.6-0.4 1.1 0 0.6 0.1 1.2 0.2 0.5 0.6 0.9 0.3 0.5 0.9 0.8zm4.9 4l3.9-7.4 1.1 0.6 1.6 8.2-0.5-0.3 3-5.7 1.4 0.7-4 7.4-1.1-0.6-1.6-8.2 0.6 0.3-3.1 5.7z"/>
	<path class="s1" d="m30.9 8.6q-0.8-0.5-1.4-1.1-0.6-0.7-0.8-1.5-0.3-0.8-0.2-1.6 0.1-0.9 0.5-1.7 0.4-0.9 1.1-1.4 0.7-0.5 1.5-0.8 0.8-0.2 1.7-0.1 0.8 0.1 1.7 0.6 0.9 0.5 1.5 1.2 0.6 0.7 0.8 1.6l-1.4 0.4q-0.1-0.7-0.5-1.2-0.4-0.5-1-0.8-0.6-0.3-1.1-0.4-0.6 0-1.2 0.1-0.5 0.2-1 0.6-0.4 0.3-0.7 0.9-0.3 0.6-0.4 1.2 0 0.5 0.1 1.1 0.2 0.5 0.6 1 0.4 0.4 0.9 0.7 0.6 0.3 1.2 0.4 0.6 0 1.3-0.2l0.4 1.3q-0.8 0.4-1.7 0.3-1-0.1-1.9-0.6zm7.3 3.9q-0.9-0.5-1.4-1.2-0.6-0.6-0.9-1.4-0.3-0.8-0.2-1.7 0.1-0.8 0.5-1.7 0.5-0.8 1.1-1.3 0.7-0.6 1.5-0.8 0.8-0.2 1.7-0.1 0.9 0.1 1.8 0.6 0.8 0.4 1.4 1.1 0.6 0.7 0.8 1.5 0.3 0.8 0.2 1.6 0 0.9-0.5 1.7-0.4 0.8-1.1 1.4-0.7 0.5-1.5 0.7-0.8 0.3-1.7 0.1-0.8-0.1-1.7-0.5zm0.6-1.2q0.6 0.3 1.2 0.3 0.5 0.1 1.1-0.1 0.5-0.1 1-0.5 0.4-0.4 0.7-0.9 0.3-0.6 0.4-1.2 0-0.6-0.1-1.1-0.2-0.5-0.6-1-0.3-0.4-0.9-0.7-0.5-0.3-1.1-0.4-0.6-0.1-1.1 0.1-0.6 0.2-1 0.5-0.5 0.4-0.8 1-0.3 0.5-0.3 1.1-0.1 0.6 0.1 1.2 0.1 0.5 0.5 0.9 0.4 0.5 0.9 0.8zm4.9 4l3.9-7.4 1.2 0.6 0.3 7.1-0.6-0.3 6.1-3.7 1.1 0.6-3.9 7.4-1.3-0.7 2.9-5.3 0.2 0.1-5.1 3.1-0.6-0.4-0.3-5.9 0.3 0.1-2.9 5.4zm10.1 5.4l4-7.4 1.3 0.7-3.9 7.4zm3.4 1.8l3.9-7.4 1.2 0.6 1.6 8.2-0.6-0.3 3-5.7 1.4 0.7-4 7.5-1.1-0.7-1.6-8.1 0.6 0.3-3.1 5.7zm12 6.5q-0.9-0.5-1.4-1.1-0.6-0.7-0.9-1.5-0.2-0.8-0.2-1.7 0.1-0.8 0.5-1.6 0.5-0.9 1.2-1.4 0.6-0.5 1.4-0.8 0.9-0.2 1.7-0.1 0.9 0.1 1.8 0.6 0.9 0.5 1.5 1.2 0.6 0.7 0.8 1.6l-1.3 0.4q-0.2-0.7-0.6-1.2-0.4-0.4-1-0.8-0.6-0.3-1.2-0.4-0.6 0-1.1 0.1-0.6 0.2-1 0.6-0.5 0.3-0.8 0.9-0.3 0.6-0.3 1.1-0.1 0.6 0.1 1.2 0.2 0.5 0.5 1 0.4 0.4 1 0.7 0.6 0.3 1.2 0.4 0.6 0.1 1.3 0l0.2 1.4q-0.8 0.2-1.7 0-0.9-0.2-1.7-0.6zm3.4 0.6l-1.2-0.9 1.5-2.7 1.3 0.7zm6.5 4.7q-0.9-0.5-1.5-1.2-0.7-0.7-0.9-1.3l1-0.8q0.3 0.6 0.8 1.2 0.5 0.5 1.2 0.9 0.6 0.3 1 0.4 0.5 0.1 0.7-0.1 0.3-0.1 0.5-0.4 0.2-0.3 0-0.6-0.1-0.4-0.4-0.7-0.3-0.3-0.8-0.7-0.4-0.4-0.8-0.7-0.4-0.4-0.6-0.9-0.3-0.4-0.3-0.9-0.1-0.5 0.2-1.1 0.4-0.6 0.9-1 0.6-0.3 1.5-0.2 0.8 0 1.8 0.6 0.7 0.3 1.2 0.8 0.6 0.6 0.9 1.1l-1 0.9q-0.3-0.6-0.8-1-0.4-0.4-0.9-0.7-0.6-0.3-1-0.4-0.4 0-0.7 0.1-0.3 0.2-0.5 0.4-0.1 0.4 0 0.7 0.1 0.3 0.4 0.7 0.4 0.3 0.8 0.7 0.4 0.3 0.8 0.7 0.4 0.4 0.7 0.8 0.2 0.5 0.3 1 0 0.5-0.3 1.1-0.3 0.6-0.9 0.9-0.6 0.3-1.4 0.3-0.9-0.1-1.9-0.6zm7.8 4.1q-0.8-0.4-1.4-1.1-0.6-0.7-0.8-1.5-0.3-0.8-0.2-1.6 0-0.9 0.5-1.7 0.4-0.8 1.1-1.4 0.7-0.5 1.5-0.7 0.8-0.2 1.7-0.1 0.9 0.1 1.7 0.5 0.9 0.5 1.4 1.2 0.6 0.6 0.9 1.4 0.3 0.8 0.2 1.7-0.1 0.8-0.5 1.7-0.5 0.8-1.1 1.3-0.7 0.6-1.5 0.8-0.8 0.2-1.7 0.1-0.9-0.1-1.8-0.6zm0.7-1.2q0.5 0.3 1.1 0.4 0.6 0.1 1.1-0.1 0.6-0.2 1-0.5 0.5-0.4 0.8-1 0.3-0.6 0.3-1.1 0.1-0.6-0.1-1.1-0.1-0.6-0.5-1-0.4-0.5-0.9-0.8-0.6-0.3-1.2-0.3-0.5-0.1-1.1 0.1-0.5 0.1-1 0.5-0.4 0.4-0.7 0.9-0.3 0.6-0.4 1.2 0 0.6 0.1 1.1 0.2 0.5 0.5 1 0.4 0.4 1 0.7zm8.3 6q-0.9-0.5-1.5-1.1-0.6-0.7-0.8-1.5-0.3-0.8-0.2-1.7 0-0.8 0.5-1.6 0.4-0.9 1.1-1.4 0.7-0.5 1.5-0.8 0.8-0.2 1.7-0.1 0.9 0.1 1.7 0.6 0.9 0.4 1.5 1.1 0.5 0.7 0.8 1.5 0.3 0.8 0.2 1.7-0.1 0.8-0.5 1.6-0.5 0.8-1.1 1.4-0.7 0.5-1.5 0.7-0.8 0.3-1.7 0.2-0.9-0.1-1.7-0.6zm0.6-1.2q0.5 0.3 1.1 0.4 0.6 0 1.1-0.1 0.6-0.2 1-0.6 0.5-0.3 0.8-0.9 0.3-0.6 0.3-1.2 0.1-0.5-0.1-1.1-0.1-0.5-0.5-1-0.4-0.4-0.9-0.7-0.6-0.3-1.2-0.4-0.5 0-1.1 0.1-0.5 0.2-1 0.6-0.4 0.3-0.7 0.9-0.3 0.6-0.4 1.1 0 0.6 0.1 1.2 0.2 0.5 0.6 0.9 0.3 0.5 0.9 0.8zm4.8 4l4-7.4 1.1 0.6 1.6 8.2-0.5-0.3 3-5.7 1.4 0.7-4 7.4-1.1-0.6-1.6-8.2 0.6 0.3-3.1 5.7z"/>
	<path class="s1" d="m20.3 1.4l-1.7-2.6-0.2 0.4h3.1l-0.1-1.6-3 0.1 0.2 0.3 1.4-2.5-1.4-0.8-1.3 2.6h0.3l-1.6-2.5-1.3 0.8 1.7 2.6 0.2-0.4h-3.1v1.6l3-0.1-0.1-0.3-1.4 2.5 1.3 0.7 1.4-2.5h-0.3l1.5 2.6z"/>
</svg>