<svg version="1.2" xmlns="http://www.w3.org/2000/svg" viewBox="0 0 210 112" width="210" height="112">
	<title>Group 94 (2)</title>
	<style>
		.s0 { fill: #f4cd00 } 
		.s1 { fill: #012839 } 
		.s2 { fill: #022a3a } 
	</style>
	<path fill-rule="evenodd" class="s0" d="m-2.4-1.6l391.3 209 10.5-19.7-391.4-208.9z"/>
	<path class="s1" d="m121 53.4l-1.7-2.6-0.2 0.4 3.1-0.1-0.1-1.5-2.9 0.1 0.1 0.2 1.4-2.5-1.4-0.7-1.3 2.5h0.3l-1.5-2.5-1.4 0.8 1.7 2.6 0.2-0.4h-3.1l0.1 1.6 3-0.1-0.2-0.3-1.4 2.6 1.4 0.7 1.3-2.6-0.3 0.1 1.6 2.5z"/>
	<path class="s2" d="m135.4 51.9l3 0.4-0.4 0.7-3-0.4zm0.7-1.2l2.9 0.4-0.3 0.6-3-0.4zm-2 11.6q0.1 0 0.1 0.1l-0.6 1q0 0-0.1 0l-2.7-1.4 4.3-8.1 1.4 0.8-3.7 6.9zm1.8 0.9q0 0.1 0 0.1l-0.5 1q-0.1 0.1-0.1 0.1l-1.9-1.1q-0.1 0-0.1 0l0.6-1.1q0 0 0.1 0zm1.8 1q0 0 0 0l-0.5 1.1q-0.1 0-0.1 0l-1.9-1q-0.1-0.1-0.1-0.1l0.6-1q0-0.1 0.1 0zm1.8 0.9q0 0 0 0.1l-0.6 1q0 0.1 0 0l-2-1q0 0 0-0.1l0.6-1q0 0 0 0zm1.9 1q0 0 0 0l-0.6 1.1q0 0 0 0l-2-1q0-0.1 0-0.1l0.6-1q0-0.1 0-0.1zm1.8 1q0.1 0 0.1 0.1l-0.6 1q0 0.1-0.1 0l-1.9-1q0 0 0-0.1l0.6-1q0 0 0 0zm1.8 0.9q0.1 0.1 0.1 0.1l-0.6 1q0 0.1-0.1 0.1l-1.9-1.1q0 0 0 0l0.5-1.1q0.1 0 0.1 0zm1.8 1q0.1 0 0.1 0.1l-0.6 1q0 0-0.1 0l-1.9-1q0 0 0-0.1l0.5-1q0.1-0.1 0.1 0zm1.8 0.9q0.1 0.1 0.1 0.1l-0.6 1q0 0.1-0.1 0.1l-1.9-1.1q0 0 0 0l0.5-1.1q0.1 0 0.1 0zm1.8 1q0.1 0 0 0l-0.5 1.1q0 0-0.1 0l-1.9-1q0-0.1 0-0.1l0.5-1q0.1-0.1 0.1 0zm1.8 0.9q0.1 0 0 0.1l-0.5 1q0 0.1-0.1 0l-1.9-1q-0.1 0 0-0.1l0.5-1q0 0 0.1 0zm1.8 1q0.1 0 0 0l-0.5 1.1q0 0-0.1 0l-1.9-1q-0.1-0.1 0-0.1l0.5-1q0-0.1 0.1-0.1zm1.8 1q0.1 0 0 0.1l-0.5 1q0 0.1-0.1 0l-1.9-1q-0.1 0 0-0.1l0.5-1q0 0 0.1 0zm1.8 0.9q0 0.1 0 0.1l-0.5 1q-0.1 0.1-0.1 0.1l-1.9-1.1q-0.1 0 0 0l0.5-1.1q0 0 0.1 0zm1.8 1q0 0 0 0.1l-0.5 1q-0.1 0-0.1 0l-1.9-1q-0.1 0-0.1-0.1l0.6-1q0-0.1 0.1 0zm1.8 0.9q0 0.1 0 0.1l-0.5 1q-0.1 0.1-0.1 0.1l-1.9-1.1q-0.1 0-0.1 0l0.6-1.1q0 0 0.1 0zm1.8 1q0 0 0 0l-0.5 1.1q-0.1 0-0.1 0l-1.9-1q-0.1-0.1-0.1-0.1l0.6-1q0-0.1 0.1 0zm1.8 0.9q0 0 0 0.1l-0.6 1q0 0.1 0 0l-2-1q0 0 0-0.1l0.6-1q0 0 0 0zm1.9 1q0 0 0 0l-0.6 1.1q0 0 0 0l-2-1q0-0.1 0-0.1l0.6-1q0-0.1 0-0.1zm1.8 1q0.1 0 0.1 0.1l-0.6 1q0 0.1 0 0l-2-1q0 0 0-0.1l0.6-1q0 0 0 0zm1.8 0.9q0.1 0.1 0.1 0.1l-0.6 1q0 0.1-0.1 0.1l-1.9-1.1q0 0 0 0l0.6-1.1q0 0 0 0zm1.8 1q0.1 0 0.1 0.1l-0.6 1q0 0-0.1 0l-1.9-1q0 0 0-0.1l0.5-1q0.1-0.1 0.1 0zm1.8 0.9q0.1 0.1 0.1 0.1l-0.6 1q0 0.1-0.1 0.1l-1.9-1.1q0 0 0 0l0.5-1.1q0.1 0 0.1 0zm1.8 1q0.1 0 0.1 0l-0.6 1.1q0 0-0.1 0l-1.9-1q0-0.1 0-0.1l0.5-1q0.1-0.1 0.1 0zm1.8 0.9q0.1 0 0 0.1l-0.5 1q0 0.1-0.1 0l-1.9-1q-0.1 0 0-0.1l0.5-1q0 0 0.1 0zm1.8 1q0.1 0 0 0l-0.5 1.1q0 0-0.1 0l-1.9-1q-0.1-0.1 0-0.1l0.5-1q0-0.1 0.1-0.1zm1.8 1q0.1 0 0 0.1l-0.5 1q0 0.1-0.1 0l-1.9-1q-0.1 0 0-0.1l0.5-1q0 0 0.1 0zm-0.2 4.5q-0.3-0.2-0.4-0.5-0.1-0.3 0.1-0.6 0.2-0.3 0.5-0.4 0.2-0.1 0.5 0 0.4 0.2 0.4 0.5 0.1 0.3-0.1 0.6-0.2 0.3-0.4 0.4-0.3 0.1-0.6 0zm-0.5-3.5q-0.1 0 0 0l0.5-1.1q0 0 0.1 0l1.3 0.7 2.2-4 1.4 0.7-2.2 4.1 1.4 0.7q0 0 0 0.1l-0.6 1q0 0.1 0 0zm3.7 5.2q-0.3-0.2-0.4-0.5-0.1-0.2 0.1-0.6 0.2-0.3 0.5-0.4 0.3-0.1 0.6 0.1 0.3 0.1 0.4 0.4 0 0.3-0.2 0.6-0.1 0.4-0.4 0.5-0.3 0.1-0.6-0.1zm1.8 1q-0.3-0.2-0.4-0.5-0.1-0.3 0.1-0.6 0.2-0.3 0.5-0.4 0.3-0.1 0.6 0 0.3 0.2 0.4 0.5 0 0.3-0.1 0.6-0.2 0.3-0.5 0.4-0.3 0.1-0.6 0zm-1.6-4q0-0.1 0-0.1l0.6-1.1q0 0 0 0l2 1.1 2.1-4.1 1.4 0.7-2.8 5.2zm7.6 4l-0.1 0.2q-0.4 0.8-0.9 1.2-0.6 0.3-1.2 0.4-0.6 0-1.3-0.3-0.4-0.3-0.8-0.6-0.3-0.3-0.6-0.8l1-0.7q0.2 0.3 0.4 0.5 0.2 0.2 0.4 0.3 0.5 0.2 0.9 0 0.5-0.2 0.7-0.7l2.9-5.4 1.4 0.7-2.2 4.1 1.3 0.7q0.1 0.1 0.1 0.1l-0.6 1q0 0.1-0.1 0.1zm7-4.2q-0.3-0.2-0.4-0.5-0.1-0.3 0.1-0.6 0.2-0.4 0.4-0.4 0.3-0.1 0.6 0 0.3 0.2 0.4 0.5 0.1 0.3-0.1 0.6-0.2 0.4-0.5 0.4-0.2 0.1-0.5 0zm1.8 0.9q-0.3-0.1-0.4-0.4-0.1-0.3 0.1-0.6 0.2-0.4 0.4-0.5 0.3-0.1 0.6 0.1 0.3 0.2 0.4 0.5 0.1 0.2-0.1 0.6-0.2 0.3-0.5 0.4-0.2 0.1-0.5-0.1zm-7.5 3.9q-0.1 0 0 0l0.5-1.1q0 0 0.1 0l1.5 0.8q0-0.2 0-0.5 0-0.3 0.1-0.6 0.1-0.3 0.2-0.6 0.4-0.8 1.1-1.2 0.7-0.4 1.5-0.3 0.9 0 1.8 0.5l1.7 0.9-2.7 5.2zm4.4 1l0.6 0.3 1.5-3-0.3-0.2q-0.5-0.3-1-0.3-0.5 0-0.8 0.2-0.4 0.3-0.7 0.8-0.2 0.4-0.2 0.8 0 0.4 0.2 0.8 0.3 0.3 0.7 0.6z"/>
	<path class="s2" d="m38.4-0.1l3 0.4-0.4 0.7-3-0.4zm0.7-1.2l2.9 0.4-0.3 0.6-3-0.4zm-2 11.6q0.1 0 0.1 0.1l-0.6 1q0 0-0.1 0l-2.7-1.4 4.3-8.1 1.4 0.8-3.7 6.9zm1.8 0.9q0 0.1 0 0.1l-0.5 1q-0.1 0.1-0.1 0.1l-1.9-1.1q-0.1 0-0.1 0l0.6-1.1q0 0 0.1 0zm1.8 1q0 0 0 0l-0.6 1.1q0 0 0 0l-1.9-1q-0.1-0.1-0.1-0.1l0.6-1q0-0.1 0.1 0zm1.8 0.9q0 0 0 0.1l-0.6 1q0 0.1 0 0l-2-1q0 0 0-0.1l0.6-1q0 0 0 0zm1.9 1q0 0 0 0l-0.6 1.1q0 0 0 0l-2-1q0-0.1 0-0.1l0.6-1q0-0.1 0-0.1zm1.8 1q0.1 0 0.1 0.1l-0.6 1q0 0.1-0.1 0l-1.9-1q0 0 0-0.1l0.6-1q0 0 0 0zm1.8 0.9q0.1 0.1 0.1 0.1l-0.6 1q0 0.1-0.1 0.1l-1.9-1.1q0 0 0 0l0.5-1.1q0.1 0 0.1 0zm1.8 1q0.1 0 0.1 0.1l-0.6 1q0 0-0.1 0l-1.9-1q0 0 0-0.1l0.5-1q0.1-0.1 0.1 0zm1.8 0.9q0.1 0.1 0.1 0.1l-0.6 1q0 0.1-0.1 0.1l-1.9-1.1q0 0 0 0l0.5-1.1q0.1 0 0.1 0zm1.8 1q0.1 0 0 0l-0.5 1.1q0 0-0.1 0l-1.9-1q-0.1-0.1 0-0.1l0.5-1q0-0.1 0.1 0zm1.8 0.9q0.1 0 0 0.1l-0.5 1q0 0.1-0.1 0l-1.9-1q-0.1 0 0-0.1l0.5-1q0 0 0.1 0zm1.8 1q0.1 0 0 0l-0.5 1.1q0 0-0.1 0l-1.9-1q-0.1-0.1 0-0.1l0.5-1q0-0.1 0.1-0.1zm1.8 1q0 0 0 0.1l-0.5 1q0 0.1-0.1 0l-1.9-1q-0.1 0 0-0.1l0.5-1q0 0 0.1 0zm1.8 0.9q0 0.1 0 0.1l-0.5 1q-0.1 0.1-0.1 0.1l-1.9-1.1q-0.1 0 0 0l0.5-1.1q0 0 0.1 0zm1.8 1q0 0 0 0.1l-0.5 1q-0.1 0-0.1 0l-1.9-1q-0.1 0-0.1-0.1l0.6-1q0-0.1 0.1 0zm1.8 0.9q0 0.1 0 0.1l-0.5 1q-0.1 0.1-0.1 0.1l-1.9-1.1q-0.1 0-0.1 0l0.6-1.1q0 0 0.1 0zm1.8 1q0 0 0 0l-0.5 1.1q-0.1 0-0.1 0l-1.9-1q-0.1-0.1-0.1-0.1l0.6-1q0-0.1 0.1 0zm1.8 0.9q0 0 0 0.1l-0.6 1q0 0.1 0 0l-2-1q0 0 0-0.1l0.6-1q0 0 0 0zm1.9 1q0 0 0 0l-0.6 1.1q0 0 0 0l-2-1q0-0.1 0-0.1l0.6-1q0-0.1 0-0.1zm1.8 1q0.1 0 0.1 0.1l-0.6 1q0 0.1-0.1 0l-1.9-1q0 0 0-0.1l0.6-1q0 0 0 0zm1.8 0.9q0.1 0.1 0.1 0.1l-0.6 1q0 0.1-0.1 0.1l-1.9-1.1q0 0 0 0l0.6-1.1q0 0 0 0zm1.8 1q0.1 0 0.1 0.1l-0.6 1q0 0-0.1 0l-1.9-1q0 0 0-0.1l0.5-1q0.1-0.1 0.1 0zm1.8 0.9q0.1 0.1 0.1 0.1l-0.6 1q0 0.1-0.1 0.1l-1.9-1.1q0 0 0 0l0.5-1.1q0.1 0 0.1 0zm1.8 1q0.1 0 0.1 0l-0.6 1.1q0 0-0.1 0l-1.9-1q0-0.1 0-0.1l0.5-1q0.1-0.1 0.1 0zm1.8 0.9q0.1 0 0 0.1l-0.5 1q0 0.1-0.1 0l-1.9-1q-0.1 0 0-0.1l0.5-1q0 0 0.1 0zm1.8 1q0.1 0 0 0l-0.5 1.1q0 0-0.1 0l-1.9-1q-0.1-0.1 0-0.1l0.5-1q0-0.1 0.1-0.1zm1.8 1q0.1 0 0 0.1l-0.5 1q0 0.1-0.1 0l-1.9-1q-0.1 0 0-0.1l0.5-1q0 0 0.1 0zm-0.2 4.5q-0.3-0.2-0.4-0.5-0.1-0.3 0.1-0.6 0.2-0.3 0.5-0.4 0.2-0.1 0.5 0 0.4 0.2 0.4 0.5 0.1 0.3-0.1 0.6-0.2 0.3-0.4 0.4-0.3 0.1-0.6 0zm-0.5-3.5q-0.1 0 0 0l0.5-1.1q0 0 0.1 0l1.3 0.7 2.2-4 1.4 0.7-2.2 4.1 1.4 0.7q0 0 0 0.1l-0.6 1q0 0.1 0 0zm3.7 5.2q-0.3-0.2-0.4-0.5-0.1-0.2 0.1-0.6 0.2-0.3 0.5-0.4 0.3-0.1 0.6 0.1 0.3 0.1 0.4 0.4 0 0.3-0.2 0.6-0.1 0.4-0.4 0.5-0.3 0.1-0.6-0.1zm1.8 1q-0.3-0.2-0.4-0.5-0.1-0.3 0.1-0.6 0.2-0.3 0.5-0.4 0.3-0.1 0.6 0 0.3 0.2 0.4 0.5 0 0.3-0.1 0.6-0.2 0.3-0.5 0.4-0.3 0.1-0.6 0zm-1.6-4q0-0.1 0-0.1l0.6-1.1q0 0 0 0l2 1.1 2.1-4.1 1.4 0.7-2.8 5.2zm7.6 4l-0.1 0.2q-0.4 0.8-0.9 1.2-0.6 0.3-1.2 0.4-0.6 0-1.3-0.3-0.4-0.3-0.8-0.6-0.3-0.3-0.6-0.8l1-0.7q0.2 0.3 0.4 0.5 0.2 0.2 0.4 0.3 0.5 0.2 0.9 0 0.5-0.2 0.7-0.7l2.9-5.4 1.4 0.7-2.2 4.1 1.3 0.8q0.1 0 0.1 0l-0.6 1q0 0.1-0.1 0.1zm6.9-4.2q-0.2-0.2-0.3-0.5-0.1-0.3 0.1-0.6 0.2-0.4 0.4-0.4 0.3-0.1 0.6 0 0.3 0.2 0.4 0.5 0.1 0.3-0.1 0.6-0.2 0.4-0.5 0.4-0.2 0.1-0.6 0zm1.9 0.9q-0.3-0.1-0.4-0.4-0.1-0.3 0.1-0.6 0.2-0.4 0.4-0.5 0.3-0.1 0.6 0.1 0.3 0.2 0.4 0.5 0.1 0.2-0.1 0.6-0.2 0.3-0.5 0.4-0.2 0.1-0.5-0.1zm-7.5 3.9q-0.1 0 0 0l0.5-1.1q0 0 0.1 0l1.5 0.8q0-0.2 0-0.5 0-0.3 0.1-0.6 0-0.3 0.2-0.6 0.4-0.8 1.1-1.2 0.7-0.4 1.5-0.3 0.9 0 1.8 0.5l1.7 0.9-2.7 5.2zm4.4 1l0.6 0.3 1.5-3-0.3-0.2q-0.5-0.3-1-0.3-0.5 0-0.8 0.2-0.4 0.3-0.7 0.8-0.2 0.4-0.2 0.8 0 0.4 0.2 0.8 0.3 0.3 0.7 0.6z"/>
	<path class="s1" d="m20.3 1.4l-1.7-2.6-0.2 0.4h3.1l-0.1-1.6-3 0.1 0.2 0.3 1.4-2.5-1.4-0.8-1.3 2.6h0.3l-1.6-2.6-1.3 0.9 1.7 2.5 0.2-0.3h-3.1v1.6l3-0.1-0.1-0.3-1.4 2.5 1.3 0.7 1.4-2.5h-0.3l1.5 2.6z"/>
</svg>