<svg version="1.2" xmlns="http://www.w3.org/2000/svg" viewBox="0 0 276 147" width="276" height="147">
	<title>Group 1171275874</title>
	<style>
		.s0 { fill: #f4cd00 } 
		.s1 { fill: #022a3a } 
	</style>
	<g id="Folder 1">
		<path fill-rule="evenodd" class="s0" d="m-45.7 171.7l683.7-364.9 18.2 34.3-683.6 364.9z"/>
		<path class="s1" d="m261.1 36q-0.9 0.5-2 0.7-1 0.1-1.9-0.2-1-0.3-1.8-0.9-0.7-0.6-1.2-1.6-0.6-1-0.6-2-0.1-1 0.2-1.9 0.3-0.9 0.9-1.7 0.7-0.8 1.7-1.3 1.1-0.6 2.1-0.7 1.1-0.1 2.1 0.3l-0.5 1.5q-0.8-0.2-1.5-0.2-0.7 0.1-1.4 0.5-0.6 0.3-1.1 0.8-0.4 0.6-0.6 1.2-0.2 0.6-0.2 1.3 0.1 0.7 0.5 1.3 0.3 0.7 0.8 1.1 0.6 0.5 1.2 0.7 0.6 0.2 1.3 0.1 0.7-0.1 1.4-0.5 0.7-0.3 1.1-0.9 0.5-0.6 0.6-1.3l1.6 0.4q-0.2 1-0.9 1.9-0.7 0.8-1.8 1.4zm8.5-4.5q-1 0.5-2 0.6-1 0.1-2-0.1-0.9-0.3-1.7-0.9-0.8-0.6-1.3-1.6-0.5-1-0.6-1.9-0.1-1 0.2-2 0.3-0.9 1-1.7 0.7-0.8 1.7-1.3 1-0.6 2-0.7 1-0.1 2 0.2 0.9 0.2 1.7 0.8 0.8 0.7 1.3 1.6 0.5 1 0.6 2 0.1 1-0.2 1.9-0.3 1-1 1.7-0.7 0.8-1.7 1.4zm-0.7-1.4q0.6-0.4 1.1-0.9 0.4-0.5 0.6-1.2 0.2-0.6 0.1-1.3-0.1-0.6-0.4-1.3-0.4-0.7-0.9-1.1-0.5-0.4-1.1-0.6-0.7-0.2-1.3-0.1-0.7 0-1.4 0.4-0.6 0.3-1.1 0.8-0.4 0.6-0.6 1.2-0.2 0.6-0.1 1.3 0.1 0.7 0.4 1.3 0.4 0.7 0.9 1.1 0.5 0.5 1.1 0.7 0.7 0.2 1.3 0.1 0.7-0.1 1.4-0.4zm7-2.2l-4.6-8.6 1.3-0.7 7.2 4.3-0.7 0.4 0.3-8.3 1.4-0.7 4.6 8.6-1.5 0.8-3.4-6.2 0.3-0.2-0.3 6.9-0.7 0.4-6.1-3.5 0.4-0.2 3.3 6.2zm11.8-6.3l-4.6-8.6 1.6-0.9 4.7 8.7zm3.9-2.1l-4.6-8.7 1.3-0.7 9 3.8-0.7 0.3-3.5-6.6 1.6-0.9 4.6 8.7-1.3 0.7-9-3.8 0.6-0.3 3.6 6.6zm14.1-7.4q-1 0.6-2 0.7-1.1 0.1-2-0.1-1-0.3-1.7-0.9-0.8-0.6-1.3-1.6-0.6-1-0.6-2-0.1-1 0.2-1.9 0.3-1 1-1.7 0.7-0.8 1.7-1.4 1.1-0.5 2.1-0.7 1.1-0.1 2.1 0.3l-0.5 1.5q-0.8-0.2-1.5-0.1-0.7 0-1.4 0.4-0.7 0.4-1.1 0.9-0.5 0.5-0.7 1.2-0.2 0.6-0.2 1.3 0.1 0.7 0.5 1.3 0.3 0.7 0.8 1.1 0.6 0.4 1.2 0.6 0.7 0.2 1.3 0.1 0.7 0 1.4-0.4 0.7-0.3 1.2-0.9 0.4-0.5 0.7-1.3l1.6 0.7q-0.4 0.9-1.2 1.7-0.7 0.8-1.6 1.2zm2.8-2.9l-1.6 0.6-1.8-3.2 1.5-0.8zm8.8-3.3q-1 0.6-2 0.8-1.1 0.2-1.9 0l-0.1-1.5q0.7 0.1 1.6-0.1 0.9-0.1 1.7-0.5 0.7-0.4 1.1-0.8 0.3-0.3 0.4-0.7 0-0.3-0.2-0.7-0.2-0.4-0.6-0.4-0.4-0.1-0.9 0-0.5 0.1-1.2 0.2-0.6 0.2-1.2 0.3-0.6 0.2-1.2 0.1-0.6 0-1.2-0.3-0.5-0.3-0.8-1-0.4-0.7-0.4-1.5 0.1-0.8 0.7-1.5 0.6-0.8 1.8-1.4 0.7-0.4 1.6-0.6 0.9-0.3 1.6-0.2l0.2 1.5q-0.8 0-1.5 0.2-0.7 0.1-1.2 0.4-0.7 0.4-1 0.8-0.4 0.3-0.4 0.7-0.1 0.4 0.1 0.7 0.2 0.4 0.6 0.5 0.4 0.1 0.9 0 0.6-0.1 1.2-0.3 0.6-0.2 1.3-0.3 0.6-0.1 1.2-0.1 0.6 0 1.1 0.3 0.5 0.3 0.9 1 0.3 0.7 0.3 1.5-0.1 0.7-0.7 1.5-0.6 0.8-1.8 1.4zm9.2-4.9q-1 0.6-2.1 0.7-1 0.1-1.9-0.1-1-0.3-1.8-0.9-0.7-0.7-1.3-1.6-0.5-1-0.6-2 0-1 0.3-1.9 0.3-0.9 1-1.7 0.6-0.8 1.6-1.3 1-0.6 2.1-0.7 1-0.1 1.9 0.1 1 0.3 1.8 0.9 0.7 0.6 1.3 1.6 0.5 1 0.6 2 0 1-0.3 1.9-0.3 0.9-1 1.7-0.6 0.8-1.6 1.3zm-0.8-1.4q0.7-0.3 1.1-0.8 0.4-0.6 0.6-1.2 0.2-0.6 0.2-1.3-0.1-0.7-0.5-1.3-0.3-0.7-0.8-1.1-0.6-0.4-1.2-0.6-0.6-0.2-1.3-0.2-0.7 0.1-1.3 0.5-0.7 0.3-1.1 0.8-0.4 0.5-0.6 1.2-0.2 0.6-0.2 1.3 0.1 0.7 0.5 1.3 0.3 0.7 0.8 1.1 0.6 0.4 1.2 0.6 0.6 0.2 1.3 0.2 0.7-0.1 1.3-0.5zm11.2-4.1q-1 0.5-2.1 0.6-1 0.2-1.9-0.1-1-0.3-1.8-0.9-0.7-0.6-1.3-1.6-0.5-0.9-0.6-1.9 0-1 0.3-1.9 0.3-1 0.9-1.8 0.7-0.8 1.7-1.3 1-0.5 2.1-0.7 1-0.1 1.9 0.2 1 0.2 1.8 0.9 0.7 0.6 1.3 1.6 0.5 0.9 0.6 1.9 0 1-0.3 2-0.3 0.9-1 1.7-0.6 0.8-1.6 1.3zm-0.8-1.4q0.7-0.4 1.1-0.9 0.4-0.5 0.6-1.1 0.2-0.7 0.2-1.3-0.1-0.7-0.5-1.4-0.3-0.6-0.8-1.1-0.6-0.4-1.2-0.6-0.6-0.2-1.3-0.1-0.7 0.1-1.3 0.4-0.7 0.4-1.1 0.9-0.4 0.5-0.6 1.1-0.2 0.7-0.2 1.3 0.1 0.7 0.5 1.4 0.3 0.6 0.8 1.1 0.6 0.4 1.2 0.6 0.6 0.2 1.3 0.1 0.7-0.1 1.3-0.4zm7.1-2.1l-4.7-8.7 1.4-0.7 8.9 3.8-0.6 0.3-3.6-6.6 1.6-0.9 4.6 8.7-1.3 0.7-9-3.8 0.7-0.3 3.6 6.6z"/>
		<path class="s1" d="m242.1 43.4l-1.4-2.6h0.3l-1.5 2.6-1.4-0.9 1.7-2.5 0.2 0.4-3.1-0.1 0.1-1.6 3 0.2-0.2 0.2-1.4-2.5 1.4-0.7 1.3 2.5h-0.3l1.6-2.5 1.3 0.8-1.6 2.6-0.3-0.4h3.1v1.6l-3-0.1 0.1-0.3 1.4 2.6z"/>
		<path class="s1" d="m138.4 101.5q-1 0.5-2 0.7-1.1 0.1-2-0.2-0.9-0.2-1.7-0.9-0.8-0.6-1.3-1.6-0.5-0.9-0.6-1.9-0.1-1 0.2-2 0.3-0.9 1-1.7 0.6-0.7 1.6-1.3 1.1-0.5 2.2-0.6 1-0.2 2 0.2l-0.5 1.6q-0.7-0.3-1.4-0.2-0.8 0-1.4 0.4-0.7 0.4-1.2 0.9-0.4 0.5-0.6 1.1-0.2 0.7-0.1 1.3 0 0.7 0.4 1.4 0.4 0.6 0.9 1.1 0.5 0.4 1.1 0.6 0.7 0.2 1.3 0.1 0.7-0.1 1.4-0.4 0.7-0.4 1.1-1 0.5-0.5 0.7-1.3l1.5 0.4q-0.2 1.1-0.9 1.9-0.6 0.8-1.7 1.4zm8.5-4.5q-1 0.5-2.1 0.6-1 0.2-2-0.1-0.9-0.3-1.7-0.9-0.8-0.6-1.3-1.6-0.5-0.9-0.6-1.9-0.1-1 0.3-1.9 0.3-1 0.9-1.8 0.7-0.8 1.7-1.3 1-0.5 2-0.7 1.1-0.1 2 0.2 1 0.2 1.8 0.9 0.7 0.6 1.2 1.6 0.6 0.9 0.6 1.9 0.1 1-0.2 2-0.3 0.9-1 1.7-0.6 0.8-1.6 1.3zm-0.8-1.4q0.7-0.4 1.1-0.9 0.4-0.5 0.6-1.1 0.2-0.7 0.1-1.3 0-0.7-0.4-1.4-0.3-0.6-0.9-1.1-0.5-0.4-1.1-0.6-0.6-0.2-1.3-0.1-0.7 0.1-1.3 0.4-0.7 0.4-1.1 0.9-0.5 0.5-0.7 1.1-0.1 0.7-0.1 1.3 0.1 0.7 0.4 1.4 0.4 0.6 0.9 1.1 0.5 0.4 1.2 0.6 0.6 0.2 1.3 0.1 0.7-0.1 1.3-0.4zm7-2.1l-4.6-8.7 1.4-0.7 7.1 4.3-0.7 0.4 0.4-8.3 1.3-0.7 4.6 8.6-1.5 0.8-3.4-6.2 0.4-0.2-0.4 7-0.7 0.4-6-3.6 0.3-0.2 3.4 6.3zm11.8-6.3l-4.6-8.7 1.6-0.8 4.6 8.6zm3.9-2.1l-4.6-8.6 1.3-0.8 9 3.8-0.6 0.4-3.6-6.7 1.6-0.8 4.6 8.6-1.3 0.7-9-3.8 0.7-0.3 3.5 6.6zm14.1-7.3q-1 0.5-2 0.7-1 0.1-2-0.2-0.9-0.3-1.7-0.9-0.8-0.6-1.3-1.6-0.5-0.9-0.6-1.9-0.1-1 0.2-2 0.3-0.9 1-1.7 0.7-0.8 1.7-1.3 1.1-0.6 2.2-0.7 1-0.1 2 0.2l-0.5 1.6q-0.7-0.3-1.5-0.2-0.7 0.1-1.4 0.4-0.7 0.4-1.1 0.9-0.5 0.6-0.7 1.2-0.2 0.6-0.1 1.3 0.1 0.7 0.4 1.4 0.4 0.6 0.9 1 0.5 0.5 1.2 0.7 0.6 0.2 1.3 0.1 0.7-0.1 1.4-0.5 0.6-0.3 1.1-0.8 0.5-0.6 0.8-1.3l1.5 0.7q-0.4 0.9-1.1 1.6-0.8 0.8-1.7 1.3zm2.8-2.9l-1.6 0.6-1.7-3.3 1.5-0.8zm8.8-3.3q-1 0.6-2.1 0.8-1.1 0.2-1.9 0l-0.1-1.5q0.7 0.1 1.7 0 0.9-0.2 1.7-0.6 0.6-0.4 1-0.7 0.3-0.4 0.4-0.7 0.1-0.4-0.1-0.7-0.2-0.4-0.6-0.5-0.5-0.1-1 0-0.5 0.1-1.1 0.3-0.6 0.1-1.3 0.3-0.6 0.1-1.2 0.1-0.6-0.1-1.1-0.4-0.5-0.3-0.9-0.9-0.4-0.7-0.3-1.5 0-0.8 0.6-1.6 0.6-0.8 1.8-1.4 0.8-0.4 1.6-0.6 0.9-0.2 1.7-0.2l0.1 1.6q-0.7-0.1-1.4 0.1-0.7 0.2-1.3 0.5-0.7 0.3-1 0.7-0.3 0.4-0.4 0.7 0 0.4 0.1 0.7 0.3 0.4 0.7 0.5 0.4 0.1 0.9 0 0.5-0.1 1.1-0.3 0.7-0.1 1.3-0.3 0.6-0.1 1.2-0.1 0.6 0 1.1 0.3 0.5 0.3 0.9 1 0.4 0.7 0.3 1.5-0.1 0.8-0.6 1.6-0.6 0.7-1.8 1.3zm9.1-4.8q-1 0.5-2 0.6-1.1 0.2-2-0.1-1-0.3-1.7-0.9-0.8-0.6-1.3-1.6-0.5-0.9-0.6-1.9-0.1-1 0.2-2 0.3-0.9 1-1.7 0.7-0.8 1.7-1.3 1-0.6 2-0.7 1-0.1 2 0.2 0.9 0.2 1.7 0.9 0.8 0.6 1.3 1.5 0.5 1 0.6 2 0.1 1-0.2 1.9-0.3 1-1 1.8-0.7 0.7-1.7 1.3zm-0.7-1.4q0.6-0.4 1-0.9 0.5-0.5 0.7-1.1 0.2-0.7 0.1-1.3-0.1-0.7-0.4-1.4-0.4-0.7-0.9-1.1-0.5-0.4-1.2-0.6-0.6-0.2-1.3-0.1-0.6 0-1.3 0.4-0.6 0.3-1.1 0.9-0.4 0.5-0.6 1.1-0.2 0.6-0.1 1.3 0 0.7 0.4 1.3 0.3 0.7 0.9 1.1 0.5 0.5 1.1 0.7 0.7 0.2 1.3 0.1 0.7-0.1 1.4-0.4zm11.1-4.2q-1 0.6-2 0.7-1.1 0.1-2-0.2-1-0.2-1.7-0.8-0.8-0.7-1.3-1.6-0.5-1-0.6-2-0.1-1 0.2-1.9 0.3-1 1-1.7 0.7-0.8 1.7-1.4 1-0.5 2-0.6 1-0.1 2 0.1 0.9 0.3 1.7 0.9 0.8 0.6 1.3 1.6 0.5 1 0.6 2 0.1 1-0.2 1.9-0.3 0.9-1 1.7-0.7 0.8-1.7 1.3zm-0.7-1.4q0.6-0.3 1-0.9 0.5-0.5 0.7-1.1 0.2-0.6 0.1-1.3-0.1-0.7-0.4-1.3-0.4-0.7-0.9-1.1-0.5-0.5-1.2-0.7-0.6-0.2-1.3-0.1-0.6 0.1-1.3 0.4-0.6 0.4-1.1 0.9-0.4 0.5-0.6 1.2-0.2 0.6-0.1 1.3 0 0.6 0.4 1.3 0.3 0.7 0.9 1.1 0.5 0.4 1.1 0.6 0.6 0.2 1.3 0.1 0.7 0 1.4-0.4zm7-2.1l-4.6-8.6 1.3-0.7 9 3.7-0.7 0.4-3.5-6.7 1.6-0.8 4.6 8.6-1.3 0.7-9-3.8 0.6-0.3 3.6 6.7z"/>
		<path class="s1" d="m119.6 108.7l-1.3-2.5h0.3l-1.6 2.5-1.3-0.8 1.7-2.6 0.2 0.4h-3.1v-1.6l3 0.1-0.1 0.3-1.4-2.5 1.3-0.8 1.4 2.6h-0.3l1.5-2.6 1.4 0.9-1.7 2.5-0.2-0.4 3.1 0.1-0.1 1.6-3-0.2 0.2-0.2 1.4 2.5z"/>
		<path class="s1" d="m16.9 166.4q-1 0.5-2 0.6-1.1 0.2-2-0.1-1-0.3-1.7-0.9-0.8-0.6-1.3-1.6-0.5-1-0.6-2-0.1-1 0.2-1.9 0.3-0.9 1-1.7 0.6-0.8 1.6-1.3 1.1-0.6 2.2-0.7 1-0.1 2 0.3l-0.5 1.5q-0.7-0.2-1.4-0.2-0.8 0.1-1.4 0.5-0.7 0.3-1.2 0.8-0.4 0.6-0.6 1.2-0.2 0.6-0.1 1.3 0 0.7 0.4 1.3 0.3 0.7 0.9 1.1 0.5 0.5 1.1 0.7 0.7 0.1 1.3 0.1 0.7-0.1 1.4-0.5 0.7-0.3 1.1-0.9 0.5-0.6 0.7-1.3l1.5 0.4q-0.2 1-0.9 1.9-0.7 0.8-1.7 1.4zm8.5-4.5q-1.1 0.5-2.1 0.6-1 0.1-2-0.1-0.9-0.3-1.7-0.9-0.8-0.6-1.3-1.6-0.5-1-0.6-2-0.1-1 0.2-1.9 0.3-0.9 1-1.7 0.7-0.8 1.7-1.3 1-0.6 2-0.7 1.1-0.1 2 0.2 1 0.2 1.7 0.8 0.8 0.7 1.3 1.6 0.5 1 0.6 2 0.1 1-0.2 1.9-0.3 0.9-1 1.7-0.6 0.8-1.6 1.4zm-0.8-1.5q0.6-0.3 1.1-0.8 0.4-0.5 0.6-1.2 0.2-0.6 0.1-1.3 0-0.6-0.4-1.3-0.3-0.7-0.9-1.1-0.5-0.4-1.1-0.6-0.6-0.2-1.3-0.2-0.7 0.1-1.4 0.5-0.6 0.3-1 0.8-0.5 0.6-0.7 1.2-0.2 0.6-0.1 1.3 0.1 0.7 0.4 1.3 0.4 0.7 0.9 1.1 0.5 0.5 1.2 0.7 0.6 0.1 1.3 0.1 0.6-0.1 1.3-0.5zm7-2.1l-4.6-8.6 1.3-0.7 7.2 4.3-0.7 0.4 0.3-8.3 1.4-0.7 4.6 8.6-1.5 0.8-3.4-6.3 0.3-0.1-0.3 6.9-0.7 0.4-6-3.5 0.3-0.2 3.4 6.2zm11.8-6.3l-4.7-8.6 1.7-0.9 4.6 8.7zm3.9-2.1l-4.6-8.7 1.3-0.7 9 3.8-0.7 0.3-3.5-6.6 1.6-0.9 4.6 8.7-1.3 0.7-9-3.8 0.7-0.3 3.5 6.6zm14.1-7.4q-1 0.6-2 0.7-1 0.1-2-0.1-0.9-0.3-1.7-0.9-0.8-0.7-1.3-1.6-0.5-1-0.6-2-0.1-1 0.2-1.9 0.3-1 1-1.7 0.7-0.8 1.7-1.4 1.1-0.5 2.2-0.7 1-0.1 2 0.3l-0.5 1.5q-0.8-0.2-1.5-0.1-0.7 0-1.4 0.4-0.7 0.4-1.1 0.9-0.5 0.5-0.7 1.2-0.2 0.6-0.1 1.3 0 0.7 0.4 1.3 0.3 0.7 0.9 1.1 0.5 0.4 1.1 0.6 0.7 0.2 1.4 0.1 0.6 0 1.3-0.4 0.7-0.4 1.2-0.9 0.5-0.5 0.8-1.3l1.5 0.7q-0.4 0.9-1.1 1.7-0.8 0.8-1.7 1.2zm2.8-2.9l-1.6 0.6-1.8-3.2 1.6-0.8zm8.8-3.3q-1.1 0.5-2.1 0.8-1.1 0.2-1.9 0l-0.1-1.6q0.7 0.2 1.6 0 0.9-0.1 1.8-0.5 0.6-0.4 1-0.8 0.3-0.3 0.4-0.7 0-0.4-0.1-0.7-0.2-0.4-0.7-0.5-0.4 0-0.9 0.1-0.5 0.1-1.1 0.2-0.7 0.2-1.3 0.3-0.6 0.1-1.2 0.1-0.6 0-1.1-0.3-0.6-0.3-0.9-1-0.4-0.7-0.3-1.5 0-0.8 0.6-1.5 0.6-0.8 1.8-1.4 0.8-0.4 1.6-0.6 0.9-0.3 1.7-0.2l0.1 1.5q-0.7 0-1.4 0.2-0.8 0.1-1.3 0.4-0.7 0.4-1 0.8-0.3 0.3-0.4 0.7-0.1 0.4 0.1 0.7 0.2 0.4 0.6 0.5 0.4 0.1 1 0 0.5-0.1 1.1-0.3 0.6-0.2 1.3-0.3 0.6-0.1 1.2-0.1 0.6 0 1.1 0.3 0.5 0.3 0.9 1 0.4 0.7 0.3 1.5-0.1 0.7-0.7 1.5-0.6 0.8-1.7 1.4zm9.1-4.9q-1 0.6-2 0.7-1.1 0.1-2-0.1-1-0.3-1.7-0.9-0.8-0.7-1.3-1.6-0.6-1-0.6-2-0.1-1 0.2-1.9 0.3-0.9 1-1.7 0.6-0.8 1.6-1.4 1.1-0.5 2.1-0.6 1-0.1 2 0.1 0.9 0.3 1.7 0.9 0.8 0.6 1.3 1.6 0.5 1 0.6 2 0.1 1-0.2 1.9-0.4 0.9-1 1.7-0.7 0.8-1.7 1.3zm-0.8-1.4q0.7-0.3 1.1-0.8 0.5-0.6 0.7-1.2 0.1-0.6 0.1-1.3-0.1-0.7-0.4-1.3-0.4-0.7-0.9-1.1-0.5-0.5-1.2-0.6-0.6-0.2-1.3-0.2-0.7 0.1-1.3 0.5-0.7 0.3-1.1 0.8-0.4 0.5-0.6 1.2-0.2 0.6-0.1 1.3 0 0.6 0.4 1.3 0.3 0.7 0.8 1.1 0.6 0.4 1.2 0.6 0.6 0.2 1.3 0.2 0.7-0.1 1.3-0.5zm11.2-4.1q-1 0.5-2 0.6-1.1 0.2-2-0.1-1-0.3-1.7-0.9-0.8-0.6-1.3-1.6-0.6-0.9-0.6-1.9-0.1-1 0.2-2 0.3-0.9 1-1.7 0.6-0.8 1.6-1.3 1.1-0.5 2.1-0.7 1-0.1 2 0.2 0.9 0.2 1.7 0.9 0.8 0.6 1.3 1.6 0.5 0.9 0.6 1.9 0.1 1-0.3 1.9-0.3 1-0.9 1.8-0.7 0.7-1.7 1.3zm-0.8-1.4q0.7-0.4 1.1-0.9 0.5-0.5 0.7-1.1 0.1-0.7 0.1-1.3-0.1-0.7-0.4-1.4-0.4-0.6-0.9-1.1-0.5-0.4-1.2-0.6-0.6-0.2-1.3-0.1-0.7 0.1-1.3 0.4-0.7 0.4-1.1 0.9-0.4 0.5-0.6 1.1-0.2 0.7-0.1 1.3 0 0.7 0.4 1.4 0.3 0.6 0.8 1.1 0.6 0.4 1.2 0.6 0.6 0.2 1.3 0.1 0.7-0.1 1.3-0.4zm7.1-2.1l-4.6-8.7 1.3-0.7 9 3.8-0.7 0.3-3.5-6.6 1.5-0.9 4.7 8.7-1.4 0.7-8.9-3.8 0.6-0.3 3.6 6.6z"/>
	</g>
</svg>