<svg version="1.2" xmlns="http://www.w3.org/2000/svg" viewBox="0 0 284 151" width="284" height="151">
	<title>loc-cmngsn-strip-lg-ar-yellow</title>
	<style>
		.s0 { fill: #f4cd00 } 
		.s1 { fill: #022a3a } 
	</style>
	<g id="Folder 1">
		<path fill-rule="evenodd" class="s0" d="m311 165.7l-683.6-364-18.3 34.2 683.6 364z"/>
		<path class="s1" d="m-69.6-24.8l3.9 0.7-0.5 0.8-3.9-0.6zm0.9-1.6l3.9 0.7-0.4 0.8-4-0.6zm-2.5 14.1q0.1 0 0 0.1l-0.8 1.3q0 0.1-0.1 0.1l-3.5-2.1 6.1-10.5 1.8 1-5.3 9.1zm2.4 1.3q0 0.1 0 0.1l-0.8 1.4q0 0.1-0.1 0l-2.5-1.4q-0.1-0.1 0-0.1l0.8-1.4q0 0 0.1 0zm2.3 1.4q0.1 0 0.1 0.1l-0.8 1.3q0 0.1-0.1 0l-2.5-1.4q-0.1-0.1-0.1-0.1l0.8-1.4q0.1 0 0.1 0zm2.4 1.4q0.1 0 0 0.1l-0.7 1.3q-0.1 0.1-0.2 0.1l-2.5-1.5q0 0 0-0.1l0.8-1.3q0-0.1 0.1-0.1zm2.4 1.4q0 0 0 0.1l-0.8 1.3q0 0.1-0.1 0.1l-2.5-1.5q-0.1 0 0-0.1l0.7-1.3q0.1-0.1 0.1 0zm2.4 1.3q0.1 0.1 0.1 0.1l-0.8 1.4q-0.1 0-0.1 0l-2.5-1.5q-0.1 0-0.1-0.1l0.8-1.3q0-0.1 0.1 0zm2.4 1.3q0 0.1 0 0.1l-0.8 1.4q0 0-0.1 0l-2.5-1.4q-0.1-0.1 0-0.1l0.8-1.4q0 0 0.1 0zm2.3 1.4q0.1 0 0.1 0.1l-0.8 1.3q0 0.1-0.1 0l-2.5-1.4q-0.1-0.1-0.1-0.1l0.8-1.4q0.1 0 0.1 0zm2.4 1.4q0.1 0 0 0.1l-0.7 1.3q-0.1 0.1-0.2 0l-2.5-1.4q0 0 0-0.1l0.8-1.4q0 0 0.1 0zm2.4 1.4q0 0 0 0.1l-0.8 1.3q0 0.1-0.1 0.1l-2.5-1.5q-0.1 0 0-0.1l0.7-1.3q0.1-0.1 0.1 0zm2.4 1.3q0.1 0.1 0.1 0.1l-0.8 1.4q-0.1 0-0.1 0l-2.5-1.5q-0.1 0-0.1-0.1l0.8-1.3q0-0.1 0.1 0zm2.4 1.3q0 0.1 0 0.1l-0.8 1.4q0 0-0.1 0l-2.5-1.4q-0.1-0.1 0-0.1l0.8-1.4q0 0 0.1 0zm2.3 1.4q0.1 0 0.1 0.1l-0.8 1.3q0 0.1-0.1 0l-2.5-1.4q-0.1-0.1-0.1-0.1l0.8-1.4q0.1 0 0.1 0zm2.4 1.4q0.1 0 0 0.1l-0.7 1.3q-0.1 0.1-0.2 0l-2.5-1.4q0 0 0-0.1l0.8-1.4q0 0 0.1 0zm2.4 1.4q0 0 0 0.1l-0.8 1.3q0 0.1-0.1 0.1l-2.5-1.5q-0.1 0 0-0.1l0.7-1.3q0.1-0.1 0.1 0zm2.4 1.3q0.1 0.1 0.1 0.1l-0.8 1.4q-0.1 0-0.1 0l-2.5-1.5q-0.1 0-0.1-0.1l0.8-1.3q0-0.1 0.1 0zm2.4 1.3q0 0.1 0 0.1l-0.8 1.4q0 0-0.1 0l-2.5-1.4q-0.1-0.1 0-0.2l0.8-1.3q0 0 0.1 0zm2.3 1.4q0.1 0 0.1 0.1l-0.8 1.3q0 0.1-0.1 0l-2.5-1.4q-0.1-0.1-0.1-0.1l0.8-1.4q0.1 0 0.1 0zm2.4 1.4q0.1 0 0 0.1l-0.7 1.3q-0.1 0.1-0.2 0l-2.5-1.4q0 0 0-0.1l0.8-1.4q0 0 0.1 0zm2.4 1.4q0 0 0 0.1l-0.8 1.3q0 0.1-0.1 0.1l-2.5-1.5q-0.1 0 0-0.1l0.7-1.3q0.1-0.1 0.1-0.1zm2.4 1.4q0.1 0.1 0.1 0.1l-0.8 1.4q-0.1 0-0.1 0l-2.5-1.5q-0.1 0-0.1-0.1l0.8-1.3q0-0.1 0.1 0zm2.4 1.3q0 0.1 0 0.1l-0.8 1.4q0 0-0.1 0l-2.5-1.4q-0.1-0.1 0-0.2l0.8-1.3q0-0.1 0.1 0zm2.3 1.4q0.1 0 0.1 0l-0.8 1.4q0 0.1-0.1 0l-2.5-1.4q-0.1-0.1-0.1-0.1l0.8-1.4q0.1 0 0.1 0zm2.4 1.4q0.1 0 0 0.1l-0.7 1.3q-0.1 0.1-0.2 0l-2.5-1.4q0 0 0-0.1l0.8-1.4q0 0 0.1 0zm2.4 1.4q0 0 0 0.1l-0.8 1.3q0 0.1-0.1 0.1l-2.5-1.5q-0.1 0 0-0.1l0.7-1.3q0.1-0.1 0.1-0.1zm2.4 1.4q0.1 0 0.1 0.1l-0.8 1.3q-0.1 0.1-0.1 0.1l-2.5-1.5q-0.1 0-0.1-0.1l0.8-1.3q0-0.1 0.1 0zm2.4 1.3q0 0.1 0 0.1l-0.8 1.4q0 0-0.1 0l-2.5-1.4q-0.1-0.1 0-0.2l0.8-1.3q0-0.1 0.1 0zm-0.5 6q-0.4-0.3-0.5-0.7-0.1-0.3 0.2-0.8 0.2-0.4 0.6-0.5 0.4-0.2 0.8 0.1 0.4 0.2 0.5 0.6 0 0.4-0.2 0.8-0.2 0.5-0.6 0.6-0.4 0.1-0.8-0.1zm-0.5-4.6q-0.1-0.1-0.1-0.1l0.8-1.4q0.1 0 0.1 0l1.8 1 3.1-5.3 1.8 1-3.1 5.3 1.8 1.1q0 0 0 0.1l-0.8 1.3q0 0.1-0.1 0.1zm4.8 7q-0.4-0.2-0.5-0.6-0.1-0.4 0.1-0.9 0.3-0.4 0.7-0.5 0.4-0.1 0.8 0.1 0.4 0.2 0.5 0.6 0 0.4-0.2 0.8-0.3 0.5-0.6 0.6-0.4 0.1-0.8-0.1zm2.3 1.4q-0.4-0.3-0.5-0.7 0-0.4 0.2-0.8 0.3-0.4 0.6-0.6 0.4-0.1 0.8 0.2 0.4 0.2 0.5 0.6 0.1 0.4-0.1 0.8-0.3 0.4-0.7 0.6-0.4 0.1-0.8-0.1zm-1.9-5.4q0-0.1 0-0.2l0.8-1.3q0-0.1 0.1 0l2.5 1.4 3.1-5.3 1.8 1-4 6.8zm9.9 5.7l-0.1 0.3q-0.6 0.9-1.3 1.4-0.7 0.5-1.6 0.5-0.8 0.1-1.6-0.4-0.6-0.4-1.1-0.8-0.4-0.5-0.7-1.1l1.3-0.8q0.3 0.4 0.5 0.6 0.2 0.2 0.6 0.4 0.5 0.3 1.1 0.1 0.6-0.3 1-1l4.1-7 1.8 1-3.1 5.4 1.8 1q0 0 0 0.1l-0.8 1.3q0 0.1-0.1 0zm9.4-5.3q-0.4-0.2-0.5-0.6-0.1-0.3 0.2-0.8 0.3-0.5 0.6-0.5 0.4-0.2 0.8 0.1 0.4 0.2 0.5 0.6 0.1 0.4-0.2 0.8-0.2 0.5-0.6 0.6-0.4 0.1-0.8-0.2zm2.4 1.4q-0.4-0.2-0.5-0.6-0.1-0.4 0.2-0.8 0.2-0.5 0.6-0.6 0.4-0.1 0.8 0.1 0.4 0.3 0.5 0.7 0.1 0.3-0.2 0.8-0.2 0.4-0.6 0.5-0.4 0.1-0.8-0.1zm-10.2 4.9q0 0 0-0.1l0.8-1.4q0 0 0.1 0l2 1.2q0-0.4 0-0.8 0-0.4 0.1-0.8 0.1-0.4 0.3-0.7 0.7-1.1 1.6-1.6 0.9-0.5 2-0.4 1.2 0.1 2.4 0.8l2.2 1.3-3.9 6.8zm5.9 1.5l0.7 0.4 2.3-3.9-0.4-0.2q-0.7-0.4-1.4-0.5-0.6 0-1.1 0.3-0.5 0.3-0.9 1-0.4 0.5-0.4 1.1 0 0.5 0.3 1 0.3 0.4 0.9 0.8z"/>
		<path class="s1" d="m29.6 37.1l1.6 2.5 0.3-0.4-3.1 0.1v1.5l3-0.1-0.1-0.2-1.4 2.5 1.3 0.7 1.4-2.5h-0.3l1.5 2.5 1.4-0.8-1.7-2.6-0.2 0.4h3.1l-0.1-1.6-3 0.1 0.2 0.3 1.4-2.6-1.4-0.7-1.3 2.6h0.3l-1.6-2.6z"/>
		<path class="s1" d="m53.4 41l3.9 0.7-0.5 0.8-3.9-0.6zm0.9-1.6l3.9 0.7-0.4 0.8-4-0.6zm-2.5 14.1q0.1 0.1 0 0.1l-0.8 1.4q0 0.1-0.1 0l-3.5-2 6.1-10.6 1.8 1.1-5.3 9zm2.4 1.4q0 0 0 0.1l-0.8 1.3q0 0.1-0.1 0l-2.5-1.4q-0.1 0 0-0.1l0.8-1.3q0-0.1 0.1-0.1zm2.3 1.4q0.1 0 0.1 0.1l-0.8 1.3q0 0.1-0.1 0.1l-2.5-1.5q-0.1 0-0.1-0.1l0.8-1.3q0.1-0.1 0.1 0zm2.4 1.3q0.1 0.1 0 0.1l-0.7 1.4q-0.1 0-0.2 0l-2.5-1.5q0 0 0-0.1l0.8-1.3q0-0.1 0.1 0zm2.4 1.3q0 0.1 0 0.1l-0.8 1.4q0 0-0.1 0l-2.5-1.4q-0.1-0.1 0-0.1l0.7-1.4q0.1 0 0.1 0zm2.4 1.4q0.1 0 0.1 0.1l-0.8 1.3q-0.1 0.1-0.1 0l-2.5-1.4q-0.1-0.1-0.1-0.1l0.8-1.4q0 0 0.1 0zm2.4 1.4q0 0 0 0.1l-0.8 1.3q0 0.1-0.1 0l-2.5-1.4q-0.1 0 0-0.1l0.8-1.4q0 0 0.1 0zm2.3 1.4q0.1 0 0.1 0.1l-0.8 1.3q0 0.1-0.1 0.1l-2.5-1.5q-0.1 0-0.1-0.1l0.8-1.3q0.1-0.1 0.1 0zm2.4 1.3q0.1 0.1 0 0.1l-0.7 1.4q-0.1 0-0.2 0l-2.5-1.5q0 0 0-0.1l0.8-1.3q0-0.1 0.1 0zm2.4 1.3q0 0.1 0 0.1l-0.8 1.4q0 0-0.1 0l-2.5-1.4q-0.1-0.1 0-0.2l0.7-1.3q0.1 0 0.1 0zm2.4 1.4q0.1 0 0.1 0.1l-0.8 1.3q-0.1 0.1-0.1 0l-2.5-1.4q-0.1-0.1-0.1-0.1l0.8-1.4q0 0 0.1 0zm2.4 1.4q0 0 0 0.1l-0.8 1.3q0 0.1-0.1 0l-2.5-1.4q-0.1 0 0-0.1l0.8-1.4q0 0 0.1 0zm2.3 1.4q0.1 0 0.1 0.1l-0.8 1.3q0 0.1-0.1 0.1l-2.5-1.5q-0.1 0-0.1-0.1l0.8-1.3q0.1-0.1 0.1-0.1zm2.4 1.4q0.1 0.1 0 0.1l-0.7 1.4q-0.1 0-0.2 0l-2.5-1.5q0 0 0-0.1l0.8-1.3q0-0.1 0.1 0zm2.4 1.3q0 0.1 0 0.1l-0.8 1.4q0 0-0.1 0l-2.5-1.4q-0.1-0.1 0-0.2l0.7-1.3q0.1-0.1 0.1 0zm2.4 1.4q0.1 0 0.1 0l-0.8 1.4q-0.1 0.1-0.1 0l-2.5-1.4q-0.1-0.1-0.1-0.1l0.8-1.4q0 0 0.1 0zm2.4 1.4q0 0 0 0.1l-0.8 1.3q0 0.1-0.1 0l-2.5-1.4q-0.1 0 0-0.1l0.8-1.4q0 0 0.1 0zm2.3 1.4q0.1 0 0.1 0.1l-0.8 1.3q0 0.1-0.1 0.1l-2.5-1.5q-0.1 0-0.1-0.1l0.8-1.3q0.1-0.1 0.1-0.1zm2.4 1.4q0.1 0.1 0 0.1l-0.7 1.3q-0.1 0.1-0.2 0.1l-2.5-1.5q0 0 0-0.1l0.8-1.3q0-0.1 0.1 0zm2.4 1.3q0 0.1 0 0.1l-0.8 1.4q0 0-0.1 0l-2.5-1.4q-0.1-0.1 0-0.2l0.7-1.3q0.1-0.1 0.1 0zm2.4 1.4q0.1 0 0.1 0l-0.8 1.4q-0.1 0.1-0.1 0l-2.5-1.4q-0.1-0.1-0.1-0.1l0.8-1.4q0 0 0.1 0zm2.4 1.4q0 0 0 0.1l-0.8 1.3q0 0.1-0.1 0l-2.5-1.4q-0.1 0 0-0.1l0.8-1.4q0 0 0.1 0zm2.3 1.4q0.1 0 0.1 0.1l-0.8 1.3q0 0.1-0.1 0.1l-2.5-1.5q-0.1 0-0.1-0.1l0.8-1.3q0.1-0.1 0.1-0.1zm2.4 1.4q0.1 0 0 0.1l-0.7 1.3q-0.1 0.1-0.2 0.1l-2.5-1.5q0 0 0-0.1l0.8-1.3q0-0.1 0.1 0zm2.4 1.3q0 0.1 0 0.1l-0.8 1.4q0 0-0.1 0l-2.5-1.5q-0.1 0 0-0.1l0.7-1.3q0.1-0.1 0.1 0zm2.4 1.3q0.1 0.1 0.1 0.1l-0.8 1.4q-0.1 0.1-0.1 0l-2.5-1.4q-0.1-0.1-0.1-0.1l0.8-1.4q0 0 0.1 0zm2.4 1.4q0 0 0 0.1l-0.8 1.3q0 0.1-0.1 0l-2.5-1.4q-0.1-0.1 0-0.1l0.8-1.4q0 0 0.1 0zm-0.5 6q-0.4-0.2-0.5-0.6-0.1-0.4 0.2-0.8 0.2-0.5 0.6-0.6 0.4-0.1 0.8 0.1 0.4 0.3 0.5 0.6 0 0.4-0.2 0.9-0.2 0.4-0.6 0.5-0.4 0.1-0.8-0.1zm-0.5-4.6q-0.1 0-0.1-0.1l0.8-1.3q0.1-0.1 0.1-0.1l1.8 1.1 3.1-5.4 1.8 1-3.1 5.4 1.8 1q0 0.1 0 0.1l-0.8 1.4q0 0-0.1 0zm4.8 7q-0.4-0.2-0.5-0.6-0.1-0.4 0.1-0.8 0.3-0.5 0.7-0.6 0.4-0.1 0.8 0.1 0.4 0.3 0.5 0.7 0 0.3-0.2 0.8-0.3 0.4-0.6 0.5-0.4 0.2-0.8-0.1zm2.3 1.4q-0.4-0.2-0.5-0.6 0-0.4 0.2-0.9 0.3-0.4 0.6-0.5 0.4-0.1 0.8 0.1 0.4 0.2 0.5 0.6 0.1 0.4-0.1 0.8-0.3 0.5-0.7 0.6-0.4 0.1-0.8-0.1zm-1.9-5.4q0 0 0-0.1l0.8-1.4q0 0 0.1 0l2.5 1.5 3.1-5.4 1.8 1.1-4 6.8zm9.9 5.7l-0.1 0.2q-0.6 1-1.3 1.5-0.7 0.5-1.6 0.5-0.8 0-1.6-0.5-0.6-0.3-1.1-0.8-0.4-0.4-0.7-1.1l1.3-0.8q0.3 0.4 0.5 0.6 0.2 0.2 0.6 0.4 0.5 0.4 1.1 0.1 0.6-0.2 1-0.9l4.1-7.1 1.8 1-3.1 5.4 1.8 1q0 0.1 0 0.1l-0.8 1.4q0 0-0.1 0zm9.4-5.3q-0.4-0.2-0.5-0.6-0.1-0.4 0.2-0.9 0.3-0.4 0.6-0.5 0.4-0.1 0.8 0.1 0.4 0.2 0.5 0.6 0.1 0.4-0.2 0.8-0.2 0.5-0.6 0.6-0.4 0.1-0.8-0.1zm2.4 1.3q-0.4-0.2-0.5-0.6-0.1-0.4 0.2-0.8 0.2-0.4 0.6-0.6 0.4-0.1 0.8 0.2 0.4 0.2 0.5 0.6 0.1 0.4-0.2 0.8-0.2 0.4-0.6 0.6-0.4 0.1-0.8-0.2zm-10.2 4.9q0 0 0-0.1l0.8-1.3q0-0.1 0.1 0l2 1.1q0-0.4 0-0.8 0-0.4 0.1-0.7 0.1-0.4 0.3-0.8 0.7-1 1.6-1.5 0.9-0.5 2-0.4 1.2 0.1 2.4 0.8l2.2 1.3-3.9 6.8zm5.9 1.4l0.7 0.4 2.3-3.8-0.4-0.3q-0.7-0.4-1.4-0.4-0.6-0.1-1.1 0.2-0.5 0.3-0.9 1-0.4 0.6-0.4 1.1 0 0.6 0.3 1 0.3 0.5 0.9 0.8z"/>
		<path class="s1" d="m153 103.3l1.7 2.5 0.2-0.4-3.1 0.1 0.1 1.5 3-0.1-0.2-0.2-1.4 2.5 1.4 0.7 1.3-2.5h-0.3l1.6 2.5 1.3-0.8-1.7-2.6-0.2 0.4h3.1v-1.6l-3 0.1 0.1 0.3 1.4-2.6-1.3-0.7-1.4 2.6h0.3l-1.5-2.6z"/>
		<path class="s1" d="m178.4 107.9l3.9 0.6-0.5 0.9-3.9-0.7zm0.9-1.5l3.9 0.6-0.4 0.9-4-0.7zm-2.5 14.2q0.1 0 0 0.1l-0.8 1.3q0 0.1-0.1 0l-3.5-2 6.1-10.5 1.8 1-5.3 9.1zm2.4 1.3q0 0.1 0 0.1l-0.8 1.4q0 0-0.1 0l-2.5-1.5q-0.1 0 0-0.1l0.8-1.3q0-0.1 0.1 0zm2.3 1.3q0.1 0.1 0.1 0.1l-0.8 1.4q0 0-0.1 0l-2.5-1.4q-0.1-0.1-0.1-0.1l0.8-1.4q0.1 0 0.1 0zm2.4 1.4q0.1 0 0 0.1l-0.7 1.3q-0.1 0.1-0.2 0l-2.5-1.4q0-0.1 0-0.1l0.8-1.4q0 0 0.1 0zm2.4 1.4q0 0 0 0.1l-0.8 1.3q0 0.1-0.1 0l-2.5-1.4q-0.1 0 0-0.1l0.7-1.4q0.1 0 0.1 0zm2.4 1.4q0.1 0 0.1 0.1l-0.8 1.3q-0.1 0.1-0.1 0.1l-2.5-1.5q-0.1 0-0.1-0.1l0.8-1.3q0-0.1 0.1 0zm2.4 1.3q0 0.1 0 0.1l-0.8 1.4q0 0-0.1 0l-2.5-1.5q-0.1 0 0-0.1l0.8-1.3q0-0.1 0.1 0zm2.3 1.3q0.1 0.1 0.1 0.1l-0.8 1.4q0 0-0.1 0l-2.5-1.4q-0.1-0.1-0.1-0.1l0.8-1.4q0.1 0 0.1 0zm2.4 1.4q0.1 0 0 0.1l-0.7 1.3q-0.1 0.1-0.2 0l-2.5-1.4q0-0.1 0-0.1l0.8-1.4q0 0 0.1 0zm2.4 1.4q0 0 0 0.1l-0.8 1.3q0 0.1-0.1 0l-2.5-1.4q-0.1 0 0-0.1l0.7-1.4q0.1 0 0.1 0zm2.4 1.4q0.1 0 0.1 0.1l-0.8 1.3q-0.1 0.1-0.1 0.1l-2.5-1.5q-0.1 0-0.1-0.1l0.8-1.3q0-0.1 0.1-0.1zm2.4 1.4q0 0.1 0 0.1l-0.8 1.4q0 0-0.1 0l-2.5-1.5q-0.1 0 0-0.1l0.8-1.3q0-0.1 0.1 0zm2.3 1.3q0.1 0.1 0.1 0.1l-0.8 1.4q0 0-0.1 0l-2.5-1.4q-0.1-0.1-0.1-0.2l0.8-1.3q0.1-0.1 0.1 0zm2.4 1.4q0.1 0 0 0l-0.7 1.4q-0.1 0.1-0.2 0l-2.5-1.4q0-0.1 0-0.1l0.8-1.4q0 0 0.1 0zm2.4 1.4q0 0 0 0.1l-0.8 1.3q0 0.1-0.1 0l-2.5-1.4q-0.1 0 0-0.1l0.7-1.4q0.1 0 0.1 0zm2.4 1.4q0.1 0 0.1 0.1l-0.8 1.3q-0.1 0.1-0.1 0.1l-2.5-1.5q-0.1 0-0.1-0.1l0.8-1.3q0-0.1 0.1-0.1zm2.4 1.4q0 0.1 0 0.1l-0.8 1.3q0 0.1-0.1 0.1l-2.5-1.5q-0.1 0 0-0.1l0.8-1.3q0-0.1 0.1 0zm2.3 1.3q0.1 0.1 0.1 0.1l-0.8 1.4q0 0-0.1 0l-2.5-1.4q-0.1-0.1-0.1-0.2l0.8-1.3q0.1-0.1 0.1 0zm2.4 1.3q0.1 0.1 0 0.1l-0.7 1.4q-0.1 0.1-0.2 0l-2.5-1.4q0-0.1 0-0.1l0.8-1.4q0 0 0.1 0zm2.4 1.4q0 0 0 0.1l-0.8 1.3q0 0.1-0.1 0l-2.5-1.4q-0.1 0 0-0.1l0.7-1.4q0.1 0 0.1 0zm2.4 1.4q0.1 0 0.1 0.1l-0.8 1.3q-0.1 0.1-0.1 0.1l-2.5-1.5q-0.1 0-0.1-0.1l0.8-1.3q0-0.1 0.1-0.1zm2.4 1.4q0 0 0 0.1l-0.8 1.3q0 0.1-0.1 0.1l-2.5-1.5q-0.1 0 0-0.1l0.8-1.3q0-0.1 0.1 0zm2.3 1.3q0.1 0.1 0.1 0.1l-0.8 1.4q0 0-0.1 0l-2.5-1.4q-0.1-0.1-0.1-0.2l0.8-1.3q0.1-0.1 0.1 0zm2.4 1.3q0.1 0.1 0 0.1l-0.7 1.4q-0.1 0.1-0.2 0l-2.5-1.4q0-0.1 0-0.1l0.8-1.4q0 0 0.1 0zm2.4 1.4q0 0 0 0.1l-0.8 1.3q0 0.1-0.1 0l-2.5-1.4q-0.1-0.1 0-0.1l0.7-1.4q0.1 0 0.1 0zm2.4 1.4q0.1 0 0.1 0.1l-0.8 1.3q-0.1 0.1-0.1 0.1l-2.5-1.5q-0.1 0-0.1-0.1l0.8-1.3q0-0.1 0.1-0.1zm2.4 1.4q0 0 0 0.1l-0.8 1.3q0 0.1-0.1 0.1l-2.5-1.5q-0.1 0 0-0.1l0.8-1.3q0-0.1 0.1 0zm-0.5 5.9q-0.4-0.2-0.5-0.6-0.1-0.4 0.2-0.8 0.2-0.4 0.6-0.6 0.4-0.1 0.8 0.2 0.4 0.2 0.5 0.6 0.1 0.4-0.2 0.8-0.2 0.4-0.6 0.5-0.4 0.2-0.8-0.1zm-0.5-4.6q-0.1 0-0.1-0.1l0.8-1.3q0.1-0.1 0.1 0l1.8 1 3.1-5.4 1.8 1.1-3.1 5.3 1.8 1.1q0 0 0 0.1l-0.8 1.3q0 0.1-0.1 0zm4.8 7.1q-0.4-0.3-0.5-0.6-0.1-0.4 0.1-0.9 0.3-0.4 0.7-0.5 0.4-0.1 0.8 0.1 0.4 0.2 0.5 0.6 0 0.4-0.2 0.8-0.3 0.5-0.6 0.6-0.4 0.1-0.8-0.1zm2.3 1.3q-0.4-0.2-0.5-0.6 0-0.4 0.2-0.8 0.3-0.4 0.7-0.6 0.3-0.1 0.7 0.1 0.4 0.3 0.5 0.7 0.1 0.4-0.1 0.8-0.3 0.4-0.7 0.5-0.4 0.2-0.8-0.1zm-1.9-5.4q0 0 0-0.1l0.8-1.3q0-0.1 0.1 0l2.5 1.4 3.1-5.3 1.8 1-4 6.8zm9.9 5.7l-0.1 0.3q-0.6 0.9-1.3 1.4-0.7 0.5-1.5 0.5-0.9 0-1.7-0.5-0.6-0.3-1.1-0.7-0.4-0.5-0.7-1.2l1.3-0.8q0.3 0.4 0.5 0.7 0.2 0.2 0.6 0.4 0.5 0.3 1.1 0 0.6-0.2 1-0.9l4.1-7 1.8 1-3.1 5.3 1.8 1.1q0 0 0 0.1l-0.8 1.3q0 0.1-0.1 0zm9.4-5.3q-0.4-0.2-0.5-0.6-0.1-0.4 0.2-0.8 0.3-0.5 0.6-0.6 0.4-0.1 0.8 0.1 0.4 0.3 0.5 0.7 0.1 0.3-0.2 0.8-0.2 0.4-0.6 0.6-0.4 0-0.8-0.2zm2.4 1.4q-0.4-0.2-0.5-0.6-0.1-0.4 0.2-0.9 0.2-0.4 0.6-0.5 0.4-0.1 0.8 0.1 0.4 0.2 0.5 0.6 0.1 0.4-0.2 0.8-0.2 0.5-0.6 0.6-0.4 0.1-0.8-0.1zm-10.2 4.9q0-0.1 0-0.1l0.8-1.4q0 0 0.1 0l2 1.2q0-0.4 0-0.8 0-0.4 0.1-0.8 0.1-0.4 0.4-0.7 0.6-1.1 1.5-1.6 0.9-0.5 2-0.4 1.2 0.1 2.4 0.8l2.2 1.3-3.9 6.8zm5.9 1.5l0.7 0.4 2.3-3.9-0.4-0.2q-0.7-0.4-1.4-0.5-0.6 0-1.1 0.3-0.5 0.3-0.9 0.9-0.4 0.6-0.4 1.2 0 0.5 0.3 1 0.3 0.4 0.9 0.8z"/>
	</g>
</svg>