<svg width="26" height="26" viewBox="0 0 26 26" fill="none" xmlns="http://www.w3.org/2000/svg">
<path d="M25.4923 0.50763C25.1672 0.182596 24.7263 0 24.2665 0C23.8068 0 23.3659 0.182596 23.0408 0.50763L12.9992 10.5492L2.95769 0.50763C2.63247 0.183195 2.19177 0.00111905 1.7324 0.00139731C1.27302 0.00167558 0.832542 0.184285 0.507715 0.509114C0.182888 0.833942 0.000278583 1.27442 3.18484e-07 1.7338C-0.000277946 2.19318 0.181797 2.63388 0.506231 2.9591L10.5478 13.0007L0.506231 23.0423C0.181797 23.3675 -0.000277946 23.8082 3.18484e-07 24.2676C0.000278583 24.727 0.182888 25.1675 0.507715 25.4923C0.832542 25.8171 1.27302 25.9997 1.7324 26C2.19177 26.0003 2.63247 25.8182 2.95769 25.4938L12.9992 15.4522L23.0408 25.4938C23.366 25.8182 23.8067 26.0003 24.2661 26C24.7255 25.9997 25.166 25.8171 25.4908 25.4923C25.8156 25.1675 25.9982 24.727 25.9985 24.2676C25.9988 23.8082 25.8167 23.3675 25.4923 23.0423L15.4507 13.0007L25.4923 2.9591C25.6532 2.79814 25.7809 2.60704 25.868 2.39673C25.9552 2.18642 26 1.96101 26 1.73337C26 1.50572 25.9552 1.28031 25.868 1.07C25.7809 0.859686 25.6532 0.668592 25.4923 0.50763Z" fill="#022A3A"/>
</svg>
