<svg version="1.2" xmlns="http://www.w3.org/2000/svg" viewBox="0 0 173 93" width="173" height="93">
	<title>freetrial-strip-shape-mobile</title>
	<style>
		.s0 { fill: #f4cd00 } 
		.s1 { fill: #012839 } 
	</style>
	<path fill-rule="evenodd" class="s0" d="m-42.2 115.4l391.4-208.9 10.5 19.6-391.4 208.9z"/>
	<path class="s1" d="m132.3 35.3l3.1-1.6 0.5 0.9-3 1.7zm1.8 3.3l-1.1 0.6-3.3-6.2 4.5-2.4 0.5 0.9-3.3 1.8zm4.4-2.3l-3.3-6.2 2.6-1.4q0.8-0.4 1.5-0.5 0.7 0 1.3 0.3 0.6 0.3 1 1 0.3 0.7 0.3 1.4-0.1 0.6-0.5 1.2-0.5 0.6-1.3 1l-1.9 1 0.2-0.8 1.3 2.3zm4-2.1l-2.7-1.4 1.2-0.7 2.7 1.4zm-4-0.6l-0.8-0.3 1.8-1q0.8-0.4 1-0.9 0.2-0.6-0.1-1.1-0.3-0.6-0.9-0.7-0.5-0.2-1.3 0.2l-1.8 1 0.2-0.8zm7.1-2.2l3.5-1.9 0.5 1-4.6 2.5-3.3-6.2 4.5-2.4 0.5 0.9-3.4 1.8zm-1.5-2.6l3.1-1.6 0.5 0.9-3.1 1.7zm7.4-0.6l3.5-1.8 0.5 0.9-4.6 2.5-3.3-6.2 4.5-2.4 0.5 1-3.3 1.8zm-1.5-2.6l3-1.7 0.5 1-3 1.6zm10.4-0.9l-2.7-5.2-2.1 1.1-0.5-1 5.2-2.8 0.5 1-2 1 2.8 5.3zm4-2.2l-3.3-6.2 2.6-1.3q0.8-0.5 1.5-0.5 0.8-0.1 1.3 0.2 0.6 0.4 1 1.1 0.3 0.6 0.3 1.3-0.1 0.7-0.5 1.2-0.5 0.6-1.3 1l-1.9 1.1 0.2-0.8 1.3 2.3zm4-2.2l-2.7-1.4 1.2-0.6 2.8 1.4zm-4.1-0.7l-0.8-0.3 1.8-1q0.8-0.4 1-0.9 0.2-0.5-0.1-1.1-0.3-0.6-0.9-0.7-0.5-0.1-1.3 0.3l-1.8 1 0.2-0.9zm6.5-0.6l-3.3-6.2 1.1-0.6 3.3 6.2zm2-1l-0.6-7.7 1.2-0.6 6 4.7-1.2 0.6-5.3-4.3 0.4-0.2 0.6 6.8zm0.6-2.1l-0.2-1.1 3.3-1.7 0.8 0.7zm7-1.9l-3.3-6.2 1.1-0.6 2.8 5.2 3.2-1.7 0.5 1z"/>
	<path class="s1" d="m123.9 38.4l-1.6 2.6-0.3-0.4h3.1v1.6l-3-0.1 0.1-0.3 1.4 2.6-1.3 0.7-1.4-2.6h0.3l-1.5 2.6-1.4-0.8 1.7-2.6 0.2 0.4-3.1-0.1 0.1-1.6 3 0.2-0.2 0.2-1.3-2.5 1.3-0.7 1.3 2.5h-0.3l1.6-2.5z"/>
	<path class="s1" d="m62.1 72.8l3-1.6 0.6 0.9-3.1 1.7zm1.9 3.3l-1.2 0.6-3.3-6.2 4.5-2.4 0.5 1-3.3 1.8zm4.4-2.4l-3.3-6.2 2.6-1.4q0.8-0.4 1.5-0.4 0.8-0.1 1.3 0.2 0.6 0.4 1 1 0.3 0.7 0.3 1.4-0.1 0.6-0.5 1.2-0.5 0.6-1.3 1l-1.9 1 0.2-0.8 1.3 2.4zm4-2.2l-2.7-1.4 1.2-0.7 2.8 1.4zm-4.1-0.6l-0.8-0.3 1.8-1q0.8-0.4 1-0.9 0.2-0.5-0.1-1.1-0.3-0.6-0.9-0.7-0.5-0.1-1.3 0.3l-1.8 1 0.2-0.9zm7.1-2.2l3.5-1.9 0.5 1-4.6 2.5-3.3-6.2 4.5-2.4 0.5 1-3.4 1.8zm-1.5-2.6l3.1-1.7 0.5 1-3.1 1.6zm7.4-0.6l3.5-1.8 0.5 0.9-4.6 2.5-3.3-6.2 4.5-2.4 0.5 1-3.3 1.8zm-1.5-2.6l3-1.6 0.5 0.9-3 1.6zm10.4-0.9l-2.7-5.2-2.1 1.1-0.5-1 5.2-2.8 0.6 1-2.1 1.1 2.8 5.2zm4-2.2l-3.3-6.2 2.6-1.3q0.8-0.5 1.5-0.5 0.8-0.1 1.3 0.3 0.6 0.3 1 1 0.4 0.6 0.3 1.3-0.1 0.7-0.5 1.2-0.5 0.6-1.3 1.1l-1.9 1 0.3-0.8 1.2 2.3zm4-2.2l-2.7-1.4 1.2-0.6 2.8 1.4zm-4.1-0.7l-0.8-0.2 1.9-1q0.7-0.4 0.9-1 0.2-0.5-0.1-1.1-0.3-0.6-0.9-0.7-0.5-0.1-1.3 0.3l-1.8 1 0.2-0.8zm6.5-0.7l-3.3-6.2 1.1-0.6 3.3 6.2zm2-1l-0.6-7.7 1.2-0.6 6.1 4.7-1.2 0.6-5.4-4.3 0.5-0.2 0.5 6.8zm0.6-2.1l-0.2-1 3.3-1.8 0.8 0.7zm7-1.9l-3.3-6.1 1.1-0.7 2.8 5.3 3.2-1.8 0.6 1z"/>
	<path class="s1" d="m53.8 75.6l-1.6 2.5-0.3-0.4 3.1 0.1v1.5l-3-0.1 0.1-0.2 1.4 2.5-1.3 0.7-1.4-2.5h0.3l-1.5 2.5-1.4-0.8 1.7-2.6 0.2 0.4h-3.1l0.1-1.6 3 0.1-0.2 0.3-1.4-2.6 1.4-0.7 1.3 2.6h-0.3l1.6-2.6z"/>
	<path class="s1" d="m-7.5 109.9l3.1-1.6 0.5 1-3.1 1.6zm1.9 3.3l-1.2 0.6-3.3-6.2 4.5-2.4 0.6 1-3.4 1.8zm4.5-2.4l-3.3-6.2 2.5-1.3q0.8-0.5 1.6-0.5 0.7-0.1 1.3 0.3 0.6 0.3 0.9 1 0.4 0.6 0.3 1.3 0 0.7-0.5 1.2-0.4 0.6-1.3 1l-1.9 1.1 0.3-0.8 1.2 2.3zm4.1-2.2l-2.8-1.4 1.2-0.6 2.8 1.4zm-4.1-0.7l-0.8-0.2 1.9-1q0.7-0.4 0.9-1 0.3-0.5-0.1-1.1-0.3-0.6-0.8-0.7-0.6-0.1-1.3 0.3l-1.9 1 0.2-0.8zm7.1-2.3l3.5-1.8 0.5 0.9-4.6 2.5-3.3-6.2 4.5-2.4 0.5 1-3.3 1.8zm-1.5-2.6l3-1.6 0.5 0.9-3 1.6zm7.4-0.5l3.5-1.9 0.5 1-4.7 2.5-3.3-6.2 4.6-2.4 0.5 0.9-3.4 1.8zm-1.5-2.6l3.1-1.6 0.5 0.9-3.1 1.7zm10.5-1l-2.8-5.2-2 1.1-0.6-1 5.3-2.8 0.5 1-2.1 1.1 2.8 5.2zm4.1-2.2l-3.3-6.1 2.5-1.4q0.8-0.4 1.6-0.5 0.7 0 1.3 0.3 0.6 0.3 0.9 1 0.4 0.7 0.3 1.3 0 0.7-0.5 1.3-0.4 0.6-1.2 1l-1.9 1 0.2-0.8 1.2 2.3zm4.1-2.1l-2.8-1.4 1.2-0.7 2.8 1.4zm-4.1-0.6l-0.8-0.3 1.9-1q0.7-0.4 0.9-0.9 0.3-0.6-0.1-1.1-0.3-0.6-0.8-0.7-0.6-0.2-1.3 0.2l-1.9 1 0.2-0.8zm6.5-0.6l-3.3-6.2 1.2-0.6 3.3 6.1zm1.9-1l-0.5-7.7 1.1-0.6 6.1 4.7-1.2 0.7-5.4-4.3 0.5-0.3 0.6 6.9zm0.5-2.1l-0.2-1.1 3.4-1.8 0.7 0.8zm7-1.9l-3.3-6.2 1.2-0.6 2.7 5.2 3.3-1.7 0.5 0.9z"/>
</svg>