<svg width="68" height="70" viewBox="0 0 68 70" fill="none" xmlns="http://www.w3.org/2000/svg">
<path d="M29.8331 18.2856L29.0099 24.0966H44.9209L44.2136 28.7385H21.7825L23.8595 15.6568C23.8717 15.5773 23.9028 15.3974 23.9599 15.0463L24.0775 14.3251C24.6586 11.0668 26.1269 9.6971 29.5322 9.69191H52.56C55.2355 9.69018 57.4042 7.52143 57.4042 4.84595C57.4042 2.17048 55.2355 0 52.56 0C52.5375 0 52.515 0.00345893 52.4925 0.00345893C52.4839 0.00345893 52.4718 0 52.4631 0H22.0574C18.9998 0 16.4505 2.14453 15.9628 5.13132L10.5254 38.4736H46.7006C49.7911 38.4736 52.4718 36.2686 52.9214 33.2299L56.0379 14.3321H34.4196C32.0883 14.3321 30.1583 15.9958 29.8331 18.2856Z" fill="#F4CD00"/>
<path d="M6.17853 50.0489H7.45314V52.9163C6.66796 53.5061 5.4902 53.909 4.4335 53.909C2.15407 53.909 0.400391 52.2176 0.400391 50.0281C0.400391 47.8386 2.18866 46.168 4.5217 46.168C5.62337 46.168 6.74579 46.5934 7.51021 47.2575L6.6818 48.3263C6.10416 47.7919 5.2965 47.4651 4.52343 47.4651C3.05166 47.4651 1.89638 48.5892 1.89638 50.0281C1.89638 51.467 3.06376 52.6016 4.53554 52.6016C5.05956 52.6016 5.65796 52.4165 6.18198 52.1225V50.0506L6.17853 50.0489Z" fill="white"/>
<path d="M12.4997 51.3457V53.8431H11.0383V51.4011L8.19336 46.2109H9.67551L11.7578 49.7978L13.8072 46.2109H15.2807L12.4997 51.3457Z" fill="white"/>
<path d="M17.9063 46.2109L20.305 51.1053L22.6917 46.2109H24.371V53.8431H23.041L23.0307 48.3918L20.772 53.0579H19.8242L17.5673 48.3918V53.8431H16.2148V46.2109H17.9063Z" fill="white"/>
<path d="M27.6375 46.2109L31.5737 51.4339V46.2109H32.9919V53.8431H31.6066L27.6824 48.6305V53.8431H26.2539V46.2109H27.6375Z" fill="white"/>
<path d="M39.8357 52.2295H36.1053L35.4291 53.8431H33.9141L37.2606 46.2109H38.7756L42.0789 53.8431H40.5085L39.8323 52.2295H39.8357ZM39.3117 50.9756L37.9818 47.7709L36.631 50.9756H39.3134H39.3117Z" fill="white"/>
<path d="M47.6069 46.2109V47.508H45.2289V53.8431H43.7571V47.508H41.3809V46.2109H47.6069Z" fill="white"/>
<path d="M50.102 46.2109H48.6406V53.8431H50.102V46.2109Z" fill="white"/>
<path d="M59.5106 50.0262C59.5106 52.2174 57.7448 53.9071 55.4446 53.9071C53.1445 53.9071 51.377 52.2157 51.377 50.0262C51.377 47.8367 53.1445 46.166 55.4446 46.166C57.7448 46.166 59.5106 47.8332 59.5106 50.0262ZM52.8712 50.0262C52.8712 51.4651 54.0594 52.5996 55.4654 52.5996C56.8715 52.5996 58.0164 51.4651 58.0164 50.0262C58.0164 48.5873 56.8611 47.4752 55.4654 47.4752C54.0697 47.4752 52.8712 48.5873 52.8712 50.0262Z" fill="white"/>
<path d="M62.1783 46.2109L66.1145 51.4339V46.2109H67.531V53.8431H66.1474L62.2215 48.6305V53.8431H60.793V46.2109H62.1783Z" fill="white"/>
<path d="M4.01587 60.4929C4.25972 60.4929 4.44823 60.4168 4.58313 60.2646C4.71803 60.1124 4.78548 59.9101 4.78548 59.6576C4.78548 59.4051 4.71803 59.2027 4.58313 59.0506C4.44823 58.8984 4.25972 58.8223 4.01587 58.8223C3.77201 58.8223 3.58004 58.8966 3.44169 59.0436C3.30333 59.1924 3.23242 59.3965 3.23242 59.6576C3.23242 59.9187 3.3016 60.1332 3.44169 60.2785C3.58004 60.422 3.77201 60.4929 4.01587 60.4929Z" fill="white"/>
<path d="M15.8418 58.4699C15.8418 58.731 15.911 58.9351 16.0511 59.0821C16.1894 59.2308 16.3814 59.3035 16.6252 59.3035C16.8691 59.3035 17.0576 59.2274 17.1925 59.0752C17.3274 58.923 17.3949 58.7206 17.3949 58.4681C17.3949 58.2156 17.3274 58.0029 17.1925 57.8542C17.0576 57.7054 16.8691 57.6328 16.6252 57.6328C16.3814 57.6328 16.1894 57.7054 16.0511 57.849C15.911 57.9925 15.8418 58.1983 15.8418 58.4699Z" fill="white"/>
<path d="M15.5044 57.4248C15.6947 57.4248 15.859 57.3626 15.9939 57.2363C16.1288 57.1101 16.1962 56.925 16.1962 56.6812C16.1962 56.4373 16.1288 56.2523 15.9939 56.126C15.859 55.9998 15.6964 55.9375 15.5044 55.9375C15.3038 55.9375 15.1361 55.9963 15.0012 56.1139C14.8663 56.2315 14.7988 56.4217 14.7988 56.6829C14.7988 56.944 14.8663 57.1326 15.0012 57.2502C15.1361 57.3678 15.3038 57.4266 15.5044 57.4266V57.4248Z" fill="white"/>
<path d="M14.3813 59.3054C14.6252 59.3054 14.8137 59.2293 14.9503 59.0771C15.0852 58.9249 15.1527 58.7226 15.1527 58.4701C15.1527 58.2176 15.0852 58.0049 14.9503 57.8561C14.8154 57.7074 14.6252 57.6348 14.3813 57.6348C14.1548 57.6348 13.968 57.7022 13.821 57.8371C13.6722 57.972 13.5996 58.183 13.5996 58.4701C13.5996 58.7572 13.674 58.9578 13.821 59.0962C13.9697 59.2363 14.1565 59.3054 14.3813 59.3054Z" fill="white"/>
<path d="M29.6663 68.0391C29.4397 68.0391 29.2529 68.1065 29.1042 68.2414C28.9554 68.3763 28.8828 68.5873 28.8828 68.8744C28.8828 69.1615 28.9572 69.3621 29.1042 69.5005C29.2529 69.6388 29.4397 69.7097 29.6663 69.7097C29.8928 69.7097 30.0882 69.6354 30.2266 69.4884C30.365 69.3396 30.4359 69.1355 30.4359 68.8744C30.4359 68.6132 30.3667 68.3988 30.2266 68.2535C30.0882 68.11 29.8997 68.0391 29.6663 68.0391Z" fill="white"/>
<path d="M31.9104 68.0391C31.6665 68.0391 31.4746 68.1117 31.3362 68.2535C31.1979 68.3971 31.127 68.6029 31.127 68.8744C31.127 69.1459 31.1961 69.3396 31.3362 69.4884C31.4746 69.6371 31.6665 69.7097 31.9104 69.7097C32.1543 69.7097 32.3428 69.6336 32.4777 69.4814C32.6126 69.3292 32.68 69.1269 32.68 68.8744C32.68 68.6219 32.6126 68.4195 32.4777 68.2674C32.3428 68.1152 32.1543 68.0391 31.9104 68.0391Z" fill="white"/>
<path d="M36.9042 59.3054C37.148 59.3054 37.34 59.2293 37.4783 59.0771C37.6167 58.9249 37.6876 58.7226 37.6876 58.4701C37.6876 58.2176 37.6201 58.0049 37.4853 57.8561C37.3504 57.7074 37.1567 57.6348 36.9042 57.6348C36.6517 57.6348 36.4701 57.7074 36.3352 57.8509C36.2003 57.9945 36.1328 58.2003 36.1328 58.4718C36.1328 58.7434 36.202 58.9371 36.3421 59.0841C36.4804 59.2328 36.6689 59.3054 36.9042 59.3054Z" fill="white"/>
<path d="M55.7581 68.0391C55.5315 68.0391 55.3447 68.1065 55.196 68.2414C55.0472 68.3763 54.9746 68.5873 54.9746 68.8744C54.9746 69.1615 55.049 69.3621 55.196 69.5005C55.3447 69.6388 55.5315 69.7097 55.7581 69.7097C55.9846 69.7097 56.18 69.6354 56.3184 69.4884C56.4568 69.3396 56.5277 69.1355 56.5277 68.8744C56.5277 68.6132 56.4585 68.3988 56.3184 68.2535C56.18 68.11 55.9915 68.0391 55.7581 68.0391Z" fill="white"/>
<path d="M58.0061 68.0391C57.7622 68.0391 57.5703 68.1117 57.4319 68.2535C57.2936 68.3971 57.2227 68.6029 57.2227 68.8744C57.2227 69.1459 57.2918 69.3396 57.4319 69.4884C57.5703 69.6371 57.7622 69.7097 58.0061 69.7097C58.25 69.7097 58.4385 69.6336 58.5734 69.4814C58.7083 69.3292 58.7757 69.1269 58.7757 68.8744C58.7757 68.6219 58.7083 68.4195 58.5734 68.2674C58.4385 68.1152 58.25 68.0391 58.0061 68.0391Z" fill="white"/>
<path d="M63.7327 68.0391C63.4888 68.0391 63.2968 68.1117 63.1585 68.2535C63.0184 68.3971 62.9492 68.6029 62.9492 68.8744C62.9492 69.1459 63.0184 69.3396 63.1585 69.4884C63.2968 69.6371 63.4888 69.7097 63.7327 69.7097C63.9765 69.7097 64.165 69.6336 64.2999 69.4814C64.4348 69.3292 64.5023 69.1269 64.5023 68.8744C64.5023 68.6219 64.4348 68.4092 64.2999 68.2604C64.165 68.1117 63.9765 68.0391 63.7327 68.0391Z" fill="white"/>
<path d="M67.1542 65.1587C67.0418 64.9287 66.9363 64.6416 66.8412 64.2974C66.7443 63.9533 66.6578 63.5382 66.58 63.0505C66.4676 62.3552 66.2929 61.8191 66.0577 61.4455C65.8225 61.072 65.5043 60.7918 65.1048 60.6102C64.9301 60.5324 64.7347 60.4736 64.5185 60.4338C64.3006 60.3958 64.0619 60.375 63.8008 60.375C63.339 60.375 62.9049 60.4234 62.495 60.5185C62.0851 60.6154 61.6943 60.7762 61.3207 61.0011L61.8171 62.0837C62.1474 61.909 62.4639 61.7811 62.7631 61.698C63.064 61.615 63.3615 61.5735 63.6572 61.5735C63.9789 61.5735 64.2452 61.6323 64.4528 61.7499C64.662 61.8675 64.8315 62.0647 64.9612 62.3449C65.0909 62.6233 65.1964 62.9934 65.2743 63.4534C65.3867 64.0363 65.5095 64.5101 65.6392 64.8768C65.7706 65.2417 65.9176 65.508 66.0836 65.6723H57.6127V60.503H56.1894V65.6723H47.4106C47.0544 65.6723 46.7638 65.6222 46.5424 65.5219C46.3211 65.4216 46.1222 65.2504 45.9475 65.0065C46.034 64.7799 46.0997 64.5447 46.1429 64.3009C46.1862 64.057 46.2087 63.8011 46.2087 63.5313C46.2087 62.9571 46.0893 62.4434 45.8489 61.9903C45.6103 61.5372 45.273 61.1896 44.8372 60.9457C44.6193 60.8333 44.3875 60.7434 44.1385 60.6777C43.8912 60.6119 43.6266 60.5791 43.3481 60.5791C42.9296 60.5791 42.5042 60.6534 42.0683 60.8004C41.6325 60.9492 41.2416 61.1515 40.894 61.4127C40.7194 61.7171 40.5862 62.0595 40.4963 62.4382C40.4046 62.817 40.3596 63.1975 40.3596 63.5797C40.3596 63.9014 40.3942 64.2369 40.4634 64.5845C40.5326 64.9321 40.6415 65.2936 40.7903 65.6672H37.6565V60.4978H36.2331V65.6672H31.5152V60.4978H30.0918V65.6672H19.9502V60.4978H18.5667V65.6672H17.7573C17.3837 65.6672 17.0741 65.598 16.8303 65.4579C16.5864 65.3195 16.3564 65.0757 16.1385 64.7263C16.1471 64.6485 16.1541 64.5689 16.1575 64.4911C16.161 64.4133 16.1644 64.3303 16.1644 64.2438V61.5147H14.7809V64.1521C14.7809 64.6312 14.6685 65.003 14.4419 65.2677C14.2153 65.534 13.8937 65.6654 13.4751 65.6654H12.1573V61.5147H10.7737V65.6654H7.60187V60.4961H6.20447V66.71C6.20447 67.1718 6.1301 67.5557 5.9831 67.8653C5.83436 68.1749 5.60434 68.4066 5.29131 68.564C4.97828 68.7214 4.57704 68.7992 4.09106 68.7992H3.54282C3.00323 68.7992 2.58297 68.6107 2.28378 68.2319C1.98458 67.8532 1.83412 67.3205 1.83412 66.6322C1.83412 66.1099 1.87043 65.6084 1.9448 65.1241C2.01917 64.6416 2.12985 64.1988 2.27686 63.7993H0.974572C0.791249 64.2248 0.651163 64.6848 0.550854 65.176C0.450545 65.6672 0.400391 66.1704 0.400391 66.6841C0.400391 67.3101 0.507617 67.8653 0.720341 68.3478C0.933065 68.8303 1.24091 69.216 1.64042 69.5031C1.86697 69.6605 2.12121 69.7815 2.40484 69.868C2.68674 69.9545 2.99804 69.9995 3.33875 69.9995H4.14814C5.28785 69.9995 6.13875 69.7366 6.69909 69.2091C7.26117 68.6833 7.55864 67.9016 7.59323 66.8657H13.7034C14.1548 66.8657 14.5491 66.7809 14.8846 66.6114C15.2202 66.442 15.4917 66.2137 15.7009 65.9266C16.0313 66.2656 16.3633 66.5077 16.6988 66.6512C17.0344 66.7948 17.3924 66.8657 17.7763 66.8657H29.2029H28.141H43.0403C43.4571 66.8657 43.8601 66.793 44.2475 66.6512C44.6349 66.5077 44.9756 66.2915 45.2713 66.0044C45.5757 66.3261 45.8939 66.5509 46.2242 66.6772C46.5373 66.7965 46.9126 66.8553 47.3415 66.8605C47.3449 66.8605 47.3432 66.8657 47.3467 66.8657H67.3565H60.7327H67.5329V65.6775C67.3946 65.5547 67.2683 65.3801 67.1542 65.1483V65.1587ZM44.5536 64.6762C44.4048 64.9944 44.1973 65.24 43.9275 65.4129C43.6577 65.5876 43.3343 65.6741 42.9607 65.6741H42.1773C42.0113 65.2746 41.8988 64.9027 41.8383 64.5568C41.7778 64.2127 41.7467 63.872 41.7467 63.533C41.7467 63.2978 41.757 63.0764 41.7795 62.8672C41.8003 62.6579 41.847 62.4538 41.9161 62.2549C42.1254 62.1166 42.352 62.0024 42.5958 61.916C42.8397 61.8295 43.087 61.7845 43.3395 61.7845C43.7494 61.7845 44.0901 61.9454 44.3633 62.267C44.6366 62.5887 44.7749 63.0107 44.7749 63.533C44.7749 63.9775 44.7006 64.358 44.5536 64.6762Z" fill="white"/>
</svg>
