<svg width="165" height="39" viewBox="0 0 165 39" fill="none" xmlns="http://www.w3.org/2000/svg">
<path d="M19.5697 18.5364L18.7319 24.4289H34.8596L34.1405 29.1346H11.4081L13.5166 15.8764C13.5305 15.7926 13.5584 15.6111 13.6213 15.255L13.74 14.5219C14.3264 11.2196 15.8135 9.83022 19.2695 9.82324H42.6092C45.3181 9.82324 47.5174 7.624 47.5174 4.90813C47.5174 2.19225 45.3181 0 42.6092 0C42.5883 0 42.5604 0 42.5394 0C42.5324 0 42.5185 0 42.5115 0H11.6873C8.58748 0 6.00425 2.1713 5.50855 5.20136L0 38.9997H36.6678C39.8026 38.9997 42.5185 36.7656 42.9723 33.6866L46.128 14.5289H24.2125C21.8527 14.5289 19.8908 16.2185 19.5627 18.5364" fill="#F1CC00"/>
<path d="M66.6076 6.52049H68.6533V11.1214C67.3966 12.064 65.5045 12.7132 63.808 12.7132C60.1565 12.7132 57.3359 10.0044 57.3359 6.48558C57.3359 2.96681 60.2054 0.299805 63.9476 0.299805C65.714 0.299805 67.5152 0.98401 68.737 2.04523L67.4105 3.75574C66.4819 2.89699 65.1903 2.37337 63.9476 2.37337C61.5878 2.37337 59.7307 4.17464 59.7307 6.48558C59.7307 8.79652 61.6017 10.6118 63.9616 10.6118C64.7994 10.6118 65.7628 10.3115 66.6006 9.84377V6.52049H66.6076Z" fill="white"/>
<path d="M76.7486 8.60055V12.608H74.4028V8.69131L69.8438 0.369141H72.2175L75.5618 6.12205L78.8431 0.369141H81.203L76.7486 8.60055Z" fill="white"/>
<path d="M85.412 0.369141L89.2589 8.21656L93.0919 0.369141H95.7868V12.608H93.6504L93.6365 3.86697L90.013 11.3444H88.4909L84.8744 3.86697V12.608H82.7031V0.369141H85.412Z" fill="white"/>
<path d="M101.025 0.369141L107.336 8.74019V0.369141H109.612V12.608H107.392L101.095 4.25096V12.608H98.8047V0.369141H101.025Z" fill="white"/>
<path d="M120.589 10.0178H114.606L113.523 12.608H111.094L116.463 0.369141H118.892L124.191 12.608H121.671L120.589 10.0178ZM119.751 8.00711L117.615 2.86859L115.45 8.00711H119.751Z" fill="white"/>
<path d="M133.046 0.369141V2.44968H129.234V12.608H126.875V2.44968H123.062V0.369141H133.046Z" fill="white"/>
<path d="M137.041 0.369141H134.695V12.608H137.041V0.369141Z" fill="white"/>
<path d="M152.136 6.48558C152.136 9.99737 149.301 12.7132 145.615 12.7132C141.928 12.7132 139.094 10.0044 139.094 6.48558C139.094 2.96681 141.928 0.299805 145.615 0.299805C149.301 0.299805 152.136 2.97379 152.136 6.49256M141.488 6.48558C141.488 8.79652 143.394 10.6118 145.65 10.6118C147.905 10.6118 149.741 8.78954 149.741 6.48558C149.741 4.18162 147.891 2.39431 145.65 2.39431C143.408 2.39431 141.488 4.18162 141.488 6.48558Z" fill="white"/>
<path d="M156.408 0.369141L162.719 8.74019V0.369141H164.995V12.608H162.775L156.477 4.25096V12.608H154.188V0.369141H156.408Z" fill="white"/>
<path d="M63.1395 23.2689C63.5305 23.2689 63.8307 23.1502 64.0471 22.8988C64.2636 22.6545 64.3683 22.3333 64.3683 21.9284C64.3683 21.5234 64.2636 21.1953 64.0471 20.9579C63.8307 20.7205 63.5305 20.5879 63.1395 20.5879C62.7485 20.5879 62.4413 20.7066 62.2179 20.944C61.9945 21.1813 61.8828 21.5095 61.8828 21.9284C61.8828 22.3473 61.9945 22.6894 62.2179 22.9198C62.4413 23.1502 62.7485 23.2619 63.1395 23.2619V23.2689Z" fill="white"/>
<path d="M82.1016 20.0299C82.1016 20.4488 82.2133 20.777 82.4367 21.0144C82.6601 21.2517 82.9673 21.3704 83.3583 21.3704C83.7492 21.3704 84.0495 21.2517 84.2659 21.0004C84.4823 20.756 84.594 20.4349 84.594 20.0299C84.594 19.625 84.4823 19.2829 84.2659 19.0455C84.0495 18.8081 83.7492 18.6895 83.3583 18.6895C82.9673 18.6895 82.6601 18.8081 82.4367 19.0385C82.2133 19.2689 82.1016 19.5971 82.1016 20.0299Z" fill="white"/>
<path d="M81.5616 18.3544C81.8687 18.3544 82.1271 18.2566 82.3435 18.0542C82.5599 17.8517 82.6647 17.5585 82.6647 17.1675C82.6647 16.7765 82.5599 16.4833 82.3435 16.2738C82.1271 16.0714 81.8618 15.9736 81.5616 15.9736C81.2404 15.9736 80.9751 16.0714 80.7587 16.2529C80.5422 16.4414 80.4375 16.7486 80.4375 17.1675C80.4375 17.5864 80.5422 17.8866 80.7587 18.0751C80.9751 18.2636 81.2404 18.3544 81.5616 18.3544Z" fill="white"/>
<path d="M79.7567 21.3626C80.1477 21.3626 80.4479 21.2439 80.6713 20.9926C80.8877 20.7482 80.9925 20.4271 80.9925 20.0221C80.9925 19.6172 80.8808 19.2751 80.6713 19.0377C80.4549 18.8003 80.1477 18.6816 79.7567 18.6816C79.3937 18.6816 79.0934 18.7933 78.8561 19.0028C78.6187 19.2192 78.5 19.5544 78.5 20.0221C78.5 20.4899 78.6187 20.8041 78.8561 21.0275C79.0934 21.2509 79.3937 21.3626 79.7567 21.3626Z" fill="white"/>
<path d="M104.272 35.3691C103.909 35.3691 103.609 35.4739 103.372 35.6903C103.134 35.9067 103.016 36.2419 103.016 36.7026C103.016 37.1634 103.134 37.4846 103.372 37.708C103.609 37.9314 103.909 38.0431 104.272 38.0431C104.635 38.0431 104.95 37.9244 105.173 37.6871C105.396 37.4497 105.508 37.1215 105.508 36.7026C105.508 36.2837 105.396 35.9416 105.173 35.7112C104.95 35.4808 104.649 35.3691 104.272 35.3691Z" fill="white"/>
<path d="M107.874 35.3691C107.483 35.3691 107.176 35.4878 106.952 35.7112C106.729 35.9416 106.617 36.2698 106.617 36.7026C106.617 37.1355 106.729 37.4497 106.952 37.6871C107.176 37.9244 107.483 38.0431 107.874 38.0431C108.265 38.0431 108.565 37.9244 108.782 37.6801C108.998 37.4357 109.103 37.1076 109.103 36.7096C109.103 36.3117 108.998 35.9835 108.782 35.7392C108.565 35.4948 108.265 35.3761 107.874 35.3761V35.3691Z" fill="white"/>
<path d="M115.869 21.3626C116.26 21.3626 116.568 21.2439 116.791 20.9926C117.014 20.7482 117.126 20.4271 117.126 20.0221C117.126 19.6172 117.021 19.2751 116.805 19.0377C116.589 18.8003 116.281 18.6816 115.876 18.6816C115.471 18.6816 115.178 18.8003 114.962 19.0307C114.745 19.2611 114.641 19.5893 114.641 20.0221C114.641 20.455 114.752 20.7692 114.976 21.0065C115.199 21.2439 115.499 21.3626 115.876 21.3626H115.869Z" fill="white"/>
<path d="M146.116 35.3691C145.753 35.3691 145.453 35.4739 145.215 35.6903C144.978 35.9067 144.859 36.2419 144.859 36.7026C144.859 37.1634 144.978 37.4846 145.215 37.708C145.453 37.9314 145.753 38.0431 146.116 38.0431C146.479 38.0431 146.793 37.9244 147.017 37.6871C147.24 37.4497 147.352 37.1215 147.352 36.7026C147.352 36.2837 147.24 35.9416 147.017 35.7112C146.793 35.4808 146.493 35.3691 146.116 35.3691Z" fill="white"/>
<path d="M149.718 35.3691C149.327 35.3691 149.019 35.4878 148.796 35.7112C148.573 35.9416 148.461 36.2698 148.461 36.7026C148.461 37.1355 148.573 37.4497 148.796 37.6871C149.019 37.9244 149.327 38.0431 149.718 38.0431C150.109 38.0431 150.409 37.9244 150.625 37.6801C150.842 37.4357 150.946 37.1076 150.946 36.7096C150.946 36.3117 150.842 35.9835 150.625 35.7392C150.409 35.4948 150.109 35.3761 149.718 35.3761V35.3691Z" fill="white"/>
<path d="M158.905 35.3691C158.514 35.3691 158.207 35.4878 157.984 35.7112C157.76 35.9416 157.648 36.2698 157.648 36.7026C157.648 37.1355 157.76 37.4497 157.984 37.6871C158.207 37.9244 158.514 38.0431 158.905 38.0431C159.296 38.0431 159.596 37.9244 159.813 37.6801C160.029 37.4357 160.141 37.1076 160.141 36.7096C160.141 36.3117 160.029 35.9626 159.813 35.7252C159.596 35.4878 159.296 35.3691 158.905 35.3691Z" fill="white"/>
<path d="M164.392 30.7548C164.21 30.3847 164.042 29.9239 163.889 29.3724C163.735 28.8208 163.596 28.1576 163.47 27.3756C163.288 26.2586 163.009 25.3998 162.632 24.7994C162.255 24.199 161.745 23.7521 161.103 23.4589C160.824 23.3332 160.51 23.2425 160.161 23.1796C159.811 23.1168 159.428 23.0889 159.009 23.0889C158.269 23.0889 157.57 23.1657 156.914 23.3193C156.258 23.4729 155.629 23.7312 155.029 24.0942L155.825 25.8327C156.356 25.5534 156.858 25.3509 157.34 25.2113C157.822 25.0786 158.296 25.0158 158.771 25.0158C159.288 25.0158 159.714 25.1136 160.049 25.2951C160.384 25.4766 160.656 25.7978 160.866 26.2446C161.075 26.6914 161.243 27.2849 161.368 28.0249C161.55 28.9605 161.745 29.7215 161.955 30.3079C162.164 30.8944 162.402 31.3203 162.667 31.5856H149.081V23.2983H146.798V31.5856H132.723C132.15 31.5856 131.689 31.5018 131.333 31.3412C130.977 31.1806 130.656 30.9084 130.384 30.5174C130.523 30.1543 130.628 29.7773 130.698 29.3864C130.768 28.9954 130.803 28.5835 130.803 28.1506C130.803 27.229 130.614 26.4052 130.23 25.6791C129.846 24.953 129.309 24.3944 128.61 24.0035C128.261 23.8219 127.891 23.6823 127.493 23.5776C127.095 23.4729 126.669 23.424 126.23 23.424C125.559 23.424 124.875 23.5427 124.177 23.7801C123.479 24.0174 122.85 24.3456 122.292 24.7645C122.013 25.2532 121.796 25.8047 121.65 26.4052C121.503 27.0056 121.433 27.62 121.433 28.2344C121.433 28.751 121.489 29.2886 121.601 29.8471C121.712 30.4057 121.887 30.9852 122.124 31.5856H117.098V23.2983H114.815V31.5856H107.246V23.2983H104.963V31.5856H88.696V23.2983H86.4758V31.5856H85.1773C84.5768 31.5856 84.0811 31.4739 83.6902 31.2505C83.2992 31.027 82.9291 30.6361 82.5801 30.0775C82.594 29.9519 82.601 29.8262 82.608 29.7005C82.608 29.5749 82.615 29.4422 82.615 29.3026V24.9251H80.3948V29.156C80.3948 29.9239 80.2133 30.5174 79.8502 30.9433C79.4872 31.3692 78.9705 31.5856 78.3003 31.5856H76.1848V24.9251H73.9647V31.5856H68.875V23.2983H66.6339V33.2612C66.6339 34.0012 66.5152 34.6156 66.2778 35.1113C66.0404 35.607 65.6704 35.9771 65.1677 36.2284C64.665 36.4797 64.0227 36.6054 63.2408 36.6054H62.3611C61.4954 36.6054 60.8251 36.3052 60.3434 35.6978C59.8616 35.0904 59.6243 34.2386 59.6243 33.1355C59.6243 32.2977 59.6871 31.4948 59.8058 30.7199C59.9245 29.9449 60.099 29.2397 60.3364 28.5974H58.2419C57.9487 29.2816 57.7252 30.0147 57.5647 30.8036C57.4041 31.5926 57.3203 32.3955 57.3203 33.2193C57.3203 34.2247 57.4949 35.1113 57.837 35.8863C58.1791 36.6613 58.6678 37.2757 59.3101 37.7365C59.6731 37.9878 60.0781 38.1833 60.5319 38.3229C60.9857 38.4625 61.4814 38.5324 62.026 38.5324H63.3246C65.1538 38.5324 66.5152 38.1065 67.4158 37.2687C68.3165 36.4239 68.7912 35.1742 68.8471 33.5125H78.6424C79.3685 33.5125 79.9968 33.3799 80.5344 33.1076C81.072 32.8353 81.5049 32.4723 81.84 32.0115C82.3706 32.556 82.9012 32.94 83.4388 33.1704C83.9764 33.4008 84.5489 33.5125 85.1633 33.5125H103.49H101.787H125.678C126.348 33.5125 126.991 33.3938 127.612 33.1704C128.233 32.94 128.778 32.5979 129.253 32.1302C129.741 32.6468 130.251 33.0098 130.782 33.2053C131.284 33.3938 131.885 33.4916 132.576 33.4986C132.576 33.4986 132.576 33.5055 132.583 33.5055H164.671H154.045H164.95V31.5995C164.727 31.4041 164.524 31.1178 164.343 30.7548H164.392ZM128.143 29.9798C127.905 30.4895 127.57 30.8804 127.137 31.1597C126.704 31.439 126.188 31.5786 125.587 31.5786H124.331C124.065 30.9363 123.884 30.3428 123.786 29.7913C123.688 29.2397 123.639 28.6952 123.639 28.1506C123.639 27.7736 123.66 27.4175 123.695 27.0824C123.73 26.7473 123.8 26.4191 123.912 26.098C124.247 25.8746 124.61 25.693 125.001 25.5534C125.392 25.4138 125.79 25.344 126.195 25.344C126.851 25.344 127.396 25.6023 127.835 26.1189C128.275 26.6356 128.499 27.3128 128.499 28.1506C128.499 28.8627 128.38 29.4701 128.143 29.9798Z" fill="white"/>
</svg>
