<svg width="28" height="26" viewBox="0 0 28 26" fill="none" xmlns="http://www.w3.org/2000/svg">
<path d="M26.7543 13.0837L14.7937 0.501804C14.2821 -0.167268 13.2878 -0.167268 12.7762 0.501804L0.618168 13.4182C-0.234091 14.3946 0.447273 16.0684 1.8111 16.0684H4.50992V24.9953C4.50992 25.3298 4.8506 26 5.53309 26H9.90745C10.419 26 10.9306 25.4976 10.9306 24.9953V20.1973C10.9306 19.695 11.2713 19.3604 11.7829 19.3604H16.4993C16.84 19.3604 17.1806 19.695 17.1806 20.1973V24.9953C17.1806 25.4976 17.5213 26 18.2038 26H22.2375C23.2607 26 23.4305 25.4976 23.4305 24.9953V16.0684H25.6177C27.0947 16.0684 27.7763 14.2551 26.7543 13.0837Z" fill="#F4CD00"/>
</svg>
