<svg width="14" height="14" viewBox="0 0 14 14" fill="none" xmlns="http://www.w3.org/2000/svg">
<path fill-rule="evenodd" clip-rule="evenodd" d="M6.85469 0.162109C3.30032 0.162109 0.414551 3.04788 0.414551 6.60225C0.414551 10.1566 3.30032 13.0424 6.85469 13.0424C10.4091 13.0424 13.2948 10.1566 13.2948 6.60225C13.2948 3.04788 10.4091 0.162109 6.85469 0.162109ZM5.16562 10.5998C5.28213 10.9013 5.41151 11.1747 5.55202 11.4154C5.92379 12.0512 6.3588 12.4569 6.85469 12.4569C7.35058 12.4569 7.78558 12.0512 8.15735 11.4154C8.29552 11.1794 8.42256 10.9119 8.53673 10.6174C7.42434 10.7222 6.30084 10.7163 5.16562 10.5998ZM2.10597 10.0255C2.9063 11.1338 4.08543 11.9511 5.45308 12.2877C5.30964 12.1209 5.17322 11.9282 5.04618 11.7104C4.84829 11.3715 4.66972 10.971 4.51633 10.5214C3.71834 10.4101 2.91508 10.245 2.10597 10.0255ZM11.5911 10.0424C10.7955 10.2684 9.99337 10.4353 9.18542 10.543C9.03379 10.9839 8.85815 11.3767 8.66319 11.7104C8.53614 11.9282 8.39974 12.1209 8.2563 12.2877C9.61693 11.9528 10.7908 11.142 11.5911 10.0424ZM9.19362 6.89498H4.51575C4.53917 8.03957 4.699 9.10043 4.95953 9.98741C6.23585 10.1379 7.49753 10.1449 8.74457 10.0067C9.00803 9.11624 9.17021 8.04776 9.19362 6.89498ZM12.7023 6.89498H9.77909C9.75684 8.00327 9.61107 9.0372 9.37337 9.92477C10.2762 9.78894 11.1707 9.577 12.0571 9.28837C12.4318 8.56531 12.6596 7.75444 12.7023 6.89498ZM3.93028 6.89498H1.00704C1.04978 7.75327 1.27694 8.56297 1.65047 9.28544C2.55092 9.55944 3.44375 9.76494 4.32957 9.90194C4.09596 9.01905 3.95194 7.99331 3.93028 6.89498ZM4.33133 3.29611C3.44961 3.43428 2.55618 3.64095 1.65047 3.91905C1.27694 4.64152 1.04978 5.45122 1.00704 6.30951H3.93028C3.95194 5.20825 4.09655 4.18075 4.33133 3.29611ZM8.74105 3.18722C7.5063 3.04963 6.24639 3.05549 4.96129 3.20947C4.69959 4.09762 4.53917 5.16141 4.51575 6.30951H9.19362C9.17021 5.15204 9.00685 4.08005 8.74105 3.18722ZM9.37103 3.26977C9.6099 4.16026 9.75684 5.19771 9.77909 6.30951H12.7023C12.6596 5.45005 12.4313 4.63859 12.0571 3.91554C11.1754 3.62339 10.2797 3.40735 9.37103 3.26977ZM5.45308 0.916777C4.0866 1.25284 2.90805 2.06956 2.10772 3.17668C2.92035 2.95479 3.72419 2.78793 4.51867 2.6761C4.67148 2.22939 4.84887 1.83128 5.04618 1.49405C5.17322 1.27625 5.30964 1.08364 5.45308 0.916777ZM8.2563 0.916777C8.39974 1.08364 8.53614 1.27625 8.66319 1.49405C8.85639 1.82484 9.03087 2.21417 9.18192 2.65093C9.99396 2.75983 10.7961 2.92961 11.5876 3.15736C10.7873 2.06019 9.61458 1.25108 8.2563 0.916777ZM8.53263 2.57658C8.41905 2.28618 8.29377 2.02214 8.15735 1.78912C7.78558 1.1533 7.35058 0.747576 6.85469 0.747576C6.3588 0.747576 5.92379 1.1533 5.55202 1.78912C5.41268 2.02799 5.28447 2.29848 5.16913 2.59648C6.30962 2.47763 7.43078 2.47236 8.53263 2.57658Z" fill="white"/>
</svg>
