<svg width="23" height="23" viewBox="0 0 23 23" fill="none" xmlns="http://www.w3.org/2000/svg">
<path fill-rule="evenodd" clip-rule="evenodd" d="M11.8213 0.406738C5.78747 0.406738 0.888672 5.30554 0.888672 11.3393C0.888672 17.3731 5.78747 22.2719 11.8213 22.2719C17.8551 22.2719 22.7539 17.3731 22.7539 11.3393C22.7539 5.30554 17.8551 0.406738 11.8213 0.406738ZM8.95396 18.1255C9.15174 18.6374 9.37137 19.1015 9.6099 19.51C10.241 20.5893 10.9795 21.2781 11.8213 21.2781C12.6631 21.2781 13.4015 20.5893 14.0327 19.51C14.2672 19.1094 14.4829 18.6552 14.6767 18.1553C12.7883 18.3332 10.8811 18.3233 8.95396 18.1255ZM3.75998 17.1505C5.1186 19.0319 7.12026 20.4194 9.44195 20.9908C9.19845 20.7076 8.96687 20.3806 8.7512 20.0109C8.41527 19.4354 8.11214 18.7556 7.85174 17.9923C6.4971 17.8035 5.13351 17.5232 3.75998 17.1505ZM19.8617 17.1793C18.511 17.563 17.1494 17.8462 15.7779 18.0291C15.5205 18.7775 15.2223 19.4444 14.8913 20.0109C14.6757 20.3806 14.4441 20.7076 14.2006 20.9908C16.5104 20.4223 18.5031 19.0458 19.8617 17.1793ZM15.7918 11.8363H7.85076C7.89051 13.7793 8.16184 15.5802 8.60411 17.0859C10.7708 17.3413 12.9125 17.3533 15.0295 17.1187C15.4767 15.607 15.752 13.7932 15.7918 11.8363ZM21.7481 11.8363H16.7857C16.7479 13.7177 16.5004 15.4729 16.0969 16.9796C17.6295 16.749 19.1481 16.3892 20.6528 15.8992C21.2889 14.6718 21.6755 13.2953 21.7481 11.8363ZM6.85689 11.8363H1.89447C1.96702 13.2933 2.35264 14.6678 2.98673 15.8943C4.51531 16.3594 6.03097 16.7082 7.5347 16.9408C7.13814 15.4421 6.89366 13.7008 6.85689 11.8363ZM7.53769 5.72694C6.04091 5.9615 4.52425 6.31233 2.98673 6.78442C2.35264 8.01086 1.96702 9.38539 1.89447 10.8424H6.85689C6.89366 8.97293 7.13914 7.22868 7.53769 5.72694ZM15.0235 5.54208C12.9274 5.30852 10.7886 5.31846 8.6071 5.57985C8.16284 7.08756 7.89051 8.89342 7.85076 10.8424H15.7918C15.752 8.87752 15.4747 7.05774 15.0235 5.54208ZM16.0929 5.68222C16.4984 7.1939 16.7479 8.95504 16.7857 10.8424H21.7481C21.6755 9.3834 21.2879 8.00589 20.6528 6.77846C19.156 6.28252 17.6354 5.91578 16.0929 5.68222ZM9.44195 1.68784C7.12225 2.25833 5.12158 3.64478 3.76295 5.52419C5.14245 5.14751 6.50703 4.86426 7.85572 4.67443C8.11512 3.9161 8.41626 3.24027 8.7512 2.6678C8.96687 2.29808 9.19845 1.9711 9.44195 1.68784ZM14.2006 1.68784C14.4441 1.9711 14.6757 2.29808 14.8913 2.6678C15.2193 3.22934 15.5155 3.89026 15.7719 4.63169C17.1504 4.81655 18.512 5.10478 19.8558 5.49139C18.4971 3.62888 16.5064 2.25534 14.2006 1.68784ZM14.6697 4.50547C14.4769 4.01251 14.2642 3.56427 14.0327 3.16871C13.4015 2.08937 12.6631 1.40061 11.8213 1.40061C10.9795 1.40061 10.241 2.08937 9.6099 3.16871C9.37336 3.57421 9.15571 4.03338 8.95992 4.53926C10.896 4.33751 12.7992 4.32856 14.6697 4.50547Z" fill="#022A3A"/>
</svg>
