<svg width="14" height="20" viewBox="0 0 14 20" fill="none" xmlns="http://www.w3.org/2000/svg">
<path d="M10.2463 6.62196C8.0047 7.4497 5.88791 8.32797 4.19777 9.29077C2.40122 10.3215 1.20932 11.706 1.20932 13.0243C1.20932 15.8622 4.48221 17.8043 9.33881 17.8043C11.0996 17.8043 12.7007 17.6013 13.8752 17.3147L14 17.6187C13.0925 18.2609 12.1144 18.9196 11.0115 19.5103C10.4427 19.8144 9.39299 20 7.96987 20C3.64633 20 0 18.0579 0 13.6996C0 11.4864 1.24511 9.66284 2.95266 8.24345C1.0313 6.94258 0.284431 6.03032 0.284431 4.56132C0.284431 3.83464 0.551448 2.83877 1.08451 1.97703C1.90298 0.692696 3.11326 0 4.39417 0C5.9595 0 7.13399 0.743225 8.2185 2.12862L7.93407 2.48323C7.00919 2.07809 6.1201 1.92559 5.17684 1.92559C3.20227 1.92559 1.61951 2.87184 1.61951 3.56362C1.61951 4.32338 2.08196 4.93156 3.16744 5.70877C3.80789 6.14791 4.69698 6.62104 5.053 6.62104C5.40902 6.62104 5.72925 6.452 6.0311 6.31695C7.63223 5.59026 9.23336 4.93156 10.8335 4.35737L10.9225 4.4079L10.2463 6.62104V6.62196Z" fill="white"/>
</svg>
