<svg width="14" height="22" viewBox="0 0 14 22" fill="none" xmlns="http://www.w3.org/2000/svg">
<path d="M6.9999 18.0714C7.23032 18.0714 7.44907 17.9683 7.59684 17.7896C8.25211 16.996 14 10.7232 14 7.07142C14 3.17227 10.8598 0 7 0C3.14023 0 0 3.17227 0 7.07142C0 10.7229 5.74784 16.996 6.40317 17.7896C6.55094 17.9683 6.7695 18.0714 6.9999 18.0714ZM3.8975 7.11369C3.8975 5.38119 5.29362 3.97083 7.00861 3.97083C8.72458 3.97083 10.1197 5.38119 10.1197 7.11369C10.1197 8.84618 8.72458 10.2565 7.00861 10.2565C5.29265 10.2565 3.8975 8.84618 3.8975 7.11369ZM12.4443 20.4286C12.4443 21.2968 10.007 22 6.9999 22C3.99283 22 1.55546 21.2968 1.55546 20.4286C1.55546 19.5604 3.99283 18.8571 6.9999 18.8571C10.007 18.8571 12.4443 19.5604 12.4443 20.4286Z" fill="#022A3A"/>
</svg>
