<svg width="55" height="40" viewBox="0 0 55 40" fill="none" xmlns="http://www.w3.org/2000/svg">
<path d="M24.824 0.32659L16.76 27.3026L13.592 15.2066C17.368 15.2066 20.408 16.2626 22.712 18.3746C25.08 20.4866 26.264 23.4306 26.264 27.2066C26.264 30.9186 25.048 33.8946 22.616 36.1346C20.248 38.3746 17.24 39.4946 13.592 39.4946C9.944 39.4946 6.904 38.3746 4.472 36.1346C2.104 33.8946 0.92 30.9186 0.92 27.2066C0.92 26.1826 0.984 25.1586 1.112 24.1346C1.304 23.1106 1.656 21.8626 2.168 20.3906C2.744 18.9186 3.576 16.9986 4.664 14.6306L11.384 0.32659H24.824ZM52.664 0.32659L44.6 27.3026L41.432 15.2066C45.208 15.2066 48.248 16.2626 50.552 18.3746C52.92 20.4866 54.104 23.4306 54.104 27.2066C54.104 30.9186 52.888 33.8946 50.456 36.1346C48.088 38.3746 45.08 39.4946 41.432 39.4946C37.784 39.4946 34.744 38.3746 32.312 36.1346C29.944 33.8946 28.76 30.9186 28.76 27.2066C28.76 26.1826 28.824 25.1586 28.952 24.1346C29.144 23.1106 29.496 21.8626 30.008 20.3906C30.584 18.9186 31.416 16.9986 32.504 14.6306L39.224 0.32659H52.664Z" fill="white"/>
</svg>
