<svg width="42" height="30" viewBox="0 0 42 30" fill="none" xmlns="http://www.w3.org/2000/svg">
<path d="M40 13C41.1046 13 42 13.8954 42 15C42 16.1046 41.1046 17 40 17V13ZM1.56744 16.4142C0.786388 15.6332 0.786388 14.3668 1.56744 13.5858L14.2954 0.857864C15.0764 0.0768156 16.3427 0.0768156 17.1238 0.857864C17.9048 1.63891 17.9048 2.90524 17.1238 3.68629L5.81008 15L17.1238 26.3137C17.9048 27.0948 17.9048 28.3611 17.1238 29.1421C16.3427 29.9232 15.0764 29.9232 14.2954 29.1421L1.56744 16.4142ZM40 17H2.98165V13H40V17Z" fill="white"/>
</svg>
