<svg width="81" height="81" viewBox="0 0 81 81" fill="none" xmlns="http://www.w3.org/2000/svg">
<path fill-rule="evenodd" clip-rule="evenodd" d="M40.5 81C62.8675 81 81 62.8675 81 40.5C81 18.1325 62.8675 0 40.5 0C18.1325 0 0 18.1325 0 40.5C0 62.8675 18.1325 81 40.5 81ZM64.1213 38.8787L45.0294 19.7868C43.8578 18.6152 41.9584 18.6152 40.7868 19.7868C39.6152 20.9584 39.6152 22.8579 40.7868 24.0294L54.7574 38H19C17.3431 38 16 39.3431 16 41C16 42.6569 17.3431 44 19 44H54.7574L40.7868 57.9706C39.6152 59.1421 39.6152 61.0416 40.7868 62.2132C41.9584 63.3848 43.8578 63.3848 45.0294 62.2132L64.1213 43.1213C65.2929 41.9497 65.2929 40.0503 64.1213 38.8787Z" fill="#012839"/>
</svg>
