<svg width="16" height="12" viewBox="0 0 16 12" fill="none" xmlns="http://www.w3.org/2000/svg">
<path fill-rule="evenodd" clip-rule="evenodd" d="M15.6485 0.369674C15.8736 0.606179 16 0.926906 16 1.26132C16 1.59574 15.8736 1.91647 15.6485 2.15297L6.64917 11.6059C6.53024 11.7308 6.38904 11.8299 6.23364 11.8976C6.07824 11.9652 5.91168 12 5.74347 12C5.57526 12 5.4087 11.9652 5.2533 11.8976C5.0979 11.8299 4.95671 11.7308 4.83778 11.6059L0.366545 6.91011C0.251871 6.79377 0.160402 6.65461 0.0974773 6.50074C0.0345522 6.34687 0.00143067 6.18138 4.53326e-05 6.01393C-0.00134 5.84647 0.0290387 5.6804 0.0894086 5.5254C0.149779 5.37041 0.238931 5.2296 0.351663 5.11118C0.464396 4.99277 0.598451 4.89912 0.746007 4.83571C0.893563 4.7723 1.05166 4.74039 1.21109 4.74184C1.37051 4.7433 1.52806 4.77809 1.67454 4.84419C1.82103 4.91028 1.95351 5.00636 2.06427 5.12682L5.74307 8.99105L13.9499 0.369674C14.0614 0.252478 14.1938 0.159509 14.3396 0.0960783C14.4853 0.0326479 14.6415 0 14.7992 0C14.9569 0 15.1131 0.0326479 15.2589 0.0960783C15.4046 0.159509 15.537 0.252478 15.6485 0.369674Z" fill="#F4CD00"/>
</svg>
