<svg width="18" height="18" viewBox="0 0 18 18" fill="none" xmlns="http://www.w3.org/2000/svg">
<path d="M17.6485 0.351436C17.4234 0.126412 17.1182 0 16.7999 0C16.4816 0 16.1764 0.126412 15.9513 0.351436L8.99948 7.30331L2.04763 0.351436C1.82248 0.126827 1.51738 0.000774724 1.19935 0.000967369C0.881323 0.00116001 0.576375 0.127582 0.351495 0.352463C0.126615 0.577344 0.000192865 0.882293 2.20489e-07 1.20032C-0.000192424 1.51835 0.12586 1.82345 0.350467 2.04861L7.30232 9.00048L0.350467 15.9524C0.12586 16.1775 -0.000192424 16.4826 2.20489e-07 16.8006C0.000192865 17.1187 0.126615 17.4236 0.351495 17.6485C0.576375 17.8734 0.881323 17.9998 1.19935 18C1.51738 18.0002 1.82248 17.8741 2.04763 17.6495L8.99948 10.6977L15.9513 17.6495C16.1765 17.8741 16.4816 18.0002 16.7996 18C17.1176 17.9998 17.4226 17.8734 17.6475 17.6485C17.8723 17.4236 17.9988 17.1187 17.999 16.8006C17.9992 16.4826 17.8731 16.1775 17.6485 15.9524L10.6966 9.00048L17.6485 2.04861C17.7599 1.93717 17.8483 1.80488 17.9086 1.65928C17.969 1.51368 18 1.35762 18 1.20002C18 1.04242 17.969 0.886369 17.9086 0.740768C17.8483 0.595167 17.7599 0.462872 17.6485 0.351436Z" fill="#022A3A"/>
</svg>
