<svg width="160" height="85" viewBox="0 0 160 85" fill="none" xmlns="http://www.w3.org/2000/svg">
<g clip-path="url(#clip0_71_2)">
<path fill-rule="evenodd" clip-rule="evenodd" d="M-1.82855 -1.21429L296.305 157.402L304.305 142.451L6.09526 -16.0893L-1.82855 -1.21429Z" fill="#F4CD00"/>
<path d="M92.1905 40.5268L90.8952 38.5536L90.7429 38.8571L93.1048 38.7812L93.0286 37.6428L90.819 37.7187L90.8952 37.8705L91.9619 35.9732L90.8952 35.442L89.9048 37.3393H90.1333L88.9905 35.442L87.9238 36.0491L89.219 38.0223L89.3714 37.7187H87.0095L87.0857 38.933L89.3714 38.8571L89.219 38.6295L88.1524 40.6027L89.219 41.1339L90.2095 39.1607L89.981 39.2366L91.2 41.1339L92.1905 40.5268Z" fill="#012839"/>
<path d="M97.4476 45.9911C97.0412 45.7381 96.6857 45.4598 96.3809 45.1562C96.0762 44.8021 95.873 44.4226 95.7714 44.0179C95.619 43.6131 95.5682 43.2083 95.619 42.8036C95.6698 42.3482 95.7968 41.9181 96 41.5134C96.2032 41.058 96.4825 40.7039 96.8381 40.4509C97.1936 40.1979 97.5746 39.9955 97.9809 39.8437C98.3873 39.7426 98.819 39.7173 99.2762 39.7679C99.6825 39.8184 100.114 39.9702 100.571 40.2232C101.029 40.4762 101.409 40.7798 101.714 41.1339C102.019 41.4881 102.222 41.8928 102.324 42.3482L101.257 42.6518C101.206 42.2976 101.079 41.994 100.876 41.7411C100.673 41.4881 100.419 41.2857 100.114 41.1339C99.8095 40.9821 99.5047 40.8809 99.2 40.8303C98.946 40.8303 98.6666 40.8556 98.3619 40.9062C98.1079 41.0074 97.8539 41.1592 97.6 41.3616C97.3968 41.5134 97.219 41.7411 97.0666 42.0446C96.9143 42.3482 96.8127 42.6518 96.7619 42.9553C96.7619 43.2083 96.7873 43.4866 96.8381 43.7902C96.9397 44.0431 97.092 44.2961 97.2952 44.5491C97.4984 44.7515 97.727 44.9286 97.9809 45.0804C98.2857 45.2321 98.5905 45.3333 98.8952 45.3839C99.2 45.3839 99.5301 45.3333 99.8857 45.2321L100.19 46.2187C99.7841 46.4211 99.3524 46.497 98.8952 46.4464C98.3873 46.3958 97.9047 46.244 97.4476 45.9911ZM103.009 48.9509C102.552 48.6979 102.171 48.3943 101.867 48.0402C101.613 47.7366 101.409 47.3824 101.257 46.9777C101.105 46.5729 101.054 46.1429 101.105 45.6875C101.156 45.2827 101.283 44.8527 101.486 44.3973C101.74 43.9926 102.019 43.6637 102.324 43.4107C102.679 43.1071 103.06 42.9048 103.467 42.8036C103.873 42.7024 104.305 42.6771 104.762 42.7277C105.219 42.7783 105.676 42.9301 106.133 43.183C106.54 43.3854 106.895 43.6637 107.2 44.0179C107.505 44.372 107.708 44.7515 107.809 45.1562C107.962 45.561 108.013 45.9658 107.962 46.3705C107.962 46.8259 107.835 47.2559 107.581 47.6607C107.378 48.0655 107.098 48.4196 106.743 48.7232C106.387 48.9762 106.006 49.1533 105.6 49.2545C105.194 49.3556 104.762 49.3809 104.305 49.3304C103.898 49.2798 103.467 49.1533 103.009 48.9509ZM103.467 48.0402C103.771 48.192 104.076 48.2678 104.381 48.2678C104.635 48.3184 104.914 48.2931 105.219 48.192C105.473 48.1414 105.727 48.0149 105.981 47.8125C106.184 47.6101 106.362 47.3824 106.514 47.1295C106.667 46.8259 106.768 46.5223 106.819 46.2187C106.819 45.9152 106.794 45.6369 106.743 45.3839C106.641 45.1309 106.489 44.878 106.286 44.625C106.133 44.4226 105.905 44.2455 105.6 44.0937C105.346 43.942 105.067 43.8408 104.762 43.7902C104.457 43.7396 104.178 43.7649 103.924 43.8661C103.619 43.9673 103.365 44.0937 103.162 44.2455C102.908 44.4479 102.705 44.7009 102.552 45.0045C102.4 45.2574 102.324 45.5357 102.324 45.8393C102.273 46.1429 102.298 46.4211 102.4 46.6741C102.451 46.9777 102.578 47.2306 102.781 47.433C102.984 47.686 103.213 47.8884 103.467 48.0402ZM107.2 51.0759L110.171 45.4598L111.086 45.9152L111.314 51.3036L110.857 51.0759L115.505 48.2678L116.343 48.7232L113.371 54.3393L112.381 53.808L114.59 49.7857L114.743 49.8616L110.857 52.2143L110.4 51.9107L110.171 47.433L110.4 47.5089L108.19 51.6071L107.2 51.0759ZM114.895 55.1741L117.943 49.558L118.933 50.0893L115.962 55.7054L114.895 55.1741ZM117.486 56.5402L120.457 50.9241L121.371 51.3795L122.59 57.6027L122.133 57.375L124.419 53.0491L125.486 53.5803L122.438 59.2723L121.6 58.7411L120.381 52.5937L120.838 52.8214L118.476 57.1473L117.486 56.5402ZM126.629 61.4732C126.171 61.2202 125.816 60.942 125.562 60.6384C125.257 60.2842 125.029 59.9048 124.876 59.5C124.775 59.0952 124.724 58.6652 124.724 58.2098C124.775 57.805 124.902 57.4003 125.105 56.9955C125.359 56.5402 125.663 56.186 126.019 55.933C126.324 55.68 126.679 55.4777 127.086 55.3259C127.543 55.2247 127.975 55.1994 128.381 55.25C128.838 55.3006 129.295 55.4524 129.752 55.7054C130.21 55.9583 130.59 56.2619 130.895 56.6161C131.2 56.9702 131.403 57.375 131.505 57.8303L130.514 58.1339C130.413 57.7798 130.26 57.4762 130.057 57.2232C129.854 57.0208 129.6 56.8184 129.295 56.6161C128.99 56.4643 128.686 56.3631 128.381 56.3125C128.076 56.3125 127.797 56.3378 127.543 56.3884C127.238 56.4896 126.984 56.6414 126.781 56.8437C126.527 56.9955 126.324 57.2232 126.171 57.5268C126.019 57.8304 125.943 58.1086 125.943 58.3616C125.892 58.6652 125.917 58.9687 126.019 59.2723C126.121 59.5253 126.248 59.7783 126.4 60.0312C126.603 60.2336 126.857 60.4107 127.162 60.5625C127.467 60.7143 127.771 60.8155 128.076 60.8661C128.381 60.9167 128.711 60.9167 129.067 60.8661L129.219 61.9286C128.813 62.0298 128.381 62.0298 127.924 61.9286C127.467 61.8274 127.035 61.6756 126.629 61.4732ZM129.219 61.9286L128.305 61.2455L129.448 59.1964L130.438 59.7277L129.219 61.9286ZM134.171 65.4955C133.714 65.2426 133.333 64.939 133.029 64.5848C132.673 64.2306 132.444 63.9018 132.343 63.5982L133.105 62.9911C133.257 63.2946 133.46 63.5982 133.714 63.9018C133.968 64.1548 134.273 64.3824 134.629 64.5848C134.933 64.7366 135.187 64.8378 135.39 64.8884C135.644 64.939 135.822 64.9137 135.924 64.8125C136.076 64.7619 136.203 64.6607 136.305 64.5089C136.406 64.3571 136.406 64.2053 136.305 64.0536C136.254 63.8512 136.152 63.6741 136 63.5223C135.848 63.3705 135.644 63.1934 135.39 62.9911C135.187 62.7887 134.984 62.6116 134.781 62.4598C134.578 62.2574 134.425 62.0298 134.324 61.7768C134.171 61.5744 134.095 61.3467 134.095 61.0937C134.044 60.8408 134.095 60.5625 134.248 60.2589C134.451 59.9554 134.705 59.7024 135.009 59.5C135.314 59.3482 135.67 59.2976 136.076 59.3482C136.483 59.3482 136.94 59.5 137.448 59.8036C137.803 59.9554 138.108 60.1577 138.362 60.4107C138.667 60.7143 138.895 60.9925 139.048 61.2455L138.286 61.9286C138.133 61.625 137.93 61.372 137.676 61.1696C137.473 60.9673 137.244 60.7902 136.99 60.6384C136.686 60.4866 136.432 60.3854 136.229 60.3348C136.025 60.3348 135.848 60.3601 135.695 60.4107C135.543 60.5119 135.416 60.6131 135.314 60.7143C135.263 60.9167 135.263 61.0937 135.314 61.2455C135.365 61.3973 135.467 61.5744 135.619 61.7768C135.822 61.9286 136.025 62.1056 136.229 62.308C136.432 62.4598 136.635 62.6369 136.838 62.8393C137.041 63.0417 137.219 63.244 137.371 63.4464C137.473 63.6994 137.549 63.9524 137.6 64.2053C137.6 64.4583 137.524 64.7366 137.371 65.0402C137.219 65.3437 136.99 65.5714 136.686 65.7232C136.381 65.875 136.025 65.9509 135.619 65.9509C135.162 65.9003 134.679 65.7485 134.171 65.4955ZM140.114 68.6071C139.708 68.4048 139.352 68.1265 139.048 67.7723C138.743 67.4181 138.54 67.0387 138.438 66.6339C138.286 66.2292 138.235 65.8244 138.286 65.4196C138.286 64.9643 138.413 64.5342 138.667 64.1295C138.87 63.7247 139.149 63.3705 139.505 63.067C139.86 62.814 140.241 62.6369 140.648 62.5357C141.054 62.4345 141.486 62.4092 141.943 62.4598C142.4 62.5104 142.832 62.6369 143.238 62.8393C143.695 63.0923 144.051 63.3958 144.305 63.75C144.609 64.0536 144.838 64.4077 144.99 64.8125C145.143 65.2173 145.194 65.6473 145.143 66.1027C145.092 66.5074 144.965 66.9375 144.762 67.3929C144.508 67.7976 144.229 68.1265 143.924 68.3795C143.568 68.683 143.187 68.8854 142.781 68.9866C142.375 69.0878 141.943 69.1131 141.486 69.0625C141.029 69.0119 140.571 68.8601 140.114 68.6071ZM140.648 67.6964C140.902 67.8482 141.181 67.9494 141.486 68C141.79 68.0506 142.07 68.0253 142.324 67.9241C142.629 67.8229 142.883 67.6964 143.086 67.5446C143.34 67.3423 143.543 67.0893 143.695 66.7857C143.848 66.4821 143.924 66.2039 143.924 65.9509C143.975 65.6473 143.949 65.369 143.848 65.1161C143.797 64.8125 143.67 64.5595 143.467 64.3571C143.263 64.1042 143.035 63.9018 142.781 63.75C142.476 63.5982 142.171 63.5223 141.867 63.5223C141.613 63.4717 141.333 63.497 141.029 63.5982C140.775 63.6488 140.521 63.7753 140.267 63.9777C140.063 64.1801 139.886 64.4077 139.733 64.6607C139.581 64.9643 139.479 65.2678 139.429 65.5714C139.429 65.875 139.454 66.1533 139.505 66.4062C139.606 66.6592 139.733 66.9122 139.886 67.1652C140.089 67.3676 140.343 67.5446 140.648 67.6964ZM146.971 72.25C146.514 71.997 146.133 71.7187 145.829 71.4152C145.524 71.061 145.321 70.6815 145.219 70.2768C145.067 69.872 145.016 69.442 145.067 68.9866C145.117 68.5818 145.244 68.1771 145.448 67.7723C145.651 67.317 145.93 66.9628 146.286 66.7098C146.641 66.4568 147.022 66.2545 147.429 66.1027C147.835 66.0015 148.267 65.9762 148.724 66.0268C149.181 66.0774 149.613 66.2292 150.019 66.4821C150.476 66.6845 150.857 66.9628 151.162 67.317C151.416 67.6711 151.619 68.0506 151.771 68.4553C151.924 68.8601 151.975 69.2902 151.924 69.7455C151.873 70.1503 151.746 70.5551 151.543 70.9598C151.289 71.3646 151.009 71.7187 150.705 72.0223C150.349 72.2753 149.968 72.4524 149.562 72.5536C149.156 72.7053 148.724 72.7559 148.267 72.7054C147.81 72.6548 147.378 72.503 146.971 72.25ZM147.429 71.3393C147.733 71.4911 148.013 71.5923 148.267 71.6428C148.571 71.6428 148.851 71.6176 149.105 71.567C149.409 71.4658 149.663 71.314 149.867 71.1116C150.121 70.9598 150.324 70.7321 150.476 70.4286C150.629 70.125 150.705 69.8214 150.705 69.5178C150.756 69.2649 150.73 68.9866 150.629 68.683C150.578 68.4301 150.451 68.1771 150.248 67.9241C150.044 67.7217 149.816 67.5446 149.562 67.3929C149.257 67.2411 148.952 67.1399 148.648 67.0893C148.394 67.0893 148.114 67.1146 147.809 67.1652C147.556 67.2664 147.302 67.4181 147.048 67.6205C146.844 67.7723 146.667 68 146.514 68.3036C146.362 68.6071 146.26 68.8854 146.209 69.1384C146.209 69.442 146.235 69.7455 146.286 70.0491C146.387 70.3021 146.54 70.5298 146.743 70.7321C146.895 70.9851 147.124 71.1875 147.429 71.3393ZM151.162 74.375L154.133 68.7589L154.971 69.2143L156.19 75.4375L155.809 75.2098L158.095 70.8839L159.162 71.4152L156.114 77.0312L155.276 76.5759L154.057 70.3527L154.514 70.5803L152.152 74.9062L151.162 74.375Z" fill="#012839"/>
<path d="M23.5429 6.52677C23.1365 6.2738 22.781 5.99552 22.4762 5.69195C22.1714 5.33778 21.9683 4.95832 21.8667 4.55356C21.7143 4.1488 21.6635 3.74403 21.7143 3.33927C21.7651 2.88391 21.8921 2.45385 22.0953 2.04909C22.2984 1.59374 22.5778 1.23957 22.9333 0.986593C23.2889 0.733616 23.6699 0.531235 24.0762 0.37945C24.4826 0.278259 24.9143 0.252962 25.3714 0.303557C25.7778 0.354152 26.2095 0.505938 26.6667 0.758914C27.1238 1.01189 27.5048 1.31546 27.8095 1.66963C28.1143 2.0238 28.3175 2.42856 28.4191 2.88391L27.3524 3.18749C27.3016 2.83332 27.1746 2.52975 26.9714 2.27677C26.7683 2.0238 26.5143 1.82141 26.2095 1.66963C25.9048 1.51784 25.6254 1.41665 25.3714 1.36606C25.0667 1.36606 24.7619 1.39135 24.4572 1.44195C24.2032 1.54314 23.9492 1.69493 23.6953 1.89731C23.4921 2.04909 23.3143 2.27677 23.1619 2.58034C23.0095 2.88391 22.9079 3.18749 22.8572 3.49106C22.8572 3.74403 22.8826 4.02231 22.9333 4.32588C23.0349 4.57885 23.1873 4.83183 23.3905 5.08481C23.5937 5.28719 23.8222 5.46427 24.0762 5.61606C24.381 5.76784 24.6857 5.86903 24.9905 5.91963C25.2953 5.91963 25.6254 5.86903 25.981 5.76784L26.2857 6.75445C25.8794 6.95683 25.4476 7.03272 24.9905 6.98213C24.4826 6.93153 24 6.77975 23.5429 6.52677ZM29.1048 9.48659C28.6476 9.23362 28.2921 8.93005 28.0381 8.57588C27.7333 8.27231 27.5048 7.91814 27.3524 7.51338C27.2 7.10862 27.1492 6.67856 27.2 6.2232C27.2508 5.81844 27.3778 5.38838 27.581 4.93302C27.8349 4.52826 28.1143 4.19939 28.4191 3.94641C28.7746 3.64284 29.1556 3.44046 29.5619 3.33927C29.9683 3.23808 30.4 3.21278 30.8572 3.26338C31.3143 3.31397 31.7714 3.46576 32.2286 3.71874C32.6349 3.92112 32.9905 4.19939 33.2953 4.55356C33.6 4.90772 33.8032 5.28719 33.9048 5.69195C34.0572 6.09671 34.108 6.50147 34.0572 6.90624C34.0572 7.36159 33.9302 7.79165 33.6762 8.19641C33.473 8.60118 33.1937 8.95534 32.8381 9.25891C32.4826 9.51189 32.1016 9.68897 31.6953 9.79016C31.2889 9.89135 30.8572 9.91665 30.4 9.86606C29.9937 9.81546 29.5619 9.68897 29.1048 9.48659ZM29.5619 8.57588C29.8667 8.72766 30.1714 8.80356 30.4762 8.80356C30.7302 8.85415 31.0095 8.82885 31.3143 8.72766C31.5683 8.67707 31.8222 8.55058 32.0762 8.3482C32.2794 8.14582 32.4572 7.91814 32.6095 7.66516C32.7619 7.36159 32.8635 7.05802 32.9143 6.75445C32.9143 6.45088 32.8889 6.1726 32.8381 5.91963C32.7365 5.66665 32.5841 5.41368 32.381 5.1607C32.2286 4.95832 32 4.78124 31.6953 4.62945C31.4413 4.47766 31.1619 4.37647 30.8572 4.32588C30.5524 4.27528 30.273 4.30058 30.0191 4.40177C29.7143 4.50296 29.4603 4.62945 29.2572 4.78124C29.0032 4.98362 28.8 5.23659 28.6476 5.54016C28.4953 5.79314 28.4191 6.07141 28.4191 6.37499C28.3683 6.67856 28.3937 6.95683 28.4953 7.20981C28.546 7.51338 28.673 7.76635 28.8762 7.96874C29.0794 8.22171 29.3079 8.42409 29.5619 8.57588ZM33.2953 11.6116L36.2667 5.99552L37.181 6.45088L37.4095 11.8393L36.9524 11.6116L41.6 8.80356L42.4381 9.25891L39.4667 14.875L38.4762 14.3437L40.6857 10.3214L40.8381 10.3973L36.9524 12.75L36.4953 12.4464L36.2667 7.96874L36.4953 8.04463L34.2857 12.1428L33.2953 11.6116ZM40.9905 15.7098L44.0381 10.0937L45.0286 10.625L42.0572 16.2411L40.9905 15.7098ZM43.581 17.0759L46.5524 11.4598L47.4667 11.9152L48.6857 18.1384L48.2286 17.9107L50.5143 13.5848L51.581 14.1161L48.5333 19.808L47.6953 19.2768L46.4762 13.1294L46.9333 13.3571L44.5714 17.683L43.581 17.0759ZM52.7238 22.0089C52.2667 21.7559 51.9111 21.4777 51.6572 21.1741C51.3524 20.8199 51.1238 20.4405 50.9714 20.0357C50.8699 19.6309 50.8191 19.2009 50.8191 18.7455C50.8699 18.3408 50.9968 17.936 51.2 17.5312C51.454 17.0759 51.7587 16.7217 52.1143 16.4687C52.4191 16.2158 52.7746 16.0134 53.181 15.8616C53.6381 15.7604 54.0699 15.7351 54.4762 15.7857C54.9333 15.8363 55.3905 15.9881 55.8476 16.2411C56.3048 16.494 56.6857 16.7976 56.9905 17.1518C57.2953 17.5059 57.4984 17.9107 57.6 18.3661L56.6095 18.6696C56.508 18.3155 56.3556 18.0119 56.1524 17.7589C55.9492 17.5565 55.6953 17.3542 55.3905 17.1518C55.0857 17 54.781 16.8988 54.4762 16.8482C54.1714 16.8482 53.8921 16.8735 53.6381 16.9241C53.3333 17.0253 53.0794 17.1771 52.8762 17.3794C52.6222 17.5312 52.4191 17.7589 52.2667 18.0625C52.1143 18.3661 52.0381 18.6443 52.0381 18.8973C51.9873 19.2009 52.0127 19.5045 52.1143 19.808C52.2159 20.061 52.3429 20.314 52.4953 20.567C52.6984 20.7693 52.9524 20.9464 53.2572 21.0982C53.5619 21.25 53.8667 21.3512 54.1714 21.4018C54.4762 21.4524 54.8064 21.4524 55.1619 21.4018L55.3143 22.4643C54.908 22.5655 54.4762 22.5655 54.0191 22.4643C53.5619 22.3631 53.1302 22.2113 52.7238 22.0089ZM55.3143 22.4643L54.4 21.7812L55.5429 19.7321L56.5333 20.2634L55.3143 22.4643ZM60.2667 26.0312C59.8095 25.7783 59.4286 25.4747 59.1238 25.1205C58.7683 24.7664 58.5397 24.4375 58.4381 24.1339L59.2 23.5268C59.3524 23.8303 59.5556 24.1339 59.8095 24.4375C60.0635 24.6905 60.3683 24.9181 60.7238 25.1205C61.0286 25.2723 61.2826 25.3735 61.4857 25.4241C61.7397 25.4747 61.9175 25.4494 62.0191 25.3482C62.1714 25.2976 62.2984 25.1964 62.4 25.0446C62.5016 24.8928 62.5016 24.7411 62.4 24.5893C62.3492 24.3869 62.2476 24.2098 62.0953 24.058C61.9429 23.9062 61.7397 23.7292 61.4857 23.5268C61.2826 23.3244 61.0794 23.1473 60.8762 22.9955C60.673 22.7931 60.5207 22.5655 60.4191 22.3125C60.2667 22.1101 60.1905 21.8824 60.1905 21.6295C60.1397 21.3765 60.1905 21.0982 60.3429 20.7946C60.546 20.4911 60.7746 20.2381 61.0286 20.0357C61.3333 19.8839 61.7143 19.8333 62.1714 19.8839C62.5778 19.8839 63.0349 20.0357 63.5429 20.3393C63.8984 20.4911 64.2032 20.6934 64.4572 20.9464C64.7619 21.25 64.9905 21.5283 65.1429 21.7812L64.381 22.4643C64.2286 22.1607 64.0254 21.9077 63.7714 21.7053C63.5683 21.503 63.3397 21.3259 63.0857 21.1741C62.781 21.0223 62.527 20.9211 62.3238 20.8705C62.1207 20.8705 61.9429 20.8958 61.7905 20.9464C61.6381 21.0476 61.5111 21.1488 61.4095 21.25C61.3587 21.4524 61.3587 21.6295 61.4095 21.7812C61.4603 21.933 61.5619 22.1101 61.7143 22.3125C61.9175 22.4643 62.1207 22.6414 62.3238 22.8437C62.527 22.9955 62.7302 23.1726 62.9333 23.375C63.1365 23.5774 63.3143 23.7797 63.4667 23.9821C63.5683 24.2351 63.6445 24.4881 63.6953 24.7411C63.6953 24.994 63.6191 25.2723 63.4667 25.5759C63.3143 25.8795 63.0857 26.1071 62.781 26.2589C62.4762 26.4107 62.1207 26.4866 61.7143 26.4866C61.2572 26.436 60.7746 26.2842 60.2667 26.0312ZM66.2095 29.1428C65.8032 28.9405 65.4476 28.6622 65.1429 28.308C64.8381 27.9539 64.6349 27.5744 64.5333 27.1696C64.381 26.7649 64.3302 26.3601 64.381 25.9553C64.381 25.5 64.508 25.0699 64.7619 24.6652C64.9651 24.2604 65.2445 23.9062 65.6 23.6027C65.9556 23.3497 66.3365 23.1726 66.7429 23.0714C67.1492 22.9702 67.581 22.9449 68.0381 22.9955C68.4953 23.0461 68.927 23.1726 69.3333 23.375C69.7905 23.628 70.146 23.9315 70.4 24.2857C70.7048 24.5893 70.9334 24.9434 71.0857 25.3482C71.2381 25.753 71.2889 26.183 71.2381 26.6384C71.1873 27.0431 71.0603 27.4732 70.8572 27.9286C70.6032 28.3333 70.3238 28.6622 70.0191 28.9152C69.6635 29.2187 69.2826 29.4211 68.8762 29.5223C68.4699 29.6235 68.0381 29.6488 67.581 29.5982C67.1238 29.5476 66.6667 29.3958 66.2095 29.1428ZM66.7429 28.2321C66.9968 28.3839 67.2762 28.4851 67.581 28.5357C67.8857 28.5863 68.1651 28.561 68.4191 28.4598C68.7238 28.3586 68.9778 28.2321 69.181 28.0803C69.4349 27.878 69.6381 27.625 69.7905 27.3214C69.9429 27.0178 70.0191 26.7396 70.0191 26.4866C70.0699 26.183 70.0445 25.9047 69.9429 25.6518C69.8921 25.3482 69.7651 25.0952 69.5619 24.8928C69.3587 24.6399 69.1302 24.4375 68.8762 24.2857C68.5714 24.1339 68.2667 24.058 67.9619 24.058C67.7079 24.0074 67.4286 24.0327 67.1238 24.1339C66.8699 24.1845 66.6159 24.311 66.3619 24.5134C66.1587 24.7158 65.981 24.9434 65.8286 25.1964C65.6762 25.5 65.5746 25.8036 65.5238 26.1071C65.5238 26.4107 65.5492 26.689 65.6 26.942C65.7016 27.1949 65.8286 27.4479 65.981 27.7009C66.1841 27.9033 66.4381 28.0803 66.7429 28.2321ZM73.0667 32.7857C72.6095 32.5327 72.2286 32.2545 71.9238 31.9509C71.6191 31.5967 71.4159 31.2172 71.3143 30.8125C71.1619 30.4077 71.1111 29.9777 71.1619 29.5223C71.1619 29.1175 71.2889 28.7128 71.5429 28.308C71.746 27.8527 72.0254 27.4985 72.381 27.2455C72.7365 26.9925 73.1175 26.7902 73.5238 26.6384C73.9302 26.5372 74.3619 26.5119 74.8191 26.5625C75.2762 26.6131 75.708 26.7649 76.1143 27.0178C76.5714 27.2202 76.9524 27.4985 77.2572 27.8527C77.5111 28.2068 77.7143 28.5863 77.8667 28.9911C78.0191 29.3958 78.0699 29.8259 78.0191 30.2812C77.9683 30.686 77.8413 31.0908 77.6381 31.4955C77.3841 31.9003 77.1048 32.2545 76.8 32.558C76.4445 32.811 76.0635 32.9881 75.6572 33.0893C75.2508 33.2411 74.8191 33.2917 74.3619 33.2411C73.9048 33.1905 73.473 33.0387 73.0667 32.7857ZM73.5238 31.875C73.7778 32.0268 74.0572 32.128 74.3619 32.1786C74.6667 32.1786 74.946 32.1533 75.2 32.1027C75.5048 32.0015 75.7587 31.8497 75.9619 31.6473C76.2159 31.4955 76.4191 31.2678 76.5714 30.9643C76.7238 30.6607 76.8 30.3571 76.8 30.0536C76.8508 29.8006 76.8254 29.5223 76.7238 29.2187C76.673 28.9658 76.546 28.7128 76.3429 28.4598C76.1397 28.2574 75.9111 28.0803 75.6572 27.9286C75.3524 27.7768 75.0476 27.6756 74.7429 27.625C74.4889 27.625 74.2095 27.6503 73.9048 27.7009C73.6508 27.8021 73.3968 27.9539 73.1429 28.1562C72.9397 28.308 72.7619 28.5357 72.6095 28.8393C72.4572 29.1428 72.3556 29.4211 72.3048 29.6741C72.3048 29.9777 72.3302 30.2812 72.381 30.5848C72.4826 30.8378 72.6349 31.0655 72.8381 31.2678C72.9905 31.5208 73.2191 31.7232 73.5238 31.875ZM77.181 34.9107L80.2286 29.2946L81.0667 29.75L82.2857 35.9732L81.9048 35.7455L84.1905 31.4196L85.2572 31.9509L82.2095 37.567L81.3714 37.1116L80.1524 30.8884L80.6095 31.1161L78.2476 35.442L77.181 34.9107Z" fill="#012839"/>
<path d="M15.4667 1.06248L14.1714 -0.910731L14.019 -0.60716H16.3809L16.3048 -1.82145L14.019 -1.74555L14.1714 -1.51787L15.2381 -3.4152L14.1714 -4.02234L13.1809 -2.04912H13.4095L12.1905 -4.02234L11.2 -3.3393L12.4952 -1.44198L12.6476 -1.66966H10.2857V-0.455374L12.5714 -0.531267L12.4952 -0.758946L11.4286 1.13838L12.419 1.66963L13.4857 -0.227696H13.2571L14.4 1.74552L15.4667 1.06248Z" fill="#012839"/>
</g>
<defs>
<clipPath id="clip0_71_2">
<rect width="160" height="85" fill="white"/>
</clipPath>
</defs>
</svg>
