<svg width="30" height="23" viewBox="0 0 30 23" fill="none" xmlns="http://www.w3.org/2000/svg">
<path d="M29.2447 4.6972H10.2451C9.83836 4.6972 9.48975 4.34858 9.48975 3.94186C9.48975 3.53514 9.83836 3.18652 10.2451 3.18652H29.2447C29.6514 3.18652 30.0001 3.53514 30.0001 3.94186C30.0001 4.34858 29.6514 4.6972 29.2447 4.6972Z" fill="#022A3A"/>
<path d="M4.31844 4.6972H1.35519C0.948471 4.6972 0.599854 4.34858 0.599854 3.94186C0.599854 3.53514 0.948471 3.18652 1.35519 3.18652H4.31844C4.72516 3.18652 5.07377 3.53514 5.07377 3.94186C5.07377 4.34858 4.78326 4.6972 4.31844 4.6972Z" fill="#022A3A"/>
<path d="M29.2446 11.8437H24.2478C23.8411 11.8437 23.4924 11.4951 23.4924 11.0883C23.4924 10.6816 23.8411 10.333 24.2478 10.333H29.2446C29.6513 10.333 30 10.6816 30 11.0883C30 11.4951 29.6513 11.8437 29.2446 11.8437Z" fill="#022A3A"/>
<path d="M18.3212 11.8437H1.35519C0.948471 11.8437 0.599854 11.4951 0.599854 11.0883C0.599854 10.6816 0.948471 10.333 1.35519 10.333H18.3212C18.7279 10.333 19.0766 10.6816 19.0766 11.0883C19.0766 11.4951 18.7279 11.8437 18.3212 11.8437Z" fill="#022A3A"/>
<path d="M29.2447 19.0488H10.2451C9.83836 19.0488 9.48975 18.7001 9.48975 18.2934C9.48975 17.8867 9.83836 17.5381 10.2451 17.5381H29.2447C29.6514 17.5381 30.0001 17.8867 30.0001 18.2934C30.0001 18.7001 29.6514 19.0488 29.2447 19.0488Z" fill="#022A3A"/>
<path d="M4.31844 19.0492H1.35519C0.948471 19.0492 0.599854 18.7006 0.599854 18.2939C0.599854 17.8291 0.948471 17.4805 1.35519 17.4805H4.31844C4.72516 17.4805 5.07377 17.8291 5.07377 18.2358C5.13188 18.7006 4.78326 19.0492 4.31844 19.0492Z" fill="#022A3A"/>
<path d="M7.28182 7.65982C5.24822 7.65982 3.56323 5.97484 3.56323 3.94124C3.56323 1.90764 5.24822 0.222656 7.28182 0.222656C9.31542 0.222656 11.0004 1.90764 11.0004 3.94124C11.0004 5.97484 9.37352 7.65982 7.28182 7.65982ZM7.28182 1.73333C6.06166 1.73333 5.07391 2.72108 5.07391 3.94124C5.07391 5.1614 6.06166 6.14915 7.28182 6.14915C8.50198 6.14915 9.48972 5.1614 9.48972 3.94124C9.48972 2.72108 8.50198 1.73333 7.28182 1.73333Z" fill="#022A3A"/>
<path d="M21.2845 14.8073C19.2509 14.8073 17.5659 13.1223 17.5659 11.0887C17.5659 9.0551 19.2509 7.37012 21.2845 7.37012C23.3181 7.37012 25.0031 9.0551 25.0031 11.0887C25.0031 13.1223 23.3762 14.8073 21.2845 14.8073ZM21.2845 8.88079C20.0643 8.88079 19.0766 9.86854 19.0766 11.0887C19.0766 12.3089 20.0643 13.2966 21.2845 13.2966C22.5047 13.2966 23.4924 12.3089 23.4924 11.0887C23.4924 9.86854 22.5047 8.88079 21.2845 8.88079Z" fill="#022A3A"/>
<path d="M7.28182 22.0114C5.24822 22.0114 3.56323 20.3264 3.56323 18.2928C3.56323 16.2011 5.24822 14.5742 7.28182 14.5742C9.31542 14.5742 11.0004 16.2592 11.0004 18.2928C11.0585 20.3264 9.37352 22.0114 7.28182 22.0114ZM7.28182 16.0849C6.06166 16.0849 5.07391 17.0726 5.07391 18.2928C5.07391 19.513 6.06166 20.5007 7.28182 20.5007C8.50198 20.5007 9.48972 19.513 9.48972 18.2928C9.48972 17.0726 8.50198 16.0849 7.28182 16.0849Z" fill="#022A3A"/>
</svg>
