<svg width="30" height="17" viewBox="0 0 30 17" fill="none" xmlns="http://www.w3.org/2000/svg">
<g clip-path="url(#clip0_3523_830)">
<path d="M0 0H30V17H0V0Z" fill="#006C35"/>
<path fill-rule="evenodd" clip-rule="evenodd" d="M12.9306 4.01466C12.9151 4.01429 12.8919 4.02163 12.8594 4.03805C12.7862 4.0797 12.6413 4.20805 12.6368 4.35572C12.6324 4.43902 12.6139 4.43871 12.6781 4.49172C12.7245 4.54853 12.7708 4.54295 12.8644 4.5013C12.9181 4.46764 12.9362 4.44616 12.9544 4.38972C12.9766 4.29506 12.8372 4.43453 12.8194 4.3292C12.7882 4.23138 12.8772 4.19116 12.9618 4.09647C12.9638 4.05193 12.9647 4.01555 12.9306 4.01466ZM14.2931 4.02105C14.267 4.02401 14.235 4.0525 14.1906 4.12091C14.1588 4.19258 14.0216 4.30101 14.1206 4.52466C14.2016 4.66644 14.2348 4.89693 14.1981 5.15366C14.142 5.22663 14.1292 5.25175 14.0556 5.32472C13.9522 5.41924 13.8402 5.39506 13.7544 5.35977C13.674 5.3138 13.611 5.29021 13.5744 5.14411C13.581 4.91121 13.5969 4.53007 13.5468 4.44922C13.473 4.32396 13.3513 4.36887 13.2993 4.40672C13.0494 4.60092 12.926 4.92885 12.8506 5.18974C12.7813 5.37993 12.7074 5.32492 12.6556 5.24822C12.5293 5.14764 12.5205 4.36136 12.3681 4.49063C12.124 5.08359 12.5082 5.73316 12.7743 5.67002C12.9663 5.73761 13.0882 5.42692 13.1668 5.08672C13.2206 4.99124 13.2617 4.9803 13.2893 5.02936C13.2822 5.48176 13.3275 5.58267 13.4643 5.71997C13.7695 5.92012 14.022 5.74533 14.0418 5.72847L14.2793 5.52657C14.3322 5.47931 14.4021 5.47642 14.4768 5.51807C14.5494 5.57417 14.5401 5.67084 14.6956 5.73805C14.8264 5.78253 15.1058 5.74883 15.1706 5.65305C15.2578 5.526 15.2789 5.48234 15.3193 5.43416C15.3816 5.36371 15.4881 5.39493 15.4881 5.41716C15.4782 5.45643 15.4156 5.49516 15.4581 5.56591C15.5321 5.6131 15.5493 5.58278 15.5931 5.57227C15.748 5.50937 15.8643 5.22377 15.8643 5.22377C15.8712 5.11728 15.7999 5.12534 15.7543 5.14727C15.6949 5.17814 15.6913 5.18865 15.6318 5.21952C15.5561 5.22907 15.4094 5.27154 15.3368 5.17597C15.2627 5.06105 15.2623 4.90087 15.2056 4.78497C15.2056 4.77653 15.1065 4.60273 15.1981 4.59161C15.2443 4.59888 15.3437 4.62071 15.3593 4.55013C15.4078 4.48138 15.2548 4.28629 15.1506 4.18786C15.0602 4.10347 14.9353 4.0932 14.8143 4.17936C14.7296 4.24559 14.7422 4.31957 14.7256 4.38972C14.704 4.4703 14.7081 4.57009 14.8043 4.67661C14.8889 4.81832 15.0425 5.00012 14.9918 5.25672C14.9918 5.25672 14.9026 5.37881 14.7456 5.36297C14.6802 5.35083 14.5735 5.32676 14.5168 4.97091C14.4739 4.70153 14.5276 4.32416 14.3931 4.14743C14.3627 4.08079 14.3367 4.01606 14.2931 4.02105ZM13.8619 4.04961C13.8212 4.05261 13.7761 4.0929 13.7394 4.17072C13.7078 4.22988 13.6694 4.53942 13.6756 4.53942C13.6504 4.63156 13.7888 4.67056 13.8519 4.55217C13.9464 4.33511 13.9468 4.24263 13.9531 4.15056C13.9384 4.08042 13.9026 4.04659 13.8619 4.04961ZM15.4544 4.07403C15.4126 4.07726 15.3793 4.09806 15.3668 4.15053C15.3502 4.27395 15.3587 4.34103 15.3831 4.44378C15.4018 4.51229 15.5191 4.627 15.5769 4.69347C15.8527 5.00865 16.1181 5.32529 16.3744 5.65292C16.4141 5.89135 16.4437 6.13092 16.4631 6.37117C16.5047 6.89082 16.5173 7.53771 16.4794 8.08497C16.5939 8.08881 16.7774 7.92776 16.8419 7.69186C16.8838 7.36553 16.827 6.69974 16.8231 6.50717C16.8204 6.42723 16.8146 6.33183 16.8081 6.23197C17.1207 6.66608 17.4114 7.11131 17.6794 7.56647C17.7829 7.52465 17.76 7.02934 17.6994 6.95978C17.4722 6.54406 17.1582 6.13371 17.0582 5.97588C17.022 5.9189 16.899 5.75985 16.7532 5.57638C16.7264 5.31465 16.6972 5.09294 16.6782 5.02599C16.6313 4.7493 16.812 5.0572 16.787 4.89638C16.7283 4.62007 16.5489 4.43228 16.337 4.17919C16.2686 4.09687 16.2699 4.08008 16.1644 4.19938C16.1014 4.32097 16.1022 4.42215 16.1207 4.51705C16.0859 4.47381 16.0488 4.43198 16.0094 4.39169C15.8264 4.2582 15.8151 4.25093 15.6632 4.14199C15.6153 4.11309 15.5241 4.06862 15.4544 4.07399L15.4544 4.07403ZM20.1744 4.11551C20.154 4.11279 20.1318 4.12129 20.1068 4.15267C20.0591 4.18823 20.0078 4.25263 20.0094 4.33542C20.021 4.48124 20.0515 4.63054 20.0631 4.77636C20.0672 4.79588 20.0715 4.81529 20.0756 4.83481C20.0619 4.81967 20.0473 4.80512 20.0319 4.79122C19.6975 4.49263 20.1855 4.74243 19.9681 4.51181C19.7843 4.34021 19.7305 4.28561 19.5731 4.18242C19.4942 4.13907 19.4465 4.05624 19.4206 4.19731C19.4103 4.32121 19.3996 4.46472 19.4094 4.5692C19.4088 4.62724 19.4795 4.73652 19.5406 4.80081C19.7727 5.04365 19.9994 5.29019 20.2206 5.54031C20.2688 6.06785 20.2817 6.55147 20.3306 7.07986C20.3237 7.30586 20.2419 7.60605 20.1644 7.63447C20.1644 7.63447 20.046 7.69227 19.9668 7.62811C19.9093 7.60846 19.6794 7.30192 19.6794 7.30192C19.5616 7.21019 19.4831 7.2364 19.3994 7.30192C19.1683 7.49154 19.0638 7.8467 18.9069 8.09136C18.8664 8.14593 18.7524 8.19241 18.6256 8.08711C18.3037 7.71325 18.492 7.18108 18.4519 7.31786C18.1651 7.59252 18.2921 8.04767 18.3569 8.14556C18.4514 8.30631 18.5279 8.40923 18.7119 8.48876C18.8794 8.59358 19.0099 8.52816 19.0819 8.45476C19.2505 8.30621 19.2527 7.9264 19.3319 7.85126C19.3874 7.71322 19.5265 7.73695 19.5944 7.79811C19.6601 7.87849 19.7378 7.93078 19.8344 7.97451C19.9916 8.09242 20.1794 8.11384 20.3644 8.00636C20.4908 7.94608 20.5728 7.86775 20.6469 7.71311C20.7263 7.53257 20.687 6.58629 20.6694 6.05986C20.7882 6.20209 20.9054 6.3474 21.0219 6.49442C21.073 6.95651 21.0962 7.4116 21.0794 7.84803C21.0674 7.93479 21.4356 7.58895 21.4331 7.42513C21.4315 7.28182 21.4334 7.15191 21.4331 7.03094C21.6118 7.27336 21.7847 7.51986 21.9481 7.76942C22.0494 7.72379 22.0147 7.23633 21.9506 7.16908C21.7795 6.92503 21.5604 6.66126 21.3906 6.45719C21.3571 6.19964 21.3114 5.89578 21.2906 5.80269C21.2582 5.65751 21.2258 5.43947 21.1769 5.26719C21.1634 5.19994 21.1229 4.98506 21.1356 4.96438C21.1556 4.91631 21.231 4.96591 21.2681 4.91019C21.3237 4.85868 21.0754 4.31186 20.9494 4.1558C20.9041 4.08586 20.8221 4.11007 20.7206 4.2238C20.6265 4.29866 20.661 4.46941 20.6969 4.6318C20.7902 5.04571 20.8735 5.46724 20.9394 5.88769C20.8016 5.71337 20.6624 5.53983 20.5218 5.36708C20.5179 5.34974 20.5031 5.28616 20.5031 5.28528C20.5031 5.27783 20.4829 4.94667 20.4656 4.86776C20.4626 4.83569 20.4536 4.82645 20.4931 4.83053C20.535 4.86048 20.5407 4.86211 20.5668 4.87201C20.6092 4.87857 20.6461 4.81778 20.6206 4.76151C20.4898 4.55638 20.3589 4.35034 20.2281 4.14522C20.2124 4.13206 20.1947 4.11819 20.1744 4.11551ZM7.99316 4.12611C7.92068 4.12435 7.84068 4.16253 7.87192 4.23661C7.85372 4.27697 8.0138 4.41341 8.04192 4.48842C8.06712 4.5418 8.01692 4.71374 8.0694 4.72961C8.11768 4.7474 8.18412 4.61058 8.2094 4.48413C8.2234 4.41491 8.2128 4.1779 8.02316 4.12928C8.01331 4.12738 8.00326 4.12635 7.99316 4.12611ZM21.8696 4.12747C21.853 4.12883 21.8329 4.15155 21.8021 4.20714C21.7279 4.31043 21.7024 4.49539 21.7321 4.65869C21.9107 5.68559 22.0434 6.67999 22.0708 7.59017C22.0554 7.67653 22.051 7.7225 22.0033 7.83133C21.8979 7.94622 21.7816 8.09021 21.6721 8.15964C21.5626 8.22903 21.3295 8.29519 21.2533 8.34664C21.0116 8.46543 21.0104 8.60201 21.2058 8.60697C21.5426 8.57372 21.9412 8.55023 22.2158 8.19792C22.2893 8.09918 22.3758 7.83154 22.3796 7.66772C22.4052 6.70733 22.3651 5.76828 22.1958 5.07417C22.185 5.00651 22.1498 4.85113 22.1633 4.83083C22.1851 4.7833 22.2953 4.83559 22.3345 4.78092C22.3921 4.73094 22.0495 4.3581 21.9296 4.19867C21.9056 4.15862 21.8908 4.12567 21.8696 4.12747ZM18.3371 4.14339C18.3232 4.14543 18.3026 4.16345 18.2646 4.20608C18.1705 4.46761 18.1374 4.68116 18.1733 4.84358C18.415 5.91574 18.6627 6.89252 18.6233 7.91314C18.738 7.91382 18.8705 7.69027 18.9271 7.46903C18.9581 7.16429 18.9064 6.97878 18.8971 6.79964C18.8878 6.62052 18.6585 5.16716 18.6121 5.03164C18.5561 4.77538 18.835 4.99794 18.8046 4.84889C18.7082 4.661 18.4674 4.38737 18.3921 4.22414C18.3638 4.18041 18.3603 4.13999 18.3371 4.14339H18.3371ZM9.73588 4.16358C9.70616 4.16797 9.67748 4.18874 9.66712 4.22308C9.6606 4.24556 9.67856 4.28296 9.65464 4.29428C9.64088 4.30608 9.58872 4.29815 9.59088 4.23583C9.59088 4.21598 9.57372 4.19527 9.56336 4.18272C9.55296 4.17694 9.54596 4.17524 9.52712 4.17524C9.5042 4.17606 9.50472 4.18119 9.49212 4.19758C9.48652 4.21424 9.47932 4.23056 9.47932 4.2496C9.47648 4.27177 9.466 4.27928 9.44684 4.28255C9.42536 4.28255 9.43044 4.28452 9.41308 4.2751C9.40276 4.26551 9.39056 4.26174 9.39056 4.24535C9.39056 4.22839 9.38536 4.20132 9.37936 4.1901C9.3702 4.1799 9.3558 4.17456 9.33936 4.17099C9.24944 4.17127 9.24292 4.25905 9.24808 4.2921C9.24136 4.29832 9.238 4.45394 9.36056 4.49716C9.52512 4.56386 9.83364 4.53564 9.82056 4.31016C9.82056 4.29023 9.8154 4.22325 9.81308 4.20496C9.79628 4.17174 9.76528 4.15916 9.73556 4.16355L9.73588 4.16358ZM11.9434 4.16572C11.891 4.16817 11.8399 4.18011 11.7934 4.20074C11.6844 4.28952 11.6588 4.43181 11.7446 4.52058C11.8282 4.55414 11.9116 4.62564 11.8559 4.66508C11.6196 4.87966 11.0044 5.23822 10.9734 5.30364C10.9732 5.30418 10.9723 5.30527 10.9722 5.30574C10.9721 5.30622 10.9722 5.30744 10.9722 5.30789C10.9722 5.30809 10.9721 5.30877 10.9722 5.30894C10.9725 5.30969 10.9729 5.31041 10.9734 5.31108C10.9736 5.31122 10.9745 5.312 10.9747 5.3121C10.9749 5.31224 10.9757 5.31203 10.9759 5.3121C10.9762 5.31224 10.9769 5.31312 10.9772 5.31319C10.9774 5.31326 10.9781 5.31312 10.9784 5.31319L10.9796 5.31424C11.0109 5.33206 11.3958 5.33165 11.4384 5.3153C11.4387 5.31516 11.4394 5.31438 11.4396 5.31428C11.4398 5.31418 11.4408 5.31431 11.4409 5.31428C11.441 5.31418 11.4408 5.31326 11.4409 5.31319C11.5732 5.27174 12.2009 4.66189 12.2009 4.66189C12.1684 4.63822 12.1384 4.62075 12.1059 4.59708C12.0711 4.57145 12.0746 4.54625 12.1059 4.52058C12.2614 4.44367 12.2121 4.27449 12.1309 4.19758C12.0636 4.17191 12.0003 4.16328 11.9434 4.16572ZM17.7134 4.16783C17.6969 4.16923 17.6768 4.19085 17.6459 4.24647C17.5717 4.34973 17.5213 4.52963 17.5271 4.69799C17.6878 5.6437 17.7371 6.47126 17.8422 7.41697C17.8507 7.50843 17.8349 7.64131 17.7634 7.69428C17.4988 7.92908 17.1174 8.21869 16.7022 8.35197C16.6575 8.39461 16.8132 8.57634 17.0146 8.57617C17.3515 8.54292 17.6476 8.3822 17.9222 7.95887C17.9956 7.86013 18.1246 7.64879 18.1284 7.48497C18.1541 6.52458 18.0715 5.77783 17.9022 5.08372C17.8914 5.0161 17.8987 4.93613 17.9122 4.91583C17.934 4.8937 18.008 4.91634 18.0472 4.86164C18.1048 4.81166 17.8934 4.39737 17.7734 4.23794C17.7494 4.19792 17.7346 4.16603 17.7134 4.16783H17.7134ZM8.7746 4.19673C8.72812 4.20136 8.68436 4.23352 8.66336 4.27643C8.65556 4.4281 8.65456 4.57971 8.6746 4.71945C8.7558 4.96466 8.78148 5.18028 8.82084 5.43137C8.83176 5.76763 8.5924 5.57683 8.60336 5.41012C8.65864 5.19354 8.64372 4.85266 8.5946 4.76623C8.55564 4.67984 8.51056 4.65852 8.41584 4.67273C8.34064 4.66882 8.1464 4.84872 8.09208 5.14662C8.09208 5.14662 8.04688 5.29949 8.02708 5.43562C8.00052 5.58944 7.88064 5.69841 7.79708 5.41437C7.72488 5.20793 7.68052 4.69929 7.5596 4.81832C7.52496 5.21544 7.48384 5.91431 7.88084 5.98602C8.36104 6.02525 8.0958 5.29602 8.2696 5.16362C8.30244 5.09821 8.36336 5.09702 8.36836 5.17957V5.79902C8.36396 6.00036 8.51984 6.0602 8.64084 6.10182C8.76676 6.09356 8.85024 6.09648 8.8996 6.20062C8.91928 6.55769 8.93992 6.91564 8.9596 7.27268C8.9596 7.27268 9.25068 7.34377 9.2646 6.67023C9.27856 6.27474 9.17196 5.94287 9.2346 5.86593C9.2368 5.79035 9.35084 5.78661 9.4296 5.82343C9.55512 5.89867 9.6108 5.99129 9.80584 5.95412C10.1026 5.88463 10.2814 5.76216 10.2858 5.56843C10.2685 5.38432 10.2434 5.20004 10.1496 5.01593C10.1627 4.98244 10.0928 4.89533 10.1058 4.86187C10.1592 4.93287 10.2399 4.92698 10.2584 4.86187C10.2078 4.72037 10.1292 4.58477 10.0021 4.52612C9.89708 4.44745 9.7434 4.46411 9.68712 4.62812C9.661 4.8171 9.76768 5.04112 9.9296 5.22414C9.964 5.29568 10.0121 5.41465 9.99084 5.52164C9.90468 5.56346 9.81924 5.54606 9.74708 5.48129C9.74708 5.48129 9.51084 5.33097 9.51084 5.29748C9.57356 4.95629 9.52436 4.91723 9.4896 4.8225C9.46532 4.69184 9.39244 4.65046 9.33336 4.56114C9.27424 4.5079 9.19408 4.5079 9.15584 4.56114C9.05144 4.71503 9.1004 5.04537 9.17584 5.19334C9.23036 5.32944 9.31396 5.41434 9.27464 5.41434C9.2422 5.49125 9.1746 5.47336 9.12584 5.38459C9.05624 5.20116 9.04208 4.92773 9.04208 4.80448C9.0212 4.65169 8.99792 4.32525 8.8796 4.24246C8.848 4.20588 8.81076 4.19313 8.7746 4.19673ZM10.4608 4.19887C10.437 4.20142 10.4107 4.21295 10.3796 4.21904C10.2775 4.24668 10.1819 4.32168 10.2121 4.46768C10.3328 5.09097 10.4114 5.56666 10.5321 6.18998C10.5506 6.26298 10.4786 6.3592 10.3858 6.34934C10.228 6.25859 10.1889 6.07482 9.9196 6.08268C9.72468 6.08465 9.5024 6.26495 9.4746 6.43862C9.44212 6.57663 9.43052 6.72626 9.4746 6.84662C9.6116 6.98664 9.77572 6.97171 9.9196 6.94012C10.0379 6.89871 10.1353 6.7996 10.1771 6.82323C10.1772 6.82333 10.1782 6.8231 10.1783 6.82323C10.1785 6.82337 10.1782 6.82415 10.1783 6.82429C10.2042 6.86264 10.1759 7.18683 9.62084 7.43734C9.27972 7.56756 9.0082 7.59864 8.86204 7.36189C8.77156 7.21399 8.86864 6.65048 8.64584 6.7807C7.98684 8.22458 10.1898 8.42613 10.4358 6.8402C10.4518 6.79549 10.5003 6.75057 10.5346 6.76159C10.5496 6.76703 10.5634 6.78437 10.5683 6.81684C10.5172 8.25283 8.86408 8.35126 8.58332 7.89954C8.51372 7.79305 8.4928 7.55603 8.48584 7.41398C8.47308 7.32803 8.44772 7.27849 8.41832 7.25884C8.35136 7.21607 8.26132 7.32762 8.24208 7.52132C8.2142 7.67711 8.22208 7.71988 8.22208 7.86982C8.31024 9.00399 10.4376 8.51667 10.7833 7.57973C10.9545 7.09537 10.7798 6.72997 10.8371 6.68512C10.8376 6.68478 10.8391 6.68438 10.8396 6.68407L10.8421 6.68302C10.8427 6.68281 10.8439 6.6821 10.8446 6.68193C10.847 6.68136 10.8495 6.68102 10.8521 6.68091C11.0633 6.87423 11.3596 6.70546 11.4246 6.63841C11.4524 6.60482 11.5221 6.58333 11.5708 6.62668C11.7355 6.72732 12.0243 6.67989 12.0846 6.50237C12.1194 6.3288 12.1488 6.15013 12.1558 5.96477C12.0485 5.99309 11.9619 6.0143 11.927 6.04552C11.9188 6.05323 11.9126 6.06177 11.9108 6.07102C11.9015 6.12236 11.8926 6.1738 11.8833 6.22507C11.8823 6.22932 11.8807 6.23323 11.8783 6.23677C11.8732 6.24336 11.8664 6.24883 11.8583 6.25271C11.8204 6.27032 11.7542 6.26026 11.7508 6.21341C11.6998 6.01614 11.4897 5.99047 11.362 6.29627C11.2762 6.35543 11.1196 6.36699 11.1033 6.27821C11.1242 6.07306 11.0269 6.04555 10.832 6.14221C10.7694 5.73588 10.7072 5.34794 10.6446 4.9416C10.7258 4.9396 10.8003 4.98968 10.8746 4.9108C10.7942 4.69833 10.6242 4.26606 10.5283 4.2255C10.5275 4.22516 10.5266 4.22468 10.5258 4.22444C10.5198 4.21852 10.5131 4.21316 10.5058 4.20846C10.504 4.20744 10.5013 4.20615 10.4996 4.2053C10.4956 4.20354 10.4914 4.20212 10.487 4.20105C10.4786 4.19882 10.4696 4.1981 10.4608 4.19894L10.4608 4.19887ZM17.0344 4.20204C16.9501 4.19993 16.8568 4.24508 16.8932 4.33484C16.872 4.3838 17.0743 4.54992 17.107 4.64084C17.1656 4.78055 17.0621 4.91379 17.1232 4.93304C17.1794 4.95459 17.2576 4.78884 17.287 4.63554C17.3208 4.51164 17.2168 4.25766 17.0694 4.20523C17.0579 4.20318 17.0462 4.20209 17.0344 4.20204ZM11.9132 4.35504C11.9516 4.3517 11.998 4.38169 12.0208 4.42409C12.045 4.46931 12.0328 4.51256 11.9932 4.52079C11.9536 4.52905 11.9024 4.49909 11.8782 4.45384C11.854 4.40862 11.8662 4.36435 11.9058 4.35609C11.9082 4.35558 11.9107 4.35527 11.9132 4.35507V4.35504ZM21.4132 4.56434C21.3364 4.56206 21.2526 4.61167 21.2858 4.70884C21.2665 4.76188 21.4498 4.94194 21.4795 5.04034C21.5062 5.11038 21.4388 5.33614 21.4945 5.35698C21.5457 5.38031 21.6178 5.20102 21.6445 5.03504C21.6593 4.94419 21.5801 4.62537 21.4458 4.56859C21.4352 4.5661 21.4242 4.56467 21.4132 4.56434ZM16.1608 4.67484C16.1679 4.7015 16.1749 4.72832 16.1796 4.75559C16.1954 4.81448 16.2089 4.87296 16.2234 4.93093C16.1627 4.8599 16.1124 4.80251 16.0908 4.78218C15.9536 4.64346 16.0939 4.69109 16.1608 4.67484ZM17.3708 5.18059C17.3411 5.18501 17.3124 5.20684 17.3021 5.24118C17.2956 5.26362 17.3148 5.3 17.2908 5.31129C17.2771 5.32308 17.2236 5.31622 17.2258 5.25393C17.2258 5.23407 17.2087 5.21231 17.1983 5.19973C17.1879 5.19395 17.1809 5.19229 17.1621 5.19229C17.1392 5.19307 17.1397 5.19824 17.1271 5.21459C17.1218 5.23128 17.1146 5.24774 17.1146 5.26668C17.1117 5.28885 17.1025 5.29636 17.0833 5.29959C17.0619 5.29959 17.0657 5.3016 17.0483 5.29218C17.038 5.28256 17.0258 5.27878 17.0258 5.26243C17.0258 5.24543 17.0206 5.21836 17.0146 5.20718C17.0055 5.19698 16.9911 5.19269 16.9746 5.18909C16.8847 5.18936 16.8794 5.2761 16.8846 5.30918C16.8778 5.3154 16.8733 5.47204 16.9958 5.51529C17.1604 5.58196 17.4702 5.55272 17.4571 5.32723C17.4571 5.30727 17.4507 5.24029 17.4483 5.22204C17.4315 5.18878 17.4005 5.17624 17.3708 5.18059ZM11.846 5.22734C11.8258 5.22561 11.7992 5.23193 11.7686 5.24754C11.623 5.31445 11.5667 5.51287 11.6573 5.62902C11.7419 5.73125 11.8757 5.69379 11.8936 5.69379C12.0361 5.70895 12.121 5.46643 12.121 5.46643C12.121 5.46643 12.1253 5.39822 11.956 5.52698C11.8848 5.53834 11.8751 5.51644 11.8573 5.48237C11.8425 5.41927 11.8456 5.35532 11.8798 5.29218C11.8956 5.25434 11.8799 5.23026 11.846 5.22734ZM19.656 5.25818C19.5752 5.25485 19.4893 5.29932 19.4673 5.39312C19.4676 5.44844 19.4967 5.47887 19.491 5.52912C19.4826 5.55782 19.4478 5.57672 19.3648 5.54293C19.3778 5.53276 19.311 5.45262 19.311 5.45262C19.2463 5.4191 19.1598 5.45443 19.1035 5.48554C19.0726 5.53337 19.0497 5.61542 19.0848 5.69909C19.1777 5.84505 19.4965 6.0941 19.6486 6.09648C19.6514 5.9649 19.6664 5.7899 19.6748 5.68104C19.6784 5.63996 19.6897 5.59468 19.736 5.58437C19.7823 5.57407 19.8626 5.62395 19.8636 5.58118C19.8551 5.49747 19.8354 5.37391 19.7798 5.31554C19.7513 5.27967 19.7045 5.26018 19.656 5.25818ZM13.1912 5.71612C13.1891 5.7168 13.187 5.71833 13.185 5.71929C13.184 5.7198 13.1822 5.72082 13.1812 5.72143C13.1652 5.7317 13.1462 5.75539 13.1038 5.78093C13.0322 5.85012 13.0194 5.8983 13.0238 6.03698C13.0278 6.05167 13.1596 6.36311 13.2712 6.58204C13.3465 6.8096 13.4162 7.07014 13.365 7.31623C13.1888 7.64158 12.8345 7.93333 12.4925 8.09184C12.3183 8.13927 12.1678 8.12312 12.1275 8.09079L12.1263 8.08973C12.0262 8.03254 12.0239 7.93075 12.03 7.91334V7.91229L12.0313 7.91123C12.3198 7.74038 12.6494 7.6021 12.9075 7.14093C12.9837 6.96467 13.007 6.85883 12.9312 6.58632C12.9017 6.48476 12.8653 6.40119 12.7838 6.32918L12.785 6.32816C12.8341 6.30817 12.9616 6.38796 12.9812 6.33768C12.9511 6.20756 12.8474 6.03287 12.73 5.94348C12.6272 5.86413 12.5154 5.85495 12.4212 5.92757C12.3152 5.97769 12.2927 6.15775 12.3438 6.31537C12.4004 6.43403 12.5535 6.45481 12.6625 6.69362V6.69464C12.6648 6.70964 12.6999 6.87291 12.645 6.93904C12.6004 7.05715 12.028 7.44088 11.9875 7.46393C11.987 7.4643 11.9842 7.4657 11.9837 7.46607L11.9825 7.46712C11.9824 7.46719 11.9815 7.46794 11.9812 7.46818L11.98 7.46923H11.9775C11.9771 7.4689 11.9767 7.46856 11.9763 7.46821V7.46712C11.976 7.46678 11.9752 7.46539 11.975 7.46498C11.9733 7.45543 11.9763 7.43102 11.975 7.39168C11.9712 7.3198 12.0062 7.15715 12.0038 7.12923V7.12821L12.0025 7.12712V7.12607H12.0012C11.812 7.22991 11.7496 7.54821 11.715 7.64246C11.236 7.92378 10.692 8.13308 10.3788 8.41807C10.2156 8.63465 11.5029 8.16936 11.6525 8.11312C11.6538 8.11394 11.6551 8.11527 11.6563 8.11632C11.6847 8.14291 11.6871 8.23566 11.7725 8.31927C11.9063 8.47332 12.1908 8.56821 12.4675 8.50943C12.9316 8.36683 13.199 8.09796 13.4713 7.79968C13.5102 7.75157 13.5712 7.71366 13.6275 7.75082C13.8146 8.1068 14.354 8.3601 15.0513 8.38621C15.2126 8.21941 15.1355 8.1374 15.07 8.10252C15.0499 8.09113 14.7232 7.9829 14.6725 7.87516C14.6406 7.77486 14.7182 7.68595 14.8738 7.61907C15.3215 7.57307 15.7616 7.52193 16.1876 7.40555C16.1919 7.2839 16.2762 7.102 16.3326 7.02305C16.3717 6.96821 16.3969 6.9628 16.4063 6.95505L16.4076 6.95396C16.4077 6.95383 16.4087 6.95304 16.4088 6.95291C16.409 6.95274 16.4098 6.95202 16.41 6.95185V6.94971C16.4103 6.94733 16.41 6.94315 16.4088 6.9391L16.3363 6.90296L14.9075 6.89766C14.8899 6.89188 14.8768 6.8861 14.8688 6.88066C14.8682 6.88022 14.8668 6.87896 14.8663 6.87852L14.865 6.8775L14.8638 6.87641C14.8636 6.87603 14.8627 6.87464 14.8626 6.87427L14.8613 6.87325V6.87216L14.8601 6.8711V6.87005V6.86896V6.86685V6.8658V6.86475V6.86366V6.86264C14.8603 6.8624 14.8611 6.86175 14.8613 6.86155C14.8616 6.86101 14.8621 6.85999 14.8626 6.85944C14.8695 6.85145 14.8864 6.8439 14.9076 6.8371C15.2487 6.7976 15.8548 6.71314 15.8951 6.21766C15.8888 5.9596 15.7651 5.79062 15.3926 5.74377C15.1188 5.76179 14.9236 5.98687 14.9551 6.23466C14.942 6.3014 14.9816 6.43233 14.9013 6.44716C14.3762 6.48796 13.803 6.76761 13.7838 6.96777H13.7826L13.7813 6.96882L13.7788 6.96991H13.7763C13.7755 6.97015 13.7734 6.97076 13.7726 6.97093H13.7688C13.7675 6.97096 13.7663 6.97096 13.765 6.97093C13.7637 6.97072 13.7612 6.97015 13.76 6.96991C13.7259 6.96185 13.6819 6.91391 13.6888 6.84666C13.6688 6.50064 13.5363 6.1091 13.3288 5.80755C13.2548 5.74462 13.2225 5.71912 13.2013 5.71616C13.2006 5.71609 13.1995 5.71619 13.1988 5.71616H13.1913L13.1912 5.71612ZM14.5588 5.89887C14.529 5.90323 14.5004 5.92403 14.49 5.95837C14.4835 5.98081 14.5027 6.01821 14.4788 6.02954C14.465 6.04133 14.4116 6.03447 14.4138 5.97218C14.4138 5.95232 14.3966 5.93056 14.3862 5.91798C14.3758 5.9122 14.3701 5.91054 14.3512 5.91054C14.3283 5.91135 14.3276 5.91649 14.315 5.93287C14.3097 5.94953 14.3025 5.96602 14.3025 5.98489C14.2996 6.0071 14.2904 6.01461 14.2712 6.01787C14.2498 6.01787 14.2549 6.01985 14.2375 6.01039C14.2272 6.00084 14.2138 5.99707 14.2138 5.98068C14.2138 5.96371 14.2098 5.93665 14.2038 5.92543C14.1946 5.91523 14.179 5.91094 14.1625 5.90737C14.0726 5.90765 14.0673 5.99435 14.0725 6.02739C14.0658 6.03365 14.0612 6.19029 14.1838 6.23354C14.3483 6.30024 14.7404 6.26097 14.645 6.04552C14.645 6.02556 14.6386 5.95858 14.6362 5.94029C14.6194 5.90707 14.5884 5.89449 14.5588 5.89887ZM20.0776 6.09118C20.0729 6.09052 20.0682 6.09088 20.0638 6.09223C20.0638 6.09223 19.3014 6.55327 19.2826 6.56929C19.207 6.62641 19.2448 6.82731 19.2826 6.80409C19.3372 6.82194 20.1047 6.37984 20.0901 6.32809C20.1236 6.32979 20.1396 6.10066 20.0776 6.09118ZM15.2792 6.15952C15.3103 6.1567 15.3511 6.16567 15.3904 6.18502C15.4473 6.213 15.4824 6.25526 15.4779 6.28596C15.4778 6.28678 15.4781 6.28834 15.4779 6.28913C15.4777 6.28994 15.4757 6.29151 15.4754 6.29232C15.4751 6.2931 15.4745 6.29474 15.4742 6.29552C15.4739 6.29603 15.4732 6.29715 15.4729 6.29763L15.4717 6.29977C15.4695 6.30249 15.467 6.30499 15.4642 6.30721C15.4368 6.32891 15.3737 6.32581 15.3142 6.29657C15.2578 6.26886 15.223 6.22626 15.2267 6.19563C15.2268 6.19481 15.2277 6.19325 15.2279 6.19246C15.2288 6.18866 15.2306 6.18519 15.2329 6.18182C15.2337 6.18063 15.2344 6.17866 15.2354 6.17757L15.2367 6.17652C15.2386 6.17462 15.2407 6.17284 15.2429 6.17121C15.252 6.16513 15.2648 6.16081 15.2792 6.15952ZM8.60276 6.27638C8.20772 6.2825 7.62924 6.71651 7.614 6.95743C8.03084 6.78729 8.44028 6.62355 8.864 6.44743C8.7956 6.36066 8.85984 6.2825 8.60276 6.27641V6.27638ZM9.88276 6.42727C9.92148 6.42761 9.96236 6.44389 9.984 6.48996C10.0035 6.53219 9.98492 6.57639 9.96152 6.59832C9.9614 6.59849 9.96164 6.59921 9.96152 6.59938C9.96112 6.59989 9.96064 6.60108 9.96028 6.60152C9.94368 6.61967 9.88548 6.61213 9.844 6.61213C9.79384 6.61026 9.76912 6.60329 9.739 6.56861C9.7246 6.53002 9.76844 6.49214 9.7878 6.46338C9.78796 6.4631 9.7888 6.46259 9.789 6.46236C9.79112 6.45964 9.79452 6.45644 9.7978 6.45386C9.81276 6.44216 9.83872 6.43125 9.86652 6.42836C9.87192 6.42778 9.87724 6.4272 9.88276 6.42727ZM19.9292 6.56089C19.8589 6.56823 19.7922 6.62471 19.8229 6.71494C19.8036 6.76798 19.9182 6.95335 19.9479 7.05175C19.9746 7.12179 19.9135 7.31994 19.9692 7.34075C20.0204 7.3641 20.1552 7.22314 20.1504 7.04644C20.1652 6.95559 20.1123 6.62086 19.9779 6.56405C19.9621 6.5603 19.9455 6.55921 19.9292 6.56085V6.56089ZM11.3968 6.88814C11.3347 6.89181 11.2793 6.92003 11.3043 6.99439C11.3005 7.04831 11.4797 7.1139 11.4905 7.23875C11.5161 7.29022 11.4522 7.45505 11.5055 7.47039C11.5544 7.48752 11.6224 7.35645 11.648 7.2345C11.6622 7.16772 11.5866 6.93411 11.458 6.89239C11.4379 6.88854 11.4173 6.88711 11.3968 6.88814ZM13.9505 7.18458C13.9552 7.18431 13.9594 7.18458 13.9643 7.18458H13.9668C14.126 7.22134 14.3606 7.22515 14.5643 7.243C14.7302 7.25197 14.8122 7.36234 14.6568 7.40875C14.5035 7.45339 14.3562 7.48824 14.3556 7.6765C14.3757 7.76979 14.3714 7.81872 14.3543 7.84119C14.353 7.84289 14.3508 7.84514 14.3493 7.84653L14.3481 7.84755L14.3468 7.84864L14.3456 7.84969L14.3443 7.85075L14.3418 7.85183C14.3394 7.85309 14.3369 7.85415 14.3343 7.855C14.3322 7.85561 14.3291 7.85574 14.3268 7.85605C14.2904 7.86061 14.2374 7.83106 14.198 7.81355C14.1036 7.75589 13.8383 7.61618 13.8006 7.3163C13.7952 7.24864 13.8548 7.1903 13.9506 7.18455L13.9505 7.18458ZM7.71292 7.4151C7.70296 7.41541 7.68308 7.44067 7.65668 7.46933C7.42168 7.78757 7.40076 8.26255 7.53044 8.40433C7.59932 8.47131 7.71292 8.50072 7.79668 8.47975C7.94428 8.42535 8.0092 8.17113 7.97416 8.07814C7.92492 8.01259 7.88588 8.00222 7.83668 8.05798C7.73276 8.23726 7.68952 8.11462 7.68044 8.01442C7.66448 7.82436 7.68616 7.6494 7.71044 7.51081C7.72336 7.43975 7.72284 7.41493 7.71292 7.41517V7.4151ZM15.7193 7.83296C15.7003 7.83197 15.6813 7.83528 15.6643 7.84255C15.6606 7.84255 15.4961 7.93714 15.4431 8.003C15.4107 8.02391 15.4144 8.0421 15.4243 8.07844C15.4495 8.12768 15.4939 8.11224 15.5443 8.08905C15.6112 8.0813 15.6435 8.11853 15.6381 8.1868C15.6072 8.27194 15.6518 8.30366 15.6518 8.309C15.6518 8.31434 15.7162 8.36136 15.7918 8.32389C15.9514 8.27211 16.0508 8.22172 16.2743 8.18041C16.333 8.17946 16.3296 8.04601 16.2368 8.04125C16.1158 8.04642 16.0041 8.05169 15.883 8.13261C15.8086 8.14723 15.7958 8.10874 15.7793 8.07419C15.7604 7.98848 15.8219 7.92806 15.8093 7.8638C15.8126 7.86662 15.7717 7.83534 15.7193 7.83296ZM20.8457 7.99555C20.816 7.99633 20.7848 7.99984 20.7395 8.003C20.6905 8.01184 20.6734 8.03006 20.6645 8.08055C20.668 8.15712 20.7231 8.15331 20.7795 8.18361C20.8121 8.21897 20.8334 8.25093 20.777 8.309C20.7235 8.35061 20.6854 8.3736 20.632 8.41525C20.6068 8.45183 20.591 8.50807 20.6682 8.52575C20.8108 8.55982 21.1407 8.37761 21.1407 8.3738C21.1942 8.33973 21.1764 8.275 21.1719 8.275C21.1408 8.2447 21.0704 8.26289 21.0232 8.258C21.0007 8.258 20.9268 8.24868 20.962 8.19319C20.9913 8.15865 21.0021 8.13798 21.022 8.09544C21.0442 8.05379 21.0246 8.02574 20.9444 8.00296C20.9036 7.99667 20.8754 7.99477 20.8457 7.99555ZM18.7041 11.6812C18.7038 11.6813 18.7032 11.682 18.7029 11.6822C18.4658 11.7339 18.4731 11.9432 18.6254 12.035C16.1216 12.035 12.2794 11.9988 11.4554 11.9988C10.9944 11.9988 9.53588 11.9521 9.50784 11.9521C9.82064 12.341 10.2737 12.4201 10.8666 12.4281C11.9787 12.4281 17.1314 12.4164 18.5978 12.4164C18.4936 12.5738 18.6073 12.8269 18.689 12.8733C18.6908 12.8742 18.6936 12.8757 18.6953 12.8765C18.6984 12.8778 18.7024 12.879 18.7053 12.8797C18.7063 12.8799 18.7081 12.8796 18.709 12.8797C18.8062 12.8991 18.8489 12.8394 18.8816 12.7957C19.039 12.8075 19.9254 12.8184 20.0066 12.7947C20.0068 12.7946 20.0075 12.7937 20.0078 12.7936C20.0627 12.8622 20.1171 12.9271 20.2216 12.9158C20.4043 12.8825 20.5482 12.8656 20.5528 12.5503C20.5528 12.5503 20.5341 12.013 20.119 12.0467C20.0208 12.0593 19.7453 12.0828 19.7453 12.0828C19.4264 12.0506 19.1925 12.0473 18.8341 12.0361C18.8672 12.0004 18.9256 11.8557 18.8541 11.8034C18.8354 11.7902 18.8076 11.7828 18.769 11.7853H18.7678C18.7673 11.7853 18.7658 11.7854 18.7653 11.7853C18.765 11.7853 18.7643 11.7843 18.764 11.7842C18.763 11.7839 18.7613 11.7837 18.7603 11.7832C18.758 11.7817 18.7559 11.7799 18.754 11.7779C18.7536 11.7774 18.752 11.7763 18.7516 11.7757C18.7334 11.7533 18.7236 11.6983 18.7116 11.6844L18.7103 11.6833L18.7091 11.6822C18.7083 11.6819 18.7074 11.6815 18.7066 11.6812H18.7053C18.7052 11.6812 18.7042 11.6812 18.7041 11.6812L18.7041 11.6812ZM18.8741 12.4493C18.8745 12.4492 18.8749 12.4495 18.8754 12.4493C19.2406 12.4645 19.5838 12.4523 19.9491 12.4674C20.007 12.5092 19.9781 12.6051 19.9404 12.6225C19.9384 12.6234 19.9363 12.6241 19.9341 12.6247C19.9328 12.6249 19.9305 12.6247 19.9291 12.6247C19.9278 12.6247 19.9255 12.6249 19.9241 12.6247C19.8053 12.6221 19.7366 12.6198 19.6179 12.6172C19.6178 12.6122 19.617 12.6072 19.6154 12.6023C19.5872 12.5315 19.3834 12.5362 19.3354 12.5917L19.3329 12.5949C19.3321 12.596 19.331 12.598 19.3304 12.5992C19.3296 12.6006 19.3284 12.603 19.3279 12.6045C19.3271 12.6066 19.327 12.6097 19.3266 12.6119C19.3263 12.6145 19.3251 12.6177 19.3254 12.6204C19.165 12.6368 19.0207 12.6159 18.8604 12.6109C18.8133 12.5611 18.8188 12.471 18.8741 12.4494V12.4493Z" fill="white"/>
</g>
<defs>
<clipPath id="clip0_3523_830">
<rect width="30" height="17" fill="white"/>
</clipPath>
</defs>
</svg>
