<svg width="11" height="9" viewBox="0 0 11 9" fill="none" xmlns="http://www.w3.org/2000/svg">
<path d="M10.9988 0.995009C10.9858 0.710085 10.8559 0.452297 10.6612 0.262348C10.4664 0.0723994 10.2067 -0.022575 9.93407 0.00456053C9.66141 0.0181283 9.41471 0.153806 9.24592 0.357323L4.05227 6.46283L1.67617 4.21057C1.48141 4.02062 1.22173 3.92565 0.949061 3.93922C0.676395 3.95279 0.429697 4.0749 0.260903 4.27841C0.0791252 4.48193 -0.0117637 4.75328 0.00122045 5.03821C0.0142046 5.32313 0.131062 5.58092 0.325824 5.7573L3.455 8.72864C3.63677 8.90503 3.88347 9 4.13017 9H4.18211H4.19509C4.45477 8.98643 4.70147 8.86432 4.89623 8.64724L10.7651 1.74124C10.9209 1.53772 11.0118 1.26636 10.9988 0.995009Z" fill="#022A3A"/>
</svg>
