<svg width="44" height="78" viewBox="0 0 44 78" fill="none" xmlns="http://www.w3.org/2000/svg">
<path d="M43.3987 22.5575C43.3987 10.5735 33.6837 0.858398 21.6991 0.858398C9.71443 0.858398 0 10.5735 0 22.5575C0 28.3018 2.23213 33.524 5.87687 37.4053C8.64753 40.3568 10.8885 43.7662 12.4064 47.5188C14.2554 52.0889 15.8457 56.7625 17.1682 61.5192L21.6991 77.8102L26.2299 61.5192C27.5531 56.7632 29.1433 52.0889 30.9917 47.5188C32.5096 43.7662 34.7506 40.3568 37.5212 37.4053C41.1653 33.524 43.3981 28.3018 43.3981 22.5575H43.3987Z" fill="#022A3A"/>
<path d="M19.709 20.9525L19.3125 23.7517H26.9769L26.6356 25.9883H15.8302L16.8311 19.6865C16.8375 19.6478 16.852 19.5609 16.8793 19.3921L16.9358 19.0445C17.2155 17.4753 17.9228 16.8149 19.5637 16.813H20.5526L30.6565 16.8118C31.9454 16.8118 32.9901 15.7671 32.9901 14.4782C32.9901 13.1892 31.9454 12.1445 30.6565 12.1445C30.6457 12.1445 30.6349 12.1458 30.6235 12.1458C30.6191 12.1458 30.6134 12.1445 30.6096 12.1445H15.9627C14.4899 12.1445 13.2619 13.1778 13.0265 14.6158L10.4075 30.6771H27.8338C29.3225 30.6771 30.6134 29.6153 30.8303 28.1513L32.3317 19.0483H21.9176C20.7949 19.0483 19.8644 19.8501 19.7083 20.9525" fill="#F4CD00"/>
</svg>
