<svg width="58" height="88" viewBox="0 0 58 88" fill="none" xmlns="http://www.w3.org/2000/svg">
<path d="M29 72.125C29.9258 72.125 30.8047 71.7148 31.3984 71.0039C34.0312 67.8477 57.1254 42.8989 57.1254 28.3749C57.1254 12.8669 44.5084 0.249878 29.0004 0.249878C13.4924 0.249878 0.875397 12.8669 0.875397 28.3749C0.875397 42.8979 23.9694 67.8479 26.6024 71.0039C27.1961 71.7148 28.0743 72.125 29 72.125ZM16.535 28.543C16.535 21.6524 22.1444 16.043 29.035 16.043C35.9295 16.043 41.535 21.6524 41.535 28.543C41.535 35.4336 35.9295 41.043 29.035 41.043C22.1405 41.043 16.535 35.4336 16.535 28.543ZM50.875 81.5C50.875 84.9531 41.082 87.75 29 87.75C16.918 87.75 7.125 84.9531 7.125 81.5C7.125 78.0469 16.918 75.25 29 75.25C41.082 75.25 50.875 78.0469 50.875 81.5Z" fill="white"/>
</svg>
